<mxfile host="app.diagrams.net" agent="Mozilla/5.0 (Macintosh; Intel Mac OS X 10_15_7) AppleWebKit/537.36 (KHTML, like Gecko) Chrome/130.0.0.0 Safari/537.36" version="26.0.4">
  <diagram name="Page-1" id="MZif2_W2xoMAm5owNxqf">
    <mxGraphModel dx="726" dy="1551" grid="0" gridSize="10" guides="1" tooltips="1" connect="1" arrows="1" fold="1" page="1" pageScale="1" pageWidth="850" pageHeight="1100" math="0" shadow="0">
      <root>
        <mxCell id="0" />
        <mxCell id="1" parent="0" />
        <mxCell id="xmqwyPmPtyzJupy3q7Km-10" value="" style="shape=image;verticalLabelPosition=bottom;labelBackgroundColor=default;verticalAlign=top;aspect=fixed;imageAspect=0;image=https://www.preferred.jp/wp-content/themes/preferred/assets/img/projects/optuna/pict01.jpg;" parent="1" vertex="1">
          <mxGeometry x="496" y="-405.98" width="101.97" height="67.98" as="geometry" />
        </mxCell>
        <mxCell id="hM1cyXQX4DXX4V0fBr_b-6" value="" style="shape=image;verticalLabelPosition=bottom;labelBackgroundColor=default;verticalAlign=top;aspect=fixed;imageAspect=0;image=https://www.svgrepo.com/show/349342/docker.svg;" vertex="1" parent="1">
          <mxGeometry x="421.45" y="-440.19" width="58" height="58" as="geometry" />
        </mxCell>
        <mxCell id="xmqwyPmPtyzJupy3q7Km-3" value="" style="shape=image;verticalLabelPosition=bottom;labelBackgroundColor=default;verticalAlign=top;aspect=fixed;imageAspect=0;image=https://upload.wikimedia.org/wikipedia/commons/thumb/c/c3/Python-logo-notext.svg/1869px-Python-logo-notext.svg.png;" parent="1" vertex="1">
          <mxGeometry x="151" y="-481.09999999999997" width="64" height="70.2" as="geometry" />
        </mxCell>
        <mxCell id="xmqwyPmPtyzJupy3q7Km-4" value="" style="shape=image;verticalLabelPosition=bottom;labelBackgroundColor=default;verticalAlign=top;aspect=fixed;imageAspect=0;image=https://upload.wikimedia.org/wikipedia/commons/thumb/1/1a/FastAPI_logo.svg/2560px-FastAPI_logo.svg.png;" parent="1" vertex="1">
          <mxGeometry x="491" y="-481.1" width="125.41" height="23.2" as="geometry" />
        </mxCell>
        <mxCell id="xmqwyPmPtyzJupy3q7Km-8" value="" style="shape=image;verticalLabelPosition=bottom;labelBackgroundColor=default;verticalAlign=top;aspect=fixed;imageAspect=0;image=data:image/png,iVBORw0KGgoAAAANSUhEUgAAAWgAAACMCAMAAABmmcPHAAAAwFBMVEX///8ElOADAwNFyOsAj98Akd8Ajt9HR0dfX1/BwcEAjN75+fk3NzfW7fqZzPDD4vbt9/2/2/Sm0/Lj4+PT09N7e3ujo6OEhITLy8tSr+fJ4fX1+/4WmuLt7e1AQED19fVRy+xWVlY4oeNxcXHh8fuLxu6v2POW3fKWlpZ1ueqA1/CKiopqtulRrOd9v+za7fouLi5r0e6s5PW0tLQXFxfM7/nc9Ps/puUfHx9TU1Oh4fQQEBCe0PGcnJyL2vGsrKxQzh/1AAANwUlEQVR4nO1de0PaPhcG19atE6jo5qRsOgTmBfGy32Tby7bv/61eru15kpOTVMEi5vlPGkp8cnruSSuVl4Ha4DjDoFH2bLYUSf84jEKCqDrolj2p7cPNoB2EVQXxTdnT2jYkx6HG8gTttOyJbRn6LM3VcFD2xLYMxzFHc7UaNcue2VahOwp4nquhV9ErRLfNqo0pOl5Frw5px8izV9GrxMjIczXqlz25LUIvMvJcDX24sjJ0GXkOg3j2adAue3ZbhGON6Kja63eTNE2TJCl7dtuDlqo4go7Xy+vAtSLQ4bjsGW0nblSBbpU9oy3FEAU69DyvCd5tfh40IJfk48C1oQ6aw4cnawNE316g1wcQ6MiXYteFGqShw7Kns71oBl5zPAsGVHV432596ICKljNILYpnmt/G4uAwx4F9eBc0dEccm1SjYIl4tKL5vlj82smxZx++Dyp6KI6lSZGgvqL5vli8JUTv2odDoiOQVfSYLErw6v3AgkRDitQSFl6QseGrrwcUIzppu6voCq2U+wJXMaK7BbzoNHIe+hpQjOg+JdrS+9WgttA73MWI7oGKlnu/aJovrq1qvi8WxYiG+ndbNnDUbvqcSEGiwRZaYhCiZcLrFc32BaMQ0QmtroQ9cexN7Dz0VaAQ0WALLTFIP3Ie+ipQiGhI3VliEBpDWpJPrwIS0WljHzDE3vNxXQPJ0dFwxbdMi0QnYYRQOpQCDXFOdEJl34crItENoTmXB3H4WjSj5HvGRKLHpl0qJlAvDlJ3fleLSPTQ3NbPgyadaWhjiWxeBwSihf0TBqJzFZ2SkpctsnkdEIhumynlQQJtuinAUoh5JRCINmzYNPN8nH93nxjSaP95/6XNhJnoblGiafMB1e9+h+cUZqILe3cxsXlQ8nrmf2kzYSa6H0O0oh4XoQYrUUAyRynR71SjvFC8fy9fPzk5sYwQVUcDgc1gnZoKGmbT1J1Lp0G6sTH6wZ8PX7/c7u2+vXr3mbv++d3R2d6Eu5+7Z+efToQbuSeVYDNWeCGOpYsid5wmP75dnp6+eXN6d/n3/qFEvg8/HGU4X3x2cP6F0LPz9Z3ynZPvtC1mwvaRuQfJneg65EjlqJp2GsRm9h5+370BnF7+EO7aahKMDb0OjV5vnA3ifzptTsf092etakvD8o4QsTdTBJ/PdlTsHdL7fPyfNmDng0mHuBMNOVJLVE1dcGOnwQ+F5QXX98a71mOawOLrvcOJMcnMhqHxpBOF4dSoTCxPnFlqSvSXKVt/dBYnuMrucnDLDtg55H6yCNEd93phSqsrhnDl4ZSjeQYT1Q37M1UDnzRia8L00cxdUoXoz19UAhf4daKPR3xnJ+9MdAJJfzmqpp4h35SQ/DXSPMEdv4yww5Evj2HagG8rBoHJPgWiKweMVljg50w5fDde39n5x/2qM9GNArYQOg04JfNDonkCXlPjWnNPCm4Z4xejyQo0EL178J/A46+KJM9TqEZzCmeixwV6Z2zhym+ZZoNAKw1pXDVBOa+FHUNdfNLUBsZwT+TxvHIgXt/ZYTxBZ6KxXig3xND4m+k0sPD8zXjfkeXGfSWY5TQcHUNViyyjiEN5ISaOoP67zkRjLk90eGuUD/3ptfAsOHjQk6OTmGr5RuYIPiL00KVZhGiHpdB+15XoFFo65D7Svhiu3Is0X0pLSN1zpuJb17IzeqWephUDqgBXS7Qu0q5EF7GFkLpT/1XdDl7+vs8+pJ7dUFsjiJk0D1MXaMa/o9oHPHyW6Nurj3/OzyTLuDcd8VX/XAsRXYmGTEcg20J4OhW5S1WF/DD7eP7H6UM+MBnp8QbqYJXonl7j1Py7hkmgOaLPl7mLgw88y//9W454t6tc+qiS4ko0bnsTbSF1DjS7fwk0/10uw1y0gZGwGqpBJTjSkbIMCZPW1SzEyOgPaUS/pSmiw58MzxBu/8Nrmu5wJRoey1gYKHcagOI4ze2epjZmJiFQeLqBSSgO+oApcao6jgaOiouqEv0Bv8k4dOcV4Qa3aibPkWiIFSwbJagmDRTZp3H3HdEqk7+I2uiOltKJUguOtGJmb7jmCNU1uTZpaI1oTSI/qTxfqSPO4bKqpB2JhjSDxRYOzJ0GPww8V8B53q+Ghl8ColH/6keX6WzWjBpaI1pPwikW74s24D2oF9XBcyS6gC2UOg1ovg6WAJznffKA40JRFYtaqcV3+2COFkRAsdJItGbLNJH+pI8AkVYTHo5EgwKUN0oInQYPbnEJ+TVFSw+MoRBZgg4RbtAvN8ZlqqhEc7USyDNxm19Bj/9RLjoSDVvAQzEupJtrA+w0ICm7S8O3Z8g7JJXQqGdaRPKjcYuMAv1yIQg0Ev2WmxWlaueIG0Ed7nPh22aicQu4nCMFMtAzODUoDv0eGW/oxFENBp5j7rpPZkfyXyEpWNJ/Qi9kAtEqSzNc0RFcgq5Cc9iqrXQjuki90Jy6I5rDnDiaIXcv0OQ1DBtjSCQz0WskKqGrAe3d2k8C0WxGGVQwo6KRTFXk3YgeF6gX0iXBToN7V4EmUTyuas2QVQrhJxMy21z1UA810ivzQDRbJPloJZoGkIof7kg0xoVivVDoNMhV9J10hyla2Q+CgwbufH6FBN/TBC5NekTcIC5Jvmqiz5RrbkRD5CrXC4VOg1xF/5buMEN2D4xCwVlefkh2F8xVBdFeefuULNBFiWZLsE8mmu6TsNlCodPAzbebI+MqhmWlEUt2d5ItnOehLhj/jsar3JtigGjW1D0D0bUCttBQKZoiJ/qB/y5B5rug007jv3jhkBDHfeHyEVIzY0rVCdc7tWqiVQ/RiegC9UKh0yAtQnSmgVD9wKa6xRIQAxLNRZW6HT3lfgaBLko025L0ZKKhsiF34QqdBoWIzhw2JJo51YY8bss4soteSAVfs6HmBOfYCKIL9M5QVRgrGeMiOtog0UxplRrqhajSLF9H+55WMZgBiGZ9CiCa7Xh8KtEp9pEaRs1xLYS5OdF2r8Ogo6FCMvPnSStH/gRRyZh9QFbDsDF9E4guUi+kI9WGAMdMxwwGryPRtvLnrzgiIkD9/uljRRtrIj5Ts2qi1YS2C9EYF4qHyYidBnmS9NTWn5vmv4cX6PlB0yVvEg2dZ7BIvmW2VWxk09CbQTT2kYo5UtgkpFax/7or6UYWgiteu7KVgASBdCSZxlSTt+hzYDAxm0A01AvlHClsAlWL2CTXYUkq5WurPhbEBkyZpR4z2fFfQ5XsINCbQHSR3hnqAmgjad5f1h15KKo2DEBOmboXYBEwKK9ZXY7KRhCNtlDcnSl2GkA+WtYdOZ3qA0QbVQOa+URfEjTKsYNAbwLRGBeKtpCWopnK4recaDF/l99GW60m+Okka4cDiYbpNKg6MwYBBYlm9wUdkQGPcO+gvizXC+maMB2nrjXDXAFpBpU+XiH1jtEgELejTYvF5udxA/xosIURP2aBgUV4SBUc9k+kkObJM8e6RYD9vEQlKAyqDbzLYeaotnyiC9QLrWcaZH0dp5DtqFVpKWZMXGNNUaVVHgqDNZZoycCUTzR0TFhsYWQbuRDpv/BhPaIaljTfMi4O0zJaZWxcym5kFwR6A4jG/YVijhRSd+yZBomuNpLriJiyZGDZC8qeIqInPosK9MqJLp74R1so5khpp4GaulvgXlUbjWmyYkl02qRvZw64tArXyxjp5WL1XYAzoqXzrksnOoXeGXlPhctxpN8woTR/fe2c6MawDWqK7aVkDyByGianw0onGm2hfMgo5dnpTINuZ8Fsp3cxipXz3ngBZI7U4nz7pj5MPsC9dKILxIW1gmcaVPbDPAIMVRE0pAn3NQbZrIB+2oglv1s60XBktJwj7UupOwZDXepkMZ1C74NmRyaa22F5I0HpRBfYa08TPob0OkGmNljEpoXqqiMNaS7VDbQdJ1k20ei3yvVCmlGyHsHWV4+0AVbaxkg/URk0nI2luh0GLyhD2UTDFhzZFtJ+LesRbBfS0VjRtbCg6jZkw5Kqr8a1nY9aNtEN97iQDrVsFp9ogOvYJNFBVbQEiqiazqZWvJPA9irRsokGWyifYAebhOyvSO131ON7598Me3KrKTSZmHUUuh32A3/LJhriQnmvPRxH6nI60v4oRkUdBnG7bvsmLL05bQuvjLF0wE5RNtEobtJMU3JCW+z49oRu/bgdRkEwO3onbB+PHc4ipPXfamCU1JQG85H9BGs70f9u9zLcskRf5SNu1Ub0M3KN2bmB6V+RvpSeLFXgUP+bVrPe69XHrRu3M8Ja7c4S7fbA/J3rdg5h2BInBwT8CVTvCfibCCPey9+G1ydsyMsn0gyJpM0nV5fY2FP1cmBc6E9zXRsg+xv7A7fXBnTAyp7N9qIGzt3LP811Y4GvEnr1741dH3Dbm38R07qAqTt75tPjkWgUaPX3eALwUEG5FOTxeNyAc2fNfHo8Fpj5dch8ejwKfSiC+PcDrQtKn6C5hdvjSWhUEf61NetBUykzec2xFtRGaqOPfz/vypF2m3qF2gv06pAMLoa94eC6EzLVaXnrikcR9ONwBo3kqlQD9SgMrsN7qTicugc8nGDahTPlWdts7PF4CK8vDL3HsUKY35lM3tnr8XSYXuUbVr3DsUrUDG20gdRB61Ecdbb9Pmj7JPSKweyTDKP22Lt1K0YSqHvPomDQ8DSvAf3jkLz/sjP0fXZrQ0JemVz2XDw8PDw2Hv8HaXEURUfPCrsAAAAASUVORK5CYII=;" parent="1" vertex="1">
          <mxGeometry x="153" y="-373.96" width="92.45" height="35.96" as="geometry" />
        </mxCell>
        <mxCell id="xmqwyPmPtyzJupy3q7Km-9" value="" style="shape=image;verticalLabelPosition=bottom;labelBackgroundColor=default;verticalAlign=top;aspect=fixed;imageAspect=0;image=https://cdn.worldvectorlogo.com/logos/numpy-1.svg;" parent="1" vertex="1">
          <mxGeometry x="222" y="-483.21999999999997" width="60" height="64.23" as="geometry" />
        </mxCell>
        <mxCell id="xmqwyPmPtyzJupy3q7Km-11" value="" style="shape=image;verticalLabelPosition=bottom;labelBackgroundColor=default;verticalAlign=top;aspect=fixed;imageAspect=0;image=https://upload.wikimedia.org/wikipedia/commons/thumb/2/22/Pandas_mark.svg/449px-Pandas_mark.svg.png;" parent="1" vertex="1">
          <mxGeometry x="292" y="-486.03" width="60" height="80.05" as="geometry" />
        </mxCell>
        <mxCell id="xmqwyPmPtyzJupy3q7Km-12" value="" style="shape=image;verticalLabelPosition=bottom;labelBackgroundColor=default;verticalAlign=top;aspect=fixed;imageAspect=0;image=https://upload.wikimedia.org/wikipedia/commons/thumb/0/05/Scikit_learn_logo_small.svg/2560px-Scikit_learn_logo_small.svg.png;" parent="1" vertex="1">
          <mxGeometry x="491" y="-451.00000000000006" width="79.75" height="43" as="geometry" />
        </mxCell>
        <mxCell id="xmqwyPmPtyzJupy3q7Km-15" value="" style="shape=image;verticalLabelPosition=bottom;labelBackgroundColor=default;verticalAlign=top;aspect=fixed;imageAspect=0;image=data:image/png,iVBORw0KGgoAAAANSUhEUgAAAgAAAAIACAYAAAD0eNT6AAAABGdBTUEAALGPC/xhBQAAACBjSFJNAAB6JgAAgIQAAPoAAACA6AAAdTAAAOpgAAA6mAAAF3CculE8AAAABmJLR0QA/wD/AP+gvaeTAAAAB3RJTUUH6AcLCy0FD/cp3wAAgABJREFUeNrsnXeYVNX9xj93tvcGuywsvRcpioIgogjYuyYao0mMMWpimok1v8RoEjVqNBpjYmyxJfYKiKCCgEjvvcMCu8uybO8z9/fHHXR35s6dW2fuzJ73efbZ3dvmzrn3nPf9lvM9ICAgICAgICAgICAgICAgICAgICAgICAgICAgICAgICAgICAgICAgICAgICAgICAgICAgICAgICAgICAgICAgICAgICAgICAgICAgICAgIBA5SKIJBARirs/m+X9yO/w+/pMCZAGpQBqQAST7z83V0edloNr/dyvQADQCLUCtf1t1h59j/p/jf8viEQkICAEgICCgHwlAMdAXKPH/9AK6A4X+fd39Pwku/Q5e4AhQAZT5fx8BDgKlwAFgn3+fVzxyAQEhAAQEugrygEHAQP/v43/3A3oAiV2kHdqBw8BeYBewM+D3MfGqCAgIASAgEIsoBkb4f0Z2+LtANI0uHAU2AZv9v7f4f5eJphEQEAJAQMANSACGAOMCfvJF0ziCKmANsNr/ew2wAxFOEBAQAkBAwGH0AyYCE4BTgDEoSXbR675Sx24c+D8gSSa7uj+XT5Y7b5M77Av6PypoANYCy4FlwFcoeQYCAgJCAAgImEIycDIwBTjVT/pFkSF1/w8SSB5/L+34W1IhfSe7tqyxuaMYkAGff5P/t+z7Zp8sR0oslPnFwFJgEbACaBOvtICAEAACAmpI81v3pwNT/YSf7kyv85O4lOAncw94PMr2Tl0ykNwDuqskRaFLqxC4LIc+JshD4FOO9/n8fx//kf1iwRE0+sXAF8BCvzhoFq+8gBAAAgJdF0OBc/0/p6PMnbfRku9A7FKC8uPxBHc9NTd9ELlL5ohfstLNZQ2DPZwQkMPvk+XgY31evyDw//b5vvEi2IcmvxCYA3wMbBddQUAIAAGB+EYGMM1P+OcA/e2z6P3k7kn0k72nA1lrkL0kBXdHtW0hyVyymfSNigE5zHGyigjQ2BaUc3B8u18U+Nr9osBrp8dgl18IfAx85vcYCAgIASAgEOMY6Sf7c1Di+SnWeozkJ/lE8CRAQqK/G0ka5B7ufxvIXzLTpaXQ1jxhLH85EiJA63+/OPC1+70G7crfsmVPQQtKqOBjv4dgi+hCAkIACAjEBjzAZOBbwEVAH2tXS1AI35MIniTl/+Nd52tSViH4sOTfsftpCQI7iN9CCMA2IaAlAlSOC0X6QfsCZiL4vOBr8wsDvziwhr3AB8AbwJeIUscCQgAICLjuPZ7oJ/0rUUromiR8P9knJPstfY8KsYchfM2peaH+VxMEGuQflvglm/lf1ikE9IiAjueEmlIY5v9QgiBwu+xTBIG3gygwjwPAW8DrKNMOhRgQEAJAQCBKGOkn/GtQyuqa6AEeSEhSCD8hpcP0OynYytfzd5AwMEH+quSuh/glnb1aMmHxa5F8OCEQgvCNioCQlr+Ov78WBjK0t4G3BbytVvIIDgDvAm8CS4QYEBACQEAgcqR/NUoVPhNWfhIk+gk/KIYfSO6hrPxw1r/N5K81HTBkLQA7urieGgAqx8pOiIBwXgCtv0OIAZ9XEQLtLYqXwByP7wPe94uBxaKLCggBICBgH4qA7wHXo0zdM/iWJ/gJ/7iV7wlj6Xe05M14AlQIP1xOQKhtrqoFYLUGQIhM/yDrPuB/XYJA628dYuB4uMDbAu2tfu+AqfyBrcBzwEsoqyEKCAgBICBg1E4HZgA/Ai7kmzXtdZ6dCImpyk9CUhiy10P6gfsJnQ9gF/mHmhFglvh1TQ+UdRjBRoWAnSIgVNyf8GSvtl9LFHjboL1Z+TGeO9Dq9wr8G/gU8IkuLSAEgICANoqB64AbgQHGSD9BIfyk9G9IP4jkVYRAJ9K3wfpXLdWrZ+qfDvI3VAvAji4uh+R8c9P/NAg/rOVvtxdAwxsQKA68bdDWZFYMHAReAZ5GrFMgIASAgECQtT/NT/qXAonmSD8lPMkHkX0oIRC4DQN/Y/5/TfIPQ/yS0906lBjQUfXPjNUf1iug9281MRAiJ0DWIQ58rdDaBO1NRsWAD6XQ0DMoCYTtousLCAEg0JWt/VtQYvs9DZF+UjokpiuxfU0rP4Rlr2X1q5J7oChQ+du0GFDxFHQ6LozVr5v49XZ3Wd9+MzUA1FYQNEv6nSx6NMhezcJHg/gJ7Q0I/N3eAm2NfjFgKGfgIEquwNMoixcJCAgBINAlMAT4id/iT9X9qialQnImJKapE3w4EaDLM0CwaDDkCQgkc52FgMyQvxTtbmymBoCaCAhXCEhjOmA4yz+IzNFn6Ycjf7Vt3hZorVcEgf6KhK0odQX+AmwUQ4OAEAAC8YrTgDuA83W/e55EhfRTsjqsnqeT8HUJAtQ9BYanBYKx6X9a5B8r3Vi2dq7pQkB6pgOqkTqhiV+Pta9XEMheaG2A1jr/1ELdWAI8BHyEqCsgIASAQBwgCbgE+A1wsn5rP00h/aR0HYTvwZDbP+wUwHCkH47wzZK7FNu9Vrb7QA2iD1vwh/A1AMIl/2mGA3z6BEF7C7TUQluDEa/AOuCvwH+BNjGECAgBIBBryAZ+ANwG9NZ1RkKS39rPVix/TeL3mPAGYFEIhBIF4bqSZHMvjHkFoPNw2YQ40FEJMGzWP8at/lCC4PjfvnYlPNBSp9QY0Icy4F/A34BjYkgREAJAwO3oAdwO3ABk6XoFkzMgNUfJ5u9I7lqWvlX3v+5aAGpT+wx0JUl0QUsqQDYrDkIl+qGvBoDpMIAv/L62ZmipUcIE+kRTrV8IPIIoLiQgBICAC1EA3Ar8ShfxSx7FxZ+ap1j+YUneYxPxG6gFoKe7SJHqXlL0erccsZOMX0s2cLyZGgB2CYGv//Z9s83bDi3V0Fyjd02CBpSZA38GysWQIyAEgEC0kYUyle8uICfs0Z4ESMmBtDwVN7+G5a9F5CFDA6BvVoCOrmF7rX0pir3S5GJAjgoJ2d6LynqP05n1//WxvvCzATqWFtYSBx3DA8010Fytt65APfAU8CBQLYYgASEABCKNTJSpfHcAeWGPTkxRrP3U7A5WfmAc32OQ+D0mrH6zVr1kvWtJXbV72pEbIFv/TL3XNWz1+wwKAV/o/S310HRUqTgYHnXAP4AHgBoxJAkIASDgNDJQ4vt3oSzSo42kdMXaT8kKsPADrX2PfnI3RPxmLHuTWfuSG7qc09eXo3992ew9yeauZYsQ0CD9IK+AD1oboemYMpUwPI4Cfwce9YsCAQEhAARsRSpwk5/4C8MenZwFGd2+KdoTSNyh/tay/DVFgVqSXjiCdoLoJWe6ZKz1VFPJexYFgl3CIOx1wrn/fSY8ASp/y7JSYbDhiDKDIDzK/N6AfwEtYsgSEAJAwA5ciDIVqX944s+AjCJlHn8nIvfos/ZDTvHzGCN805a9pPNwyXp3k+Kl+8o2ny7bew+y0WvLBq+hMS1Qc5uWVyDg77ZmaKxQphGGxwHgtyhLEgsICAEgYArjgMeB08MemZQOmUWKAFCN8ZsVA4GWv16ytovsJfPdSRJd0RbRYEkg6EkSNCEKtM5Xy/g3Q/pBf/tDAw1H9IYGFgC/QCksJCAgBICALhQAv0NJ8kvQR/xZ3xB4ILnrcf3rsvKtEL6dZC8ZPEVytru6rhKw7PQHWCByu0SBXkEgG/QEqIUCAsSALENbPdSX+2sJaMIHvIpSiVNMHRQQAkAgNJ2jTOn7A+Gm9CWlQ0Z3SM0NIHMjpB8qD0AP2VolfDvDAVa6ktT1eqMp0jYoDhx3+2scrNc7YObvjt4AWVY8AfqEQD1KkuADiPwAASEABAJwMUqlsUGaRyWmQlaxUrlPlfC1BIDGLADLVr5kD9nbGve3g9xjvYvKNpwm2/eZsl2iQLbZO9DBKxBI8loC4Pj/zdVQd1hZe0Ab21DKc88SQ56AEAACI1Hi/NM1j/IkQGaxktl/fFU+TWK3g/SdInw7yV4y2ZOkGOrekViYzmytANn69XVfywZBYFkMaOyTvUp+QH0Z+LzhGmQuSn7AVjEECgEg0PWQhFK29w9AiuYrkp4P2b3Ak9w5zh/O6tdD+rqtfIueAc3D7PIQ2Nm1pPjooYaJ2qJAsGrhG/I+yCbOk3Xcr5oY0OkNkGXwtSregIbKcO3QhrLq4O8RYQEhAAS6DCYDzwAjNI9KyYLs3v7Mfi3C9zhL+raFAuwme5NTAaV46cayA5eT7b8PW0WBGUFgkxgI5f4P9X9bI9QcUJYj1sYO4EaUWQMCQgAIxCmygfuBnyosHQKJKZBdAmn5flLXS/genaRvp5VvlfAlm4neiuXeJbMAHfQk6BEGsrlrmCZ3nedoigGfundA1SPgU1YerN4frrywDPwbZbZALQJCAAjEFc4HngZ6hzzieJw/q1j5+2tyD0f4noDsfROkH5GEP5tj/1Gb5y+5r+eatt5tEAmGPttqLoDdiYEmxYBqeEBNEBwPC3iV2QJ1B8PlBxzyGwjviiFTCACB2EcPlCp+39I8Kr0AcvtCQkoHctdh8UeE9C0QvmWyl5yP+0tdtBvKDk0BNCwMZAvXMCMI7BYDOgTA8W3tLVC9F5qqwjXKf1GSBCvEECoEgEBs4kqU1cK6hTwiIRny+kFaQbC7P6QAkIJfn7DEb4L0bSV8O8neYLexheDjZjEABwWC3sJBVnMBzAgCO8RAuNkEskZIICAs0HwMqnaDt1WrEapRVvv8N5GZCiIgBICADegJvADM1Dwqq4di9XuSQrj7rbr4jZC+GStfck/sX5Lc1f1MeT6MLLQTZbEguykXQNZ/jl6CNyUGtEIEAX8jg7dN8QbUhy0Q+DHwA5TFhgSEABBwMS7xK/bQVn9SOuQPgtRsFaIP9ABEg/TNWPlWCd/ucIDF7iXFU/eULQoIJ/IBZIvXkE2cZ5LgLYsBn0ZYwAfNtVC1U5k1EBpHUJYB/0AMsUIACLgPacCDwM80rdSsXn6rPzGEpR/O2o806Zu08iXJ2msvSc50IceJ3ekuLTt7bdmh+5GtigLZ+HlOuP71HhvKK6AmAI4nCdYeUKYNyj6tRnoZuBloQEAIAAFXYDzwCjA05BEp2VAwGJIz1WP9arF9U9Z+lOL/VghfkuztKpZJPl67pWztXNnmz5Jl89eQ3ZQHYPQ4OXRooLUBqnZAc41Ww2wFrgFWi6FXCACB6MED3A7ch1LZT+UJeyBvAOT08rv0PSpz+61a+9EgfQvxf0my3i1Mk7xkc2+NdheWdW1yViToFQfhcgEimQcQBTGgNYPg69wA/++aUji2R8sb0Ar8FmWBIZ8YioUAEIgsegMvAWeEPCI5A7oPV6z/r8k+0M1vgND1uvhjJhSgl+wl57qU1BW7o2yB743kA8jWr+c6179NxwV+bqfwwPGVBuuhYrPyOzQ+B64DSsWQLASAQGRwOUop3/yQR2SXQMEgf6w/oJKfbuJ3QBw46hWwSPiGrHrJ4GFSF+mysr3Xke3+3HDeApsFQTTFQMjrhQsPdPAK+NqV6YI1+7VapQYlL+C/YmgWAkDAOaSgFPX5ccgjElKgcIRS2Efy6Mjm10PUVkIBRgSCFoE7EP+3K/ZvmeSl2OvJcjQvYkQcWM0FsDsx0IgYMFsyOFQ7mQkP+H8aKxVvgHbdgKdQFhhrFUO1EAAC9qIX8BYwMeQRGd2h+willr9h4o9WKMAE6ZshfF3WvaRzd6RCArHeTe3IDzAx31+2ek0tL4EZQeCUGHDAK6AlBNpb4Mgm/yqDIbESxUO5XwzZQgAI2IPTgddRyvqqPEWP4u7P7adO/Jbd/HaLg1AkbmP83yrhG07yk0wcIsVAF49EATjZxEcaFAZW3P5mBIHhxEAbxYAp13+oY1SEQO1BqNyqtabAEeAq4DMxdAsBIGANNwJ/J1SWf0o29Bj9zfQ+06RultAdIv2IhgKMdAXJwG4xFdAeIWEkaTACuQBOuv4tiwGDgsGMWJB90FIH5Ru0lhpuR5kl8JAYwoUAEDCOTOA5tBbxye0L3YYpK/eZJnWHrX0nSd9RwnciHGDiHMmtXVm29TDzIiESbn+zgsApMeCkV8CAWPC1w5Gt4RIEX/MbMaJwkBAAAjoxGHgHGKX+1DxQOBJyettL/LZZ+w7F/zWJW7JI1JKOzTbOEJC6apeULXC/iSV/ZbPXkk2eH0pIRDMPwOAxRoVA7UEo3whyyJDAVuAyYIsY2oUAENDGBSjlNnNV9yalQ8+TICULexL7pMhb+06Svi7CtyoWjHoJnOhubuu6snPXstPtb1oUaJ3rpBhw2itgIU+g4/6WWji0Wms9gVrg+8C7YogXAkBA/Vn8HvhdyOeSUQjFY5XV+wwRvxmPgBpRR4r0zVj5ThO+pHNzhKYCxjz/y/Z8kGzl+hYFgeHEQNn+Y3WJATNCQMPiD7Xf2wpla6HhSKiG8fnHuD+K4V4IAIFvkAw8C1wb8oj8gdBtaABxO0H8NoYCnCJ9M4RvO9lL9nY1KZ66q2zDIbL5z3RMFJgRBBESA9Fw/YfaX7UTKrdrtdd/UPICRL0AIQC6PPJQ4v1nqO71JEKPsZBZZIH4bQoFWLL23RgKCHeu0W4imdgluajby1G4FzM5AbK5a8tmrhVjrn/TFr/FWgGB+xsqFG+Aty1Uw36GUi+gWlCAEABdFf2BWcBw1b0p2Uq8PzndPPE74uZ3M+lbJXw7wwF2dDHJHT1bjviJGgRng4VvRRDETB6AU+EBnUKgtQEOrVKmDKpjM3A+sFdQgRAAXQ0TgPeBItW9WcVQPAakBJVHZZX47XLzuyEUEO41luwne1uIXnKoZzrdpWWHTpOtX1A2e10tUWBzYqBu179O4RDV8ICWEDg+VdALh9dCfVmoRiwDLkSpICggBECXwKXAK0C66t7cflA0wv94Ikz8dln7Ia1xvceZtfKtEL6d4QCjnoJ475pW8gJk859jxe1vRhBETAzY5RWIkBCo3A5Hd4RquAbgGr9BJCAEQFzj58BfAY/q4ygaqRT40SRvq8QfQ6GAsFa+jVMBTZG9GZKPp+mAcmSuZZfb35QoMJkHoFtAGBAObnD96xICKvtqDijVA9VrH3hRFhJ6QlCEEADxiATgMeBW1b2eROg5DjKKIkj8ZjwCTlj7FknfFsKPZjhA53lxMwlAtu/Cjrj9zQoCp8SAnV4BGy1+M0KgoUKpF+BrD9W4T/iFgFdQhhAA8YJklJKYl6vuTUyFklOUpD9d5B0N4o9EKMDosWZEgt5XX9JxuE1xfyleuq1s0+FO5APIxq5hlNyNELzdYiDarn/V/Rr7mmvg4Apobw71MF5HmRLdJqhDCIBYR4r/hb5YfW8W9DoFktL0Eb8mWUYgFCCFuG7ESN+J+L+dZC+ZOLWrdkPZxG7Z/LXNJPiZPS8qYkDHMY67/nUKgfZmKF0BLTWhGnIWcCXQJChECIBYRQbwHjBdfW93ZZqfJ9EgucdwKMBW0neK8E2EAxyP+bssPOCYm1/nNWQznydbuIYZQWBVDMSR619NJPjalXBAQ0WoRl+IMkOgTlCJEACxhlxgDjBRfW9fKBzlJ1az5G6R+HWRup3Wvs2kb4bwHSV7m1YGlNzUxW1M8pPtur7e4kFWRYEZQeCyPIBwQiDcMXa6/tVEgiwriYGhVxRcglIroEZQihAAsYJ84GPgZPW9A6H7cBcRv11ufpNT/GwnfSuEL9lM9JKFHhcv3VO2cKhs/XNkI9czIwjsEANGCgnJzhwTTSFQuU1rmuBq4GygUlCLEABuRw/gE+AE1b3dhkDBUPPkLkkOEr8Zj4BJa98U6Zux8q0SvonYf1Tm+bsuBmD/9WQzny9bvI5s4jyDBK/rWJtc/3qOsSQELIiEqp1wJOSKwVtQQqmHBMUIAeBW9AE+BQap7i0cCXkDQhCai4lfN6FHkvTNWvmSRbI3QvQ2TQeM1V5qyZo3cJ5hYaAlCmT95zlh7ZsSAyaPcZsQkIHqvUpIQB17/CJgt6AaIQDchv5+8u+v2sw9RkNuHx0EbmMowDDxO5TxH7VQgFXC10v2JkMCUrx0XdnG02V7PteK29+MILCb4G3zCtiQJyA76PpX21e9D8o2hGrH/X4RsENQjhAAbsEQYAFQHNzCEhSPg+xeBgk8msTvtLXv8vi/5di/WZLvKt3RbE6AbO36st7ruCkPwEavgBWit1UI6NhXW6qsIaBeNfAQMBXYKahHCIBoozfwBdAvuHU90PNEZWEfR8jdrcRvE+lbtvLNzgzQ2zUiHfd3aWjANle/gfNtdfsbsPR1CQmTx8eC6z+sELBRJNSXw8GVIPvUGu0AcDpiJUEhAKKIIpS5qkOD9ngSoNfJkFEY3OSSzeRuhfjtyPjXY+2HJXMjpG/Gyrdq3Us6e4yFqYBSNLu+HLmPlq18pmzTtc16CezyDsjWj9P8bDPhAStCwAaRoBYWaDyiFAxSLx280y8CDgsqEgIg0uiO4vYfEUz+iUpp3/RuJqx+lxB/RKx9q14Bs54BK+eZ6TpWCT5usgAdFAiyxevZnRjoItd/2GOiIASMeAMaK6F0eSgRsBE4AzgqKEkIgEghByXh76TgFk2A3hM6k39Iyz4KoQCrxG/I2tdL+ka8AmatfCuEbyD2H8GYf2ZaCt3zMpEkidzMNCRJIiMtmeSkpK+PqW9qoa3dS0NTC63tXhqbW6k4VofPZ6Zuv1NeAtmh+7CSC2BGEBgRA0ZyBmQTXoEICwFH8gM6/N1UBQeWgk91jaC1wDTgmKAmIQCcRjpKkZ8pwa3pUdz+mUUGLXsn9tlB/Hos9EiEAsKQvhnCt2TdG7HojXcxSZLo1T2XgSXdGdS7OwN7daNX91y652VSmJdFYV4W3fMySU1OMvUCe30+KqrqqDhWz6HKaiqq6jhQUc3mPYfZurecrfvKaGqxcR0WS+LBSD6AbP5aYe9RNniOVTFgwfWv55ioCAGLYYGGI1C6LFROwFJgJlAvKEoIAKeQhrJIxZmqTdnrJMjqiT3ufptCAbYQv10eATtIP5KhACNWvcGuJElIksSAngWMHVLC2CG9GTWgmMG9CxlY0s00udsBn09mX1kVW/aWsWLzPr7csIevNu6htqHZmvWuyc02rABoSnhEwvUfCTHggMVvSAg4kQOg4imoK4NDK0K9L58CFwDNgqqEALAbScC7KHWpg5ux5zjILtEgeJPu/rgg/kiTvpOEb6DLBDyfwb0LmTx6ACcO683YwSWMGVxCdkZqTLz8Xp+PTbsPs2T9bhas2sHcZVuoqTezUJsJwSDbmQvghCBwguANkHzMCAGLYYHj22tL4dCaUO02F2Xl1RZBWUIA2IUElCV9L1fd22MM5PbTSeI2uPslFQGh21tghzDQOMa2bP9IhAJsInyV6ZMJHg/D+hUxefRAThszkKnjBtGnR37cdAivz8dXG/fy4eKNvP/FerbuK0c989xBgSDL1q5nSRBEwfWveVyUXf9a59oSFghog+o9ULY+1EN7HfgO4BPUJQSAHXgCuFV1T+FIyB9k3Op3JM7flUIBZklfsjYVUOOQYX2LOHfSSGZOGM7k0QPISk/tMh1k7Y5S/jNrOa99spKKY3pWbzUjFhx0++s61415AHHg+jfjKZCBY7ugfGOoh/UY8CtBXUIAWMWvgEdV93QfrizuY4jgnXD3myR23dZ8BIjfMdK3QPiS9v6MtGROHTWAC6ecwEVTTqBfcUGX7yxen4/PV+3gmfeW8P6i9bS2ec15AWQDx1r2FJgRBHaIgQgIgXBeg0i7/s2QvdY5R7ZB5dZQD/ZnwJOCwoQAMIsLgPdQQgCdkT8QikaFIXi9lr1ZUaByHUeJXw+hR4r07SZ8SVeRn5LCXC47YyyXnjGGyaMHkJSYIHpJCBw8UsMTbyzkmfeWUK2aL+BUPoCeYkGy8fNtIXi7xYCZ8ICJ/SGFgEmRoJvsA+9P5ZyKzaGWEvahhG3fE71RCACjmAB8hjLtrzPy+ilxf9utfrPkbpOr31aPgBVx4LRXILx13/HcPj3yuHTqGK4860QmndAfSRLdxgjqm1p4/qOv+Otrn7OvrMqYJ8A2j0E4UeC0699KlUC7vAJOegRM7rPLG3B4DVTvV2vgBpR1A1aJnigEgF70A75CKfXbGZmFUDJRmfNvxeo349IPS95RIn7brP1ohQKCz+vfs4CrZpzE5WeO5aRhfUSPsAHtXh8vzlrGH57/mNKKag1iskMYhBMFZpMDI+D6N+QViLYQMLDPVFhApzdA9sKBZdBQofYQyoCJwD7RC4UACIccYDEwKmhPSjb0Ow08yQYJ3kFRYMUjEGuhAEky9hpLkqFXv1f3XK6YNlZY+g6jtc3Li7OX8X/PzNaRMKhXHFjNBZBNnCdbO74ruv7NkL3ec3xtsG8xNNeoNf5mYDJQLXqgEAChkATMAc4K2pOYCv2mQlKaTVa/DVP+ok78ZgndgPUeboVC3Va++o601CSuOfsUvnvOyUwZMxCPR3SJSKG6vokHXprPY/9bQFu7F8O1/y2LAq1r2JUYKOs8LgzJO23xOyIE7JgaaNAb0N4MexZCu2qNigXA2UCr6H1CAKi1xYvAdUF7PInQdwqk5kTO6rdE7m4g/giFAox6BfznFOVncfNlU/jJ5VPolpsp3v4oYvv+I9zyyJt8unK7eetet7fAjKUfIWvfkFcg2kLArEiIgDeguQb2LQq1eNALwPWi1wkBEIh7gd+rEkzJRH99fzPJfGasd5tzAKwQv2U3vwtIv8PxYweXcPNlp3HdeadEtdyuQCAPyLwydxW/euJdKmsadPK+07kAUXT96/EK6A4PREsI6A0LmEkSDJM8WF+m5ASoP6vfAn8SvU4IgOO4CGWqSHB79BgDef3RV+LXYijAjLs/1D05Tfx2Wft6XfxGSF9FDI0bUsKDt1zMzAnDxNvuYlQcq+fGh17n/UUb7bfwLQmCUOcZEQMmQwSmvQJOCoEw+2ydEWBwWuDx7dV74fBatafj84/5s4QAEBgMrEBJ/uuMgsFKpT/DRG41yc+uOL8biN9ucWDs2N5Fefz2++fww4smkuDxiLc9RvDyxyu55ZG3qG8KV9LdqigwkQdghOAdJ/kICQG78wMsJwnq3F6+Eap2qj2VauBkYKcQAF0XmSjT/UYG7cnupSzt+zWxOGX1O+HujzTxm0380ysOjAuE/Ox0bv/udH7+7anC1R+j2HO4iuvue5XF6/cYsPD1iAKbBYGlRD+9YsBMeCBaQkDvvkh4A2QoXQ51h9Se3DpgEtDYVftYVy5jJgEvo7a0b0o29J4EX1uMAYQthSDyTmJBUtkeQMZB27USAKUO54Tah459gUIm8PvYsV/rGLXrdGgn1eNU2llVOElIkocfXDCRWY/+mOknDyUxQVTqi1XkZaVx7TnjqWlsZtmm/SrvhBRaRCJ1fldCvldqQlXS/z6GfCfV3l00392g45DMH2Nlv+Z4oWcskcIYTJLG+GHneOrfllUM9eXKDIHO6AEMAN4WAqDr4dfAL4NbJEnJ+E9KMWnFa23v8FKi9RJLBkWBSseKCvFrEbpeMjdO+seP7dkth1fuvZbbvzudtBRh9cfFAOXxcO7E4QztW8icZdto8/pUXhGdosCyILBTDOg4TkL/MRETAjpFghGyJwTZ2zLmohRtyyyCmgNKwaDOOAGoApZ3VSu4K+JM4BMgMag5+kyEzB7ocvlLZhL2IhAKiJir36SbXysXImQbhj5W8kj86KJJPHLrJWSlpwjWjFOs23mIy+5+kd2HjqrslVX/DLOx835D5xk5Xuexsl0zA5wMDURyRoCFcIFaSKCuDA58pfaM2oDpwBdCAMQ/egMrgcKgPYUjoNtQ+xWoIYKP0xwAS9n+oY8rKczlld9fy9RxgwRDdgEcqa7nojte4KtNe3UcLZsUBEbPMyAGTM8OiHYOgNn8AL2zBRxMBOy4/cgWOKK6emA5cBJwsEt52LrY+JEEfAgMD9qT1QOKxwAek24mjMX6Q7re0OnuN7vPgCtfMrs/VCwvzDEGY6hnnDiIuY/dzKgBxYIZuwgyUpP57tknseNAJZv2lGMsFwCNsEGY87TeSyPHGg0RhDpGMzxA9Fz/WucBuvMGNHMDLBhkGQXQVA2t9YEvSyZwKkpemLer9KeuJgCeBi4N2pqcCX0mKxX/Or6YQZ1GYzvhtusl+HDnWO2QBogfk/uRdFwDYwlRHdpFkiTu+O50/vN/15CdkSpYsYshMcHDZVNPoKqukeVbDqi85waIXa8gsE0MoCGgtfqayf5oRSgYNipMkj1GcwMsjs+ZPaDuIHjbAl+t3kAuSjl4IQDiDJcDDwVt9ST4k/7S7VGYhqx+C5n/prNxdST3mSV+ywOaFJL0j+/Iz87gzT/9gFsuOw2PWKyny8IjSZw3cTgJHg+fr9nV+d22YulrzmjB4PGSPi+ZacFson+a9ggYFAlmyd6oN8DMmOxJgPTuULNfLSQzAdgCbBICIH5QAswG0oL29DwJMgp1vlA6p6NgcLsUzrLHoMLWsy8SHgED2cw6xMGgkm4s/MetTBjZVzCgAABTxw4gMy2FeSu2B79XlgSBnnP0HK+H5O0KqxnwCBgWAhj0UKLtKTAlEEKMzSGtfo2xPDEVkjJC1QeYDrwG1AoBEAfGAvAuMCJoT8FgKBhiwKUUSmHaGQrAhhibnn1OEr8R9yW6QgEnDCrm0yd+Qt8e+YL1BDph0gn96JGfzZxl21QMOiOCwIp3QMKemhdGvAIOCwHCeSvtMFo0DBZCCIeQ3o3AcTRMSCA1G7wt0HQs8KVJA04EXsLYEpVCALgQdwI3BG1NzYWSU5RiP464/DEeCgjbgYyGAohODoCu2L7+UMC08UP45LGbxap9AiExflgJPQqymPXVVv+QHYbYVQWBVe+ACnlbdf070h/tzgGwMlZFIRGw4/fOKIQG1SJB/YA6YKkQALGLE4FXgr6nJxH6ToakNAMvjJMJgCZUteRAKMCxgcZEYRN/+11y+gm888D1ZKQlC5YT0BYBQ0vIy0rn4+XbjBN7WEFgRAxgXAw47fo3LQRM7jOVJGiDN0C31/b4nx5I7wbV+0D2Bb5SU4GPgDIhAGIPGSjFfoqC9hSP9Rf7Cffy6IwnOWH1m3H3S2b22TRw2BUK6LDtunNP5rV7ryUpUZTzFdCHCSP6ICGxYO1ua5Y+VsRAuARCDc+YEde/k/05lOtfsiksYKc3QHNs1iEOElOUCrD1QTyf6BcBL6AUCxICIIbwFDAzaGtWT+hxgj3uI8PWvQGrH72dBjTj/BEbKPQIA9Cb7X/Z1DG8/LtrSEgQK/gJGMMZ4wZQ19jC0q/XD7Bo6RsheAy6/k2V046AR8/0WiU2jnV6t9shDtLyoblarT5Ad5SpgbOFAIgdXAL8JWhrYhr0O02ZBmKI5I26/J22+gmvmLUSZohGFnG4Y745bvrJQ3j7z98nWVj+AiYx8+TB7D58jPW7ytAsEhRo6UtG8wB0WPu6QgR6BIODQgAj65bYUbMk1LgXbmwzExLQKQ4yC6F6P/jaA1+Wk4HVwPZ46yfxOJG6J8oyj92Cvmq/0/xT/kKpQZPeAOzabkYJ27UP7Rr94Ur0apUgDrk/+JhTR/Xjk8d+TGaaqOkvYA1t7V7Ou/0F5q/yL/kect36QIRaV0DWPj7ssQaO0zzG4n7ZSIlgi/s0t6vss2O7kXLBgdvqy2HfYrWHfAQYAxyOpz4Sb/5VCSVe0y1oT7fBncnfSLKIHS5/u2Jhltz9droCrXgE1I8ZO7iEOY/cKMhfwBYkJSbwxh+uYUS/InOWvu15AJIOa96KxW9Dzk8417/lJczNegMMGEhGrP5AHsgsggLVdUW6A8/GWx+JNwHwA9Ti/inZUDgSc0l9Nrn87cqGNbOcpq594YjbYGJfuFBAwEDcPTeT9x74ATmZorSvgH3Iy0pj1kPfpyA7naDkv5CCwA4xgH6S1xIMuoRAKPe+FSEg2bCcuRFjSceYaTgkoHOM77RdgqLRkJqj9jqdB1wrBIA70QN4ONgnkAAlE5Tfuiz8MNn/tnsDrFj9ekUB2DIdSPVcI8SvPtgmJSbwxv3X0bdHnmAsAdvRr0cer9/7HRITEkKTu4ooDWnBm7H2LXkFDCQMotd4kPSdq5vsHfIGWLL6TeYFSB6FMzyqOUiPobaSbIwinrKsngfGB20tHqNk/uu28NEmfztc/qasfr0ufR3TAdEYCDBqEVgPBfz9l5dy5ZljBFMJOIYBPfNJT01i3sqdGHb9SzqtfVNiABMWf4g+GM7jZ6j/G50aGI7soziOqoqbMCHgxBSlXkx9eeCrlA70At6Jh34RL0mA56MUbOiMtHwYcGb4h63r5XQ6AVBtMDAiFjTcW4b2BbYRob0BqucGfq8Q382PH100gWduv1IwlEG0e30cqW6gsqaRiuoGquqaaGppo7m1Ha9PpqG5lez0FCRJIjczlbTkJArzMuhZkEX33HRSkhK7ZLtdfd//+N9n6ztvDLnGfYjtmsfLxo4Ll8wX7jpaCX2WkgFN7NOdCBh4b04mAppMGpRl5e89C6DxqNpLcTHwgRAA0Uc2yspNJZ2/mQcGToeUHAMJIQR7A+wgeTvmumqSuEZ2v6HMfp3EryvjP/wxJw7pxdJ//ozkJDHdTw1t7V427zvCpr0V7Dp0jJ0Hq9h58Ci7Dh2j/Fi9+U4vSfQtymFYn26M7FfIuEHFTBrZm/7F8R+CaWhuZfJPnmHdrsMmyN2kGDBE8haOke0QAjr3ac4IsCoQNLZbFgdGRADQUgO75qtVCdwPjEIpFywEQBTxNHBT0NbCkVA4Qgfx2WThR2zan05RYBvx6/BU6CX+DvvTUpJY+ezP/RnaAm3tXlZuP8SKrQdZu7OMtbvK2LSngtZ2r4ZnyF4UF2Qx/cQBXHjqEM4+eRDZ6fE5G2P3oSpOvukfVNU2RdbaNywYTAgBLTJ3RAg4RfZ6iN1mD0Go71i+EY5sUXuVngB+LgRA9HAqsJjAZMaULBg0U/EChLPwjZB/xL0BGJuxEPYcK1a9hTn+Kt/tiV9cwq2XT+6yhF/f1MrSzQdYvGE/i9bvY9mWUhpb213TzZMTEzh/4mC+f/ZYzj1lUNyVY/5k5U7Ou/0lvD4fMen6t0LmZr0FusMCNgsEU1a/2XoBKsfKPtg5D1qCVgf2AacDS4QAiDxSUKozjQj6SgPOhPQCCxa+G1z+JooA6bb6bcoBMOkRmHnKUD5+5IdIUjzWoQpBJbLM+t3lfLxiJ3NX7GLJxv0q1r07u2qP/Ex+eskp3HzRePKz0uLmmfzhP59x74ufBXBApMSAgWMi4vrXSeiaZG/V6ndYHJjKC/D/bjwKuz9Xe95bgbFAixAAkcUfgXuCthYMVhb7MUToZr0BKtewLBTstvrdlQNQkJPO+hd/Rc9u2XFP+o0tbcxZtoNZy3bw8YqdHD5a52w3lJzt0hmpSdxy0XjuvPq0uBACXp+PM37xPIs37A3B4UbEQJRd/xHPAXDYG2Akpm/kGnqtfjURcGg1VO1SeyF+D9wnBEDkMMpv/Sd12pqUDoPPVqZvGCV/XcTtBm+ATlFgiMDtzAHQDgU8e8cV/PD8U+KW9OsaW5i1bAdvf7GZ2ct20NjSZr6rudRDkpuZyl1Xn8YvLp8Q8+s17CuvZuwNT1Fd32yC4E2QvCGit1om2C6RoDcsECFvgNWEP1PJgTL42mDHXGgLyh1p8XsBtgoBEBnMRa3iX9/JkNUrjDXvQLzfrhWtDFn9TosCq8Qf7BGYMKIvX/7jFjye+HL91zQ088GX23jri818snIXza1eA71PitkuPKJvd57++bmcPrpvTD+/1z/fyFX3vW7R2jdI8o5a/A4JAcszAnRk3TsqDmxIDqw7FGqtgPnADCEAnMclwLvBZklfpXqTJfK3w8KPYgKgGXd/WOK3Ihq++cPjkVj+r1s5aWivuCD9+qZWPvhyG28s3MTHy3fS0ua12ZKPja4pSfCTi0/mLz+aTlpK7NYWuP4v7/LCx2vsd/3rOc5qeECLzHWfa3dYwOlEQAc9BOFEwIGlUHNA7QU5D5gjBIBzSAE2Ap1Xa0hIgsHnKdWbnCB/x0jeijfADqvfgRyAEGLmposn8vRtl8Y88e8tq+aJd5fx3Ow11Da2WCB7yUJvdV+3HdG3G6/dfSljBsTmtM76plZO/PHT7Cg9atza1ysGdHsFrAqBKLr+XWH1GzzWqAhob4btc5SQQGdsBUYDbbHy3sdaAO824NtBW4tGK6s4dRqAw9X0lwwQupFjDZC8pVCAVolezJXvVD0PdJX7DVniVKJbTibv/ula0lKSYpb4dx6s4idPzOamxz7iy02lisUvScE/qqyt9hPqMCn0T6hzLel/e653pKaRl+ZtoG9RDqNjUAQkJyVw6og+/GfuWv/UwIDnobWaZVDf0Opb6DhGq5ywxjU01xKxUDo85PilsVCYXiPFrrVVggw0Sf+xmlViVXjEk6j8HVwmuBtQBXwlBID9KATeADovF5ecCSWnGFzeV483QDJRm9rq6lXhthsQBWZW69JF7gYGJP/++2+YybQTB8Uk8VdUN3DHM/O5/pH3Wb+nQrEHDJG92iFmyV2y+cfe67Z5fby7eBs1Dc3MOGkAnhib5tmzWxYeSeKzNXsIudaF1gqXgUJO50qYmseYEgIYEAIG9hkme52rqIbaHnZ1VbPjMmEIXwd3pOVDzX7wtga+RhOB54BGIQDsxd9QCv90RskESM0OfoBqK/zpUpsGlaYkOesNkMJZ/Xote62BxMggY2yA6pGfzcv3fDsmC8m8uXAz59/zXxau34dPNkj2mkRvltyNnCbZ/KP/lr7acoh1u8u5aNKQmHvuk0b25uMVuzhUWRve2tclBvR4BfQsK2xzHw3nLQhF9pbHIxutfkmyMG5rjbdhxubj3zcpXS0XIBXIAmbFwvseK8sBjwO+H7Q1swiyi8O8BHa+RDqUpGMuf7OKO4y7307rQmX/Xd89g/TU2HL9l1XVc8E9/+Vb979FZU1jCKYNQ/aGiV7rMD1hAR3MbEu4IHAJXfWf95fuYPodr3Ks0/Q69yMxwcMLt19MSnJS+BUwg8QA2q5/ySHXvxUvneYSweG8AQ6MZZbEgQnXv+mxXoKcXpDZQ+01uhElF0B4AGzC60D/zv1LUqb9JaZZsObDuZGMvFDY4/KXjG5HZw6AgX1ag4yBAapnt2z+c9eVMWUFLtqwn5l3vMLqHWX6CR8Tsf9wBG+YzKUI/4RH6ZE65q7czeVThpERQyKwMDeDxAQPn67e3bnvhRUDRr0CNrv+9fRRM65/I8uRSybGNcMhAQyM75KBMIFRr4EE6XlqxYE8wFDgJeEBsI5vodRb7oz8QZCaa5D8wxG6FW+AFCVvgGTQsrcaCtA/IP32umkxlfj32NvLmPbrlzl0tN4g4Zsgel1kapGQHeV6fSev3VXBtN+8ypGaRmIJv/n2ZCYML0F1aq5ekg/rFbDb9a/DS6crUVCvp0CKktVvIC8AC+O/HhGQkgN5A9ReoWkoU9ZdDbdn6aQCW4B+nf0WyTD0fOW3IfK3ogANHhu2Axi9hlF3GOia1qc119/wvm++S1FeJvveuD0m1p2XZfjVPz/h8beXhWgrnd3G1DQ9ycIhbum+ctjNYwcW8fnD3yE3MzVmRMDW/ZWceNO/aGpp1/6ustlaAAaP0dofau672X26pgbq2Y7B6X8WpxAanj5oZppgwLb2Ftg+C7xBs/92ASNx8ToBbvfN3oratL/iMZBRGEHyN5Lsp9flb9QbEM5lpkHUut399mUY//LK05gx3v2Z/+1eH9/7y/v8e/YaAxa+lmfASDhACrE7WnF+K3aEdn5A2bEGvtiwn29PHU5yUmyEhLrlpJOanMQnq3aHtvZBX4hA1StgJDyAzV46K2EBdIxvZq1+vSEBbMzrCjeeh9nmSVBWnq0vC/JTA2XACre+424OAWQAdwRtTcmG/IEWyd+qKwiNeD8WSN6km8yuUIDZ6UMB3zspMZGbLnZ/vX+fLPO9v3zAq59utED4eshQbZcWwZsk3Kj/aGPplkN8+8/v0+71xYwX4BeXT2Ti8JLOsyH0iAHV56XzGD1CABun85p1/UdjrDOVF+CA6z9wW8EQSM1Re4XuAdKFADCOnwLBFUWKx4KUYJH8bfAGoOfYUC++XYkyeq1+nVYCevaF9xZcdvoIerl8tT9ZhluemMNrn23UGMzNEH7gZifi/ka52eapfyG5P/yBs5fv4qYn5saMAEjwSLxw+0WkJicGkJ9Okg/lyevU361a/JJxkaDbu2fEG4BN41sYcaArL8Bhqz9wm+SBohPUXqFi4CYRAjCGTJTM/4xOW9O7QY8xUSZ/vapXqxPYpZD1ErxRd7+1UMDTv7yIvkW5rh7Y//DyFzz61jJCTtcykuwnGQkHhCFKvSRuc8a+ZU+D7roBEmt2lpOanMhpo0piJhTg9cosWLfPuOsfF7v+DYcFwgkEuyoC6nD9W67n4oAISMmG+sNqqwWeBPwTaBUeAH34JdA9aOtxhWUb+dsUCsDosXa5wfQSvFF3P6aziE8YWMSU0f1cPaC/s3gr972yKNjKJxzpoyEUDE4FDEXwlkk8+tP/NO/D/z1/+58vmLtqT8x4Au76zmRO6F+obsl3EgMOu/6dmMWD3rCADoHgVEgAvSXeI+z6D9xWOEpVQwI/sfmVfBalMm7HnwHxIABy/AKgMzK6K4V/bCV/B0IBkgGhYMfcWF2iwEqn1+MG/Gbfd84a4+qBfNPeI3zv4Q+RMZDwZ5rwjRC9XVa40xrAHsHg9cF3HvyQXYerY0IAJCcm8OxtF5KQ4AkR8kAjRGCj619zv0mRoLtQUKjtDtQ80W0QRdn1H7gtq1jhqmD8GrAzLnoRcGXAT148CIBfq36RohNcRv561auBNQrMeAMkq1a/0Wzg0LFBSfJw1TT3FsBqafNyzYPvU9/Upm3l6yL8cO57I0RvJiRgxHtg84+RHAGNnVV1zVz6h3dpaI6NxdNOGdaTn192ShiSN+H6l6wKARMiAQMhREkylhtgi9VvZG2XKLv+A7epewEKgF+IEIA2CoCfBW3N6gGZhfaRv1rFP8mBUECkV8UKa/VbUf/h900e1Yd+PXJdO4Df/fwC1u2uCG/lY9QzgM4kP6NWu9Mxfquw6pWQ2LC3kusenq0+ld6FuP/7ZzCoZ74517+h8IARIaBnxoDRsIBZb4BTIQEbXf+SpIMPLIiArCL/NPUg/AplaqAQACFwh6qbpOgEe8lfrzVvy3KSoUjegRWywlr9Rt39xkIBV007wbUD9xcbDvD4OyssWPlGCV8nEZomdruseLu8BybvVYJ3vtzOX99x7VTpTkhPSeKfvzgPSTLh+jcUHoiA61+3YWDEG2A1JGDAQ2CoLgAOcUWIbcWqntAcvwgQAkAF3YGbg7Zm91Ky/yNN/rqUq8UX1lFvgBklbz4UkJjo4VtnjHLloN3u9fGTJ+fiQzZm5esmfB1kb4g4bXK/G+FrO3IDJDMiwb9o1IuLWLG9LCZEwFnj+nH9OWNDkLyaxW8kPGBGCFgUCU57AwxZ/Ta4/k0vAW+jCEjvrniug/FzlKXthQAIwJ0o0/9UrP9IkX+4l8+IWjWb1IIOb0A4lW7G6g9N7npWDJs4ojfdczNcOWA/+f5KNu6rDE/epglfD9nrDQdIpmPqrvgxKRLa2n1c/eBH1Da2Egt49MfT6dU9W2dCoEnXv24hYEIkmE4S1DnO2CYOjIyj4Y6VHOaOgG1Fql6ATDd5AdwiALKBG4IdJr0hLQ/r8X2zrhwMqFHJ2LFGyl1KepS5Vavf6FKhnT93pkvL/lbVNfOHV5boI33s8Aw4FQ4wE++P9NQ/9F0rhDjYdbiGnz39WUwIgJyMFJ78ycxg4eaE6z+sEJBMLvkdLknQwphjOCSAQ+OsCavfLhGQXqB4sINxsz8cIASAHzcRFPuXOsf+9T44bHhwZsgfp70BYbYbjdlZCQWofNeZ4we601J7exk1DS0hCFwKbbmZ8gw4EQ4IQ6x2VfIzW0nQ8HfR9h7859NNvLZgS0yIgEsnD+XK04eH6Ts2Ej0apI0J1z9YrB9iZ0jAwJRAq2NzJEWAenXAbOB6IQAUJKGU/Q1oop7fLPcbyQdmJhRgSaWGInmDCYBG43RG1vgOEwrIy05n/NCerhugj9Y28eR7qzVI32ooAJNkr5MYdVXWc8LiN+AR0CMaDLbBLU99xt7y2pgQAf+49Ry652TEjutfMjIjwKA3QJfVr0McGB5PHXL928EpaflKbYBg/MrPfV1eAFwN9A7a2n14FMnfAcUpGSV5K94Ag/N2w63kFSYUMP3EASR43FdS4vF3V1LX3Gqc9M0SPmbDAZKl+vqRnw5o8J4M5QNATUML1z4yB6/P/XMDu+Wk8ciPp4V3/YcLp+kKtxl0/etaUZTw4kHLG2DY6rdjhdQIWv12cEv34WqvTglK8Z4uLwCCq/6l5SvzKGOC/E3MTzXsDTDi8tfTKe0QBd/8P/3EAa4bmFvavDwzZ50NpG+E8MOJBckEyVsgY8mmH6fuj9DCYPGmQzz+3uqY8AJcN/0ELpg42GBCoMH9kqTtDpeshgWkKIxDGmOp1XorbhIBmT38uWxBuL2rC4AZwFhV698V5K/H9RROiZpZyAKDLn87puzorfAVbFVMGO6+RV3+t2ALFdWNJkjfLOGHIXtNMtRBnGbi/BEx+PWKBiMXVn7d89ISNu07GhMi4JlfnEN+VlrnZ2KG6DESGtC5zy6yNzT2hCuupsfqt5rwZ6Pr3yrXdBum9tqMAc7sygLgtqAtyRmQ28cl5O+kG0ovyetU246U8NT6jsr/aSmJjOzX3XUD8r9mrzNJ+mYJXw/Za5BgOGI37YKP5I/WLUqGV0tsafPxw7/Ni4lQQHF+Jo/fPF3lmdpp8Yfvj5r7HCkprtfQsCgO3OD6t8I5eX0hKUMfB5rH+8AuHT/Xu0EAjAJmBm3tNlRZWzlwPHA9+dtUqhIbXGqWFvHAkMUxbnBPEhPcFf/fdbiar7YdsoH0rRC+QaI3RPC2mvA2ug/MCARtYbBsWxkPv70yJrwA1541issmD42y618yGBYw6w2wMyQQQ65/w9xzfFMCdBui9tqcB4w0+KpNB7JUtvdCWREw3E+OGwTAbUGjQkIS5A8K8YJEk/wdCgWE7TwmM25tsfr1DTwnuzD7/78LtiDLNpK+YcLXyOLXRZY6CNZQHN+MBrCSJ2BGIIQWBve+uoyNMRIK+OfPz6Z7TjrO5gAYFAm6ZwQY8QYYnZlkRBy43PVviIM63F/BYIXjgjvFL3W+XlnAP4FPgNRYDgH0BL4TtLVTA6lZyDg8919lmxpxSirkb7oEpYYSdsQbEK4oh4YoUPmO44e4TwC88cW2EIRskvQNE74esjcSDgglQuy0+C16BQzlBei9ZwUt7V5+8Pg82r0+1wuA7jnp/O2W6dZzAHRU37TSbyPmDUCn59NyETadY7SdIiCc1R/4XYMM3K/xXaA4zKs1BVgN/BgbM3wSo9RPbgaSO7eVR3H/hyT/KHgDbHMnmTjWrpW3MLtd3zmj+rsr/n/gSB0b9lYGtK1am6k9l3DHhjsHnX1T0n+osQMdhtH7kEOcLoU4TA75eSt3VPDX99Zw++UnuV4EXH3GcGYv380rn2365jvJUsB3PN5nZf8mI/t17JM7XOf4NY/3YVnufM7x8SfwHK3tstT5XlW2f3vaWO685gxG9i8iKTEBAWhqbmXxooXcddddrFq16vjmFJRieL8PYfU/DNzoxEAQjZElEdiLEq/4Bnn9oc+k0OSrRxA4Tv4WCN2wNyCCQsGCKKh9/3ay0pNd08Gem7uBG/72ic2kb4Xw9ZK9ZL0bR6o3hyRsC+JAx2ekJCWw5omrGd7bVSuqqqK+qZUTf/ofdhw81vl7hGw7OWBTwP5O6yXbsE+W1RtcDryGie0y3HjRKfzr15cJxg+BxsZGTj/99I4ioBToB3g7HDYdeBboq3Gp7cA9QLWBj98O7I+WB+C8IPIHv/UfwmqLdfKPRW+AjnOK8jJcRf4A89bs0yZ+I6RvlvAlO4leco8DIJwlr0rissF2kEN+Rkubj5uf+pzPH7g8WJe6DJlpybz0m/OZcttr/tDF8f5t0iMgSWH2qVj2x/d1suCPW/1SgBCwx+oHidSUBB666VzB8hpIT0/nwQcfZMaMGcc3lQDnALOAdOB3wG8IHaaXgX+jVBRsMHsf0cgB+FHQlrS8b5b8VSX2MITqSvI3Mp3PDvLXU4rTgCiQwicODezpPkvsyy2HUZ+/HKZGe6c2lDRi+IS4drjzwsS/teL+mkzssul/QbenlQ+g9zt9s2vhpkM8M3djTAzyE4f15PffnUzoxXjAWA6AyfwASbIYDtRK+Aset0b0KyI3M02wfBhMmzaNnj075VDdgBLrXwfcocHPu4FpKPkADVbuIdICoBcQLA0LBpsn/6DEjEiQv5ks08D715sdqzfLX49QkAwRfLiKYgOL81zVocqONXDgSB3qiXxGSF/Sf7wm4eslerPkbtGKt61okIl7DSUOdJRPvv2FJRyorI+JQf7uqyZy5tg+hJyRYkgIGNgXUtgbGQ/0rBYYLA4amtsEu+shX4+HK664ouOmi4AFwCANq/8ZYLT/OOv3EOHvfD3QORvEkwC5/TSyLImMN8AQ+Rv1BoS7fwOeA3Rul8yEAgwsIAIM7OkuAbByR3nAoIpJ0tcibb0sapXoTVjVVsr72lI22IxI0PH9Ao6rbWzjJ08vjI1BXpJ46dfnUZiXHprodQsBraqBBhf20usNMLE2ybb9lWzbf0QwvA5ceeWVgXzsuNUfLQHgQW0JxNx+kJiMvuz+cORv0hvgKPlLOu7fzFxZTKy5rTFYmBAFPfIzXdWZ1u05ol34R7IzFGBEKBgk+rDEbadlbqenIZzoMCkMVFYX/HD5Hv77xfaYGORLumXxxt0XKZnwWkRPuOmBOEj2Upg+b2zhssff+lKwuw5MmjSJXr16aR3iAx5DKZy3wO7Pj6QAmIGS5dgZBYMIO9c/3PxKVfInAuRvRyjADpLXYfWHre1vvEhIfpa74ny7DtcSPv5vxCtg1jMQTiyEseRtI3S7YFdOgJUQSHDb/fzfi6msbY6JgX7qCb155IYzsN/1b6HYV6jcgLD9P9w4KPGfuas5Ut2AQBgC9ni4/PLL0bD6z0JJ9GtyyiqPFIKT/1JzlFX/QhKjzgpL6KnS5wT52+0NIDzJOzLnX4/VHzxQKRXP3IOdh6qDB0NdK7TpJH2zyX4mY93GwgLYt/qf3sqCpgWDTs9BmGseqWniF88uipnB/mcXn8j1M09QsaLDCQGjIsGqN8DE9oAxramlnX+895VgeB0ICAMch62x/mgLgCKUBIcA639wGKtYy4K36A2ICvljLBSgy5LXSOAxtN2I6lf+z8tKdVVH2lNeq8PFb4T09RJSGEtXN0FizFOgq8KeE9CbN2BUIBhvx1cX7GD2yn0xM9j//SdncdLgHiptifZqnrpW+rTLG2A0QVB9rHjyna9oaG4VDB8GKmGAduC32Bjrj7YA+D7QuQiylAB5A7StejPeAEmnN8BW8o9QKAADQsEhq79jRy/IdlcI4Ehtk0obBZKJEdLXIi0rhG+A5HUVGnLhFEAty96M21+jnW/6x0LqmmIj8zwtOZF3/u8iehZkoT8ZUDJH9rrygeyy+oMX6Tla28hLc9cIhg9HwsFhgESU8sDOf3aEvuMPgrbk9oHEFPRl/OtdcUnvgj0R9gaEXeSHMN/TYLxflxVvwuoPyAHIy3SPB6ChuY2WNl9oMrdM+noJ365wgF5yj4A2sPwhesUBptrywNEG7nwpdtzNfbpnM/u+y8jOSEZfMiD6yV7NU2AqN8jq2KLcwyOvL8br8yGgDZUwwA/jRQCcBAwN2lowGP0Z/1rkr2Hd6xEEdpK/hH7hYjUUQDihYCKrN5zVH7A9weOecmxH65o1rH2bSV+v1SphXyZ80GEmpvqZ/TG64qDZ72dKFCj455xNLNp8OGYG/DEDuvP2PReTkpxg3vWvKyxgxBsgmRhPtMXB7kPH+GDJVsHwYaASBhiJkvkf8wIgOMMhORMyizTIP0LeALvJPyx568n0N+INkBz2BqhV//rmnASPxzUdqLGlXXt99JDiIATpSybi/6YT/dR2m11y1y53gIXr604cNCkKVK7hk+H7f/uM+hgqQjN9XB9ev+tCjemBRsMCFr0BmBlDpLDe0Adf+0IwfDgiVp8N8O14EABXBG3J64f5GL8OUtVF/jhA/uj4LlqErtVJbeq4Vpf4VJ3/G33InWqXa5C5XtLXY+VLmEj2C0P0YQnY6bn8Tn2OFNrCN1o+OYSHYHdZHf/36oqYGvgvnjiQl2471y+mNbyDmp5DyYQ3AJ3jjtExJthDsHxrKV9u2i9YPpylHBwGuDrWBcApwMCgrUGV/1TI2GyhH715ANjkDbBE/oS5VxPHSjaEAjSs/o7f1+OiEIAMoS1yTdJHv5WvUpBGv1DAANHrJNiQhzk8/U+Tn03kAmBUFIT2EDzx0QYWbjwUUwP/VVOH8u7/XUxKUoKOPiiZc/1bLRimOa5oGQ7f5AIIaEMlDDAQGBvLAuBbQVtSsiEtX6UThyLHEIQdyhugZi045Q0wHcfXQ+jhvAH643DWS3yqLwTiJifAN/kIkrFQAEYEglnPgNF5/2q7jcT4nYKRHAF0WveSflGgQxD4ZLjhqS9oaG6PqcH/wgkDeOe3F5GRmhSiP4bLNzLpDXDI6g8cX95fvJUdpUcFy2uRcRTCAB6HR4srwlv/Rtz8DngDJJPeACu1/i0RusF4v0MJgABer+yazpOTnhI+8U93KEAv6ev1DBCa+LRI3hCpu2n6H2EEAhpFmvTmAoR+JjsP13DXy8tijgDOO7k/Cx76Fj3yMlTEN/Z5AwxZ/QbGGo0xzCfL/PXNJYLlw0AlDPBtJ1W9kwLgVKBv0Nb8fhir6qc3wU+LsI2Qvw5vgO3kH84bIOlU5cYKdRhPAOw8INU2trhHAGQk67D2Ce0VkPR4BQJJW69nQIPssSvuHyEdYOaedIkDo6IgVMhA+eep2ZtZuOlwzBHA+MFFfPXY1Zw4qEhHf1TzBoRbORSD0/8km8Yi+M/ctaI8cBhMmjSJ9PROFVb7o8ykizkBEOz+T82B1DwVZYoxb0BYq17LgjdTuc8s+dscClD1BhgIBWDndonqBvcIgLTkRFKTE41Z+7pIP5RA0OsZ0Ev2YYhUb7zfaQVgKC/AYDngUKJAq407EeQ35/lkmeufWBhTswKOo29hNkse+TY/Ond02D4Y7A3QY4iY2G55/JFoamnjqfdizzMTSXg8HjIyMtS8ADElADyoZv/3D+63pt38GmSJDm8AJgSBYfI34w0IJ3AknW44MJboZ8TKUFBd3+KqzlNSkKnT2nco/i/pEQp6PQREOd6vF3qEAubd/mEsfS3vwO6KOn75/NKYJILU5ESeuXU6H/3hkoCqgeFmBGAgN0BvgqAOz0GY8SktJYkrzxjFpFF9BMtrYNfeA1RWVqoJAEc6e6JD3+M0IHiNw9y+IUhST9Kf2Ri/jd6AcN4Kx0MBei38yHgD3OQBABhQnMPOslr1ZxZ21km440IdC+Hd3eE2m52mZ4Gz1WAppUPW/4GSyjlyqBuTQ7yPHfYFnfvNOc/O28bZY3tzxaT+MUkI55/cnzVPXsOvn/uCVz7bEjDdVfb/kjp87+NtJAdsPz7GyB3aK8x2SQK5wzWPX1/z2G+2JyYmcNa4/nx3+mgunTKcjNRkwfAa8Plkbv/rqx2e8dfoDUwAbC936ZQACC7+k5qr/Biq9Gcx4z9sMh8GQwFmvQFOk79FMjfpIqxxmwAoykY1/m876RskfFNkL9nA/QZFgmSG3DucLBsVCJIJURBGEKiIgRufXsSEIYX07pYRk8RQmJvOS7edwy3nj+G2Z7/gy82Hgsme40IggNSNblcjdgK3+8eAr8XBN8emJSdw9vhBXHLaMC48dYjrlgx3K9ravfzwD8/zzuKtSqi8uUbNCxAzAuDCoC15/XVa0nrc/Dq9AeGI0hL5x4o3wEahECDEyqsbXdWJRvTO10/8tpG+FuHrzZY3QsbRcPtLBg4LoQJkvW4HDVGgRxCoiIFj9a189/HP+ey+811VvtooJg4rZskj32bemn38+fXlLFh/wKQ3QGO7GrGHsfr7FuUy/cQBnDdhIOecPIj0lCTB6AZQ39jCt+78B3MWr1faN7cflK0LPOxi4JexIABGopb9f9z9b2YKIGGOMRsKwIQ3QM8URb3kr9eaN03+znoDdpfVuKojnTSoW4j4vx4ytyMUYNU7EE2Sd1gshBIHcji3f+D7quUhCC0GvthUxgNvr+W3V46LecKYMa4vM8b1ZfP+o/xrzgbe+GIbZccazHsDQlr96q7/orxMJo3oxfQT+zP9xAEMKckXLG4SZUdrOP9nj7N6675vHkFuXzUB0B9lTZ1tbhcA5wRtSc5U3P+W4v56iD3UMTZ5A/SsQWA3+RsuyGHBwjcYCthTXuuqzjS2fzcSPBJen0xkQgEGCV+KJ6K3SRyoCQNZh9s/8FwdYuAPb6xl+pheTBxSGBetOaJPAX/78Rk8duNUFm86yMcr97JwQykrdhymrd0XTPadvAT68gKKcjMY0acb4wYVccqwYiYO60XfohzB3DZgV2kF59z6GDv3V3R+Fmn5kJwBrUFTJs+OBQFwbtCW7BJ74v6G3PwGCv1YJn89gsAm8rea7GdHAqD/3z1l7hIA6SmJjOnfjdW7KvVb+5pELhm08s16Bro6JG1RIOvNAwh1jrK93evjmscWsObRS8lOjx83tUeSOH1UCaePKgGgubWdLQeq2LTvKNsPVnGwsp7y6gYqqhvxyTI1DS34fDIZKUkkJ3nIy0whNzOVnvkZ9MjLpFe3TAb3ymNY7wJXLfkdT1i2cTcX/vJJjhyrVeELGbJ6wdHtatz6hJsFQAbKDIAAAdArjJWsM+4f1tLXO91PixA1SNaSIHCI/K3G+y3MEXZbCABg5tgSVu+uRH3anh5rX684EIQfMVGgWxCE8g50CFuV1/Hdvy3gvTun45Hi8xmlJicybmAh4wYWitfIhXh/4Vq+c8+/aWxu6eCBkTq/49mqAuAMIB2wLfnK7joAZwEpnfuxB7J7WLT0dST9SSa9AUTCG2DX8sM6yN9IjX9Nkg9faKS6oYVjLqsFcPa43qjP70df4Z+Oc/DDFfwJnLPvqvn58SgIOtYFQKUCnlaBoG+2fbjiAPe/sVY0qUDE8dz7i7nijqdpbGnV5p3sngp3Bmg7YKqt3iObv19w/D+zB3iSQ1v6IQnZaCggjDfAVJU/N5F/OG+AXve+FJrkJUlHcZHOx2/YW+mqDjZpWBF5mSnqxI9GgSDV7xiG9AXhu0QQ6BQDHYTDfW+s5cMVYolagchAlmX+8O+PuOGPL9HuVfFYBY7TCcmQUaiPY10kAM4O2pLdK0TnDecNILQ3gDDHSFJ4gWF4Xr+byT+cN0DnsRjfvmpnhas6WnKihytOHaBB/HqtfUH68SkGlP99wDV/W8jm0mrRfAKOot3r48Y/v8K9//5Qm190cadKjp1LBMAwYEDQ1pwSHYQajsgNeAPCZvxjssqfW8g/HKFL2oJGd20CfaVD3SYAAK6ZOlCD+AXpCzGgoK6pncse+oyaxlbRbAKOoL6xhYtu+wfPvr9EHxd1/P9r7uyEwcAgNwqAYGWSnBFQ/Y/QRI5TSX9mY/w2eAMcIX8L3gC0hIJkyhuwcucR13W6KSN6MKAoK/h7hgsFCNLvYmIAth2q4ftPLkKWRWsJ2Iuyo7VMvemvzPlykzbHqXKjpEwHTEpXu7RtYQA7BUDwTWWX6Cf7cALBdNJfGKveTIlfvaEAV5G/CsnrDQVoLAKy41A1tS6zoDySxM/OH0no/IUQ5CBIv2uJAf8f7y0/wH1vrhVNJGAbdpUeYcqNj7J62/7QBK/H8FUPA7hOAKQBp6sLgFBkb8Stb9TSx1zGv56iPnpmKMRCKAC9QkFlpa8O230yrHRhGOD6s4aQk5EcmvhDWIQCXUgMdHgH/vDGWl78fKdoGgHLWLZpL6fe8Ag7S4+YNE47/K8eBjiTwNl2URYAE1GmKHT4Th7I6mkhyc9osR8MuFkkA3P9w5QQjodQgCRZ8gbMX3vAdZ0wKy2JW84ZHnrQF9a+QId3QAZu/OeXzF17UDSLgGm8/8V6pv3kbxyprtfBSWHqiEgoBYGCpwOmA6e4SQAEz01M7waJSdpWuyahos8bIOltWC1ixzlvgBQDoQAMkL/Kg5q75oArO+Ptl5xAfmYq2qEAAQHlvWjzylz56AJW7z4qmkPAMJ77cClX3PUsjc1t+ghej+GbmKzkAgTjdDcJgOCbyeoR3qI2MwvANks/nPsl3L0bmaFgwzZJa5tWbN9gKEAyEArwF9VZs/sIFTVNruuQuRnJ3H35aEH8ArpR19TOOX+cL6YHCuiGLMv84bk53PDn12j3+rQ5TI/VH8hXWcVqHzvFLQIgGZigLgDsInsL3gDDGf9oWPVa5B8m38Aq+VtZali3N0DSEAShvQGyLPGJS70APz13GEN6isVLBPTjSG0zM+6bx66yOtEYAppo9/q48cH/ce+zc9Q5SY1TjIqCrCK1i00GLC9oYYcAOAUlJtGZHDpVMZJ0/jYgEPQoJ8lqxr+kc3liB0MBVslf08LX4Q1A3/a5q91ZVS0lKYFnb54Ut3XfBZzBoapGzvrDJxyobBCNIaCK+qYWLrr93zz74VJjBG+UEzN7qF0jE7C8trUdAiDYFZFWAAkpoQnL8JQ/Ew1oORSAvtX+nAwFGCL/cLF9KXQJ5bDHdnb5q23/eM0B2r52f7kLU4YXcdPMIWLEEjCEfUfqOeP3c9lbUS8aQ6ATyo7WMvWWJ5mzdLMNBmwYvkpIgbQ8tduwnAdghwCYGLTl6/g/xl3/plwoGLT0dRxjZkGisN/HSfK36g3QcayGN6Cyttm1YQCAv1w3npG9c8XIJWAIu8vrmHTPbDYdqBaNIQDAroOVTLnlCVZvK8VQCBuD3Nfx38xifdwbBQEQHP//2v1vwvUfluyNELnRpD9C358Z8tf8Pi4g/5CCQAf5q3gDXl24w7WdNiMlkXd+cybZaUliBBMwhMPHmph271zW7a0SjdHFsWzzPk698W/sLD1qwrjVIQpC/VZfGOjUaAuA/kCRugBwwPVvZhqF6aQ/vQl+2OsNsEz+JkMBoRZQChUKUHko7y/fR11Tm2s775Ce2Tx3y2SRDyBgGBU1zUy79xMWbi4XjdFF8f6ijUy79WmOVDfoMBRNioJQoYBMVQHQE+ht5TslWGyTc4ArOm1JSoeeJxpw9eshR53nhPMGhJ3ep8fNbzYUoOUCcpM3QDLhDVC2t3l9DO+dy5h+Ba7txCN659I9O5XZq0vFiCZgCE2tXl5btJu+3TMZ0y9fNEgXwnMfLeO6P/6Xlrb2MIafldlsGoZvQjJUbgNfkIG1FNgcLQHwQwLjEDm9IG+gcTI2LBjCXN+wQNAie7NWvdvJ34g3QEModLheQ3M7154x2NWd+eRB3Whp87F4a4UY2QQMweuTeX/FfkBi6ogeCGdSfEOWZe57YR6/evJDfLKMtVL2BvID1H7Xl0FzTeCJ+4FPoiUAfhfkgigY4p+3qIc0nSB7nedEyhugZ/VBR8hfwvB6BVrCRKdQ2FNRx1WnDaJbdqqrO/ZZJxTT1OZliRABAiawYFMZWw/VcM64EpITPaJB4hDtXh83PfwOf31jYXhyNh3eNhAKaKmHukOBt+kDXoiGAEgAHkcpBPQNeo6FlCwi4/o3QvZ2WfoR8AbYQv5GvQEYiveHCgXISLR7fVwwvo+rO7ckwYzRPUlNSuCzjYfFaCdgGJsOVPPe8v2cOaoH3V0ueAWMob6plcvueYk3Plurj+ANJbgbNYy/9kfA0aBE63zgIWWncViRrkOBjKCt6QXmGsOSUjI4C8Ao+Rua52nGG+A0+duYGCgRNhTw0oKdVNY2x0RHv/PSE3julsmkJCWIUU/AMLaU1nDKHbN4bdFu0RhxgrKqOqbe+jRzvtqKPg+xSatfDx92/J2umluVCQyKhgdgJnBZpy2pOdBjtAVL3oplb5M3wDY3f5j8g2h4AyQbQgFq3yHg2Davj+z0JE4fWRwTHX5c/3zOHtuTj9ceoraxTYyAAobQ5vXxzrL97Cmv58xRPUhNFmIyVrHr4FHO+sUzbNpbocHTDooCrZlvngTFA+BtDbyhJcCmSHsAxhmz/i14BWyZ8qenip/J+f96EvyIoDdA0hI6AfdpJRQQarlkCZ6as4WWNm/MdPyTB3Vj1V8u4NxxvcQoKGAKLy3cxahfvs/Ha8SSwrGIZZsPcOot/2DnwSr9HKKbq+zguZBegLHR8ADciVIH4BsUDFLqFtuS5W/RG6C7zn8kkv5MeAOskL9pQjcSCgj0BnRenbC+uZ1eBRmMH9QtZgaAjJRErjl9AH27Z7JwcznNMSRgBNyBuqY2Xlu8m9KjjZw+okh4A2IE7y/ezEV3v0RNfXMwORs2LI1yH6Gt/sD/W2qgLihnqQF4JdIC4K9AWqctRaOVMIDVGgCmXP82k72hpD8nyN+EINBbnVB3eWJr3oDVu49y0znDYi5Lelz/fK6dOpD9lQ1sOVgjRkcBw1i9p4rnP9tJbkYy4/rnI4n5gtbFVWOrI7k6z81ayXV/ftM/x1+rWJyGxa5bFOjlkhD/e9ugalfgDWUBj5j57mZH5mKU7MPOMJ0AaMIVErJx9cT9dVj66H1gGvcf6+SPgcRAlfs7XN3IYx9uisnBpld+Om/edgZL/nQepw0rFKOvgGEcqW3mxn8u5eQ7ZonppibR0ubl7UVbufh3bzL0B/+gqaXdtmvLsszd//6EGx5+h3afzySHWOQuo3yoHgIoAky5Ws3KqYnAdZ22JKZCr/E2uPptdv1LetWaXZZ+FLwBhslfRyhAR7Kf+rGdZx6s2lXJDdOHkJGSGJMDUO+CDK6fNphx/QtYu7eKyroWMSoLGMLhY0288PlO1u+rZlivbHrkpolG0SRmWLKplD+9toTrH/2Il+avZ9uBo9Q3tVHSPYvxQ3pa/ox2r4+bHv2AJ97+0gHDUqehaSY0kJAE5RtBDgpPzgL2RUoAXACc22lLRnfoNlS7kWwldzvCB9hcp8DCfcaUN0DSEASdP6OlXaa53cu540pielAa1iuHm2YOpVdBOit3HaW+uR0BASPYcrCGf83bztq9xxjaM4fiPCEEOmLrgaM8+f4qbnh8Dn99axmrdpTR3NreaSzcsr+Sn158sqX1POqbWrnsd6/xxoIN4cdkx0MBYbhF7Xf1XmhrCLyZFcDKSAmAHwDjO23J6Q15fW22/m0WDLqT/Bz2BuhOUHQj+aOZ/a92f2v3HOOqyf0pyEqJ6QHK45EYP7CAm2YOJSMlkbV7j9HUKhIFBQwS3cEanpm/nVW7qyjISqF/UWaXzBGQZVi54zBPfbCGW5+ex70vL2Hhhv0cq28OWWjnWH0zYwcVMbyPueTisqp6Zvz6RRat36cy5mHCgDQgDjAqMEIIhvpyaDwaeOQeYI7R9jD71n0BTOm0pc8kKBplA9lbIXcrZG8kMdCqpW+W/A2KFcvkr5/kwwmCM0b24LN7z46r2ul1TW08OWcrf5u1mYqaZgQEzGBQjyx+PHMoPzhzUMyL5HBoa/exaFMp7325g/e+3MGBI7WdFYHyxze/5Y7/K8dMGlnCkse/Z/iztx2o5Jw7XmLv4WqNz5DV70XuWGhP5RxT/+v5PJX/y9bDga8Cv95nwFmREgCVQOdshKHnQ3aJAcvZrv8dEgimLH0npvs5mQcQSW8A/PPHp/LjGUPiblBrafPy38V7eGL2FtbsEWvGC5hDalICF5/Smysm9uO8E3uRHqN5M4HYuK+S+Wv2MX/NfhZu2E/910uG6yDGECJgyePfY9JI/WHFLzcd4KJ7XuNobUMIgrVC6AYJ3NL/QM1+2B5k7JcDPSIhAPKA4FFuzDWQnOkicrcy5c8pgWAn+Wvdf7S9AeqvVk56Mhsfu5iSgvS4HcQXbSnnidlbeG/5ftq9MgICZpCeksi543px+cS+nHdiL3LSk2Pivn2yzNYDx1i27TCfrz/A/DX7OVxVH5o4zVjHyFw2eRhv//5yXff0/pKtfOePb9PY0mqQdO2w8h0QCa11sO41ta+aA9Q6LQBOAZZ12uJJhJN+qI/EbCFzO0r72rE0sZal74RVHwvkr/1KXXBSCR/edVbcD+D7Kxt4/rMdvPLFbnaV1QlGEzCNBI/EmH75TB1RxNSRRUwZXkR+pjtCBYerGli+vZzl28tYtq2MFdvLqW1sCW29hnS5GyNPjwRbn7+Jwb3yNe/v6Q9WcuuTs/H6fMYJPpwlblsoIMT/IffJsOo58AXlH50IrHFaAFwNdJYf6fkw8kqbrf8oJQJaInsjyxfbQP5REwThvo82Xvn5FK6ZMqBLDN6yDEu3V/DKF7t5fclequrFNEIBa/BIMKQ4m1F98hjVJ5eRvXM5oW8eA4uySEywv+hWS5uXg0cb2Fp6jM0Hqtjm/7219BhVtc3hyVw3ceohx2+23XT+OJ7++bkh+909z3/GA68tioLVb4OVH+7/ja9DU3Xg174SeMtpAfB/wH2dtuT1h0EzCT/tzwkyd4LsLUwTjBdvgMlkPz3ITkti+UPnM7RnTpcauFvbfcxeXcpri/YwZ02pmEooYEVaBpFNUoKHotxUeuWnU5STSs/8dHrkppObkURaciKSBLkZSighNSmB5lYvzW1emlrbqW9qo63dy7GGVsqONVJ2rIGDVQ2UH2vkSE2TMdJ0yOoPPCYp0cOiv17LhGGd1+9oa/dxw6Mf8NK89cH3YYp0HbTyjYqG4+fu+Biqg6b93wU86LQAeBHonIJZPBZKJjhr/dsW17ejJoBdlr4T5G9U0OgkeoPx/nAY1SeXrx44P2YLBFlFc5uXxVsq+GjVAd5cuo9DVY2C0wQsi4CQZKq5TYO4VYk4UiIgvGcgJyOZ+66byremDicnI5WvtpRyz/Ofs3RzKY658Y2KBCe8APuXQvn6wBfiWeBHTguARcBpnbb0mwKFI20ie5d6A2wvSmRSlDhG/mYEgdlXSMG1Uwfy0q2ndflh3CfLLN12hPdXHGDWqlI2l1YLbhPQLwKCCMgA4etKunNQBOhOCjSQTGeLK95Jq98GEVC+EfYtDnwZFgBnOi0A9gO9O20ZegHklNhs3TuYCGjrlD+7LP0IewMsk789E/rjdWqgFZRXN/HFlnLmrz/MR6tKhXdAwIA3IIIiwCmr34xnICKiwMEEQKP3Ur0fts8OfAn2AIaSq4yO4glAM9DZbzv6KkjNxd2JfxF0/dtq6dtJ/nq/U2TIHyAlKYGF953DhMHdxBgewjuwencVn6w7xKcbDrN0W4WoPihgvwiIpNXviGfACsE7YeU7nBDYdAw2vB74ArQBqYDPKQHQ2+8B6IzxNyhTASNu7UfC9e/ALAAz8/8NJShGyhtgDwqyUlh0/7kML8kRY3gYtHtl1u2rYv76w8xff4glW4UgEIi2CNCTaBcBq9+RufdOiAIbvALeNmUqYDB6AYecEgCTgc6Bh8RUOPH7OF/xzwlXvx2ufzO5CxZFiy3kryVoIkf+x9G3eyZL/nQuvfLTxRhuAC1tXpbtqGTBpjK+2FzO0u1HaGwRswuECNBB+Loy7+0UAXYlBVogeEctc4MkbvX/VS+AN2ha8UQC6/RowGgKdu+gLcer/+mRF1b/V91p5zrMRsgenctFhvmckItLaNy3pPWdYo/8AfYdqefs++fxxf3nuKbISSwgJSmB00cUcfqIok4egiVbK1i8pYL56w9xrKFVNFSXggSSDLLUgfiObwtznCT5SSbMtk5ji9zhGJV9qscEfrbatY9v7nBM0P0GnBZ4r0H3HuJztO5b92+NS9n1f6fOnwGNLWocrVsAGF0N8BxgZqctGd2hYIjN1n00Xf0mLXs7vAF2zfU3TP5GtjmHI7XNLNlawdWnDSDJgYImXQEej0TPvHQmDO7OlZP68euLR3Hxyb0Z3iuHtOREKmubaRQhgy4iAkz2cctjjIZHFYOr7+kx/MKt0GfKE6zXMLWBu4z87niv1fuhuSawgb7y/zgiAC4HTu20JbsEcvsSugiQnQRv8n9bC/7Y8f2wuBSxwU4XA+R/HAcqG1i5q5LLJvQlKVGIAMuCQJIozktn4pDuXDW5P7+5eBRXTurHyN55ZKUlUlXfIgoSCRGgUwRoGRXoIFMtr6PesVRtSLLR62urR1n/Y9L3f8Bn1x2ChiOBV9sAzDP70eHwCnBNpy29ToZe411g/bvIG2CY7G3yBughf9OCILKYPKyQj+466+vKZQLOYfuhWhZsKuOzjYf5fGOZWNo47qAzMVBX/F9PDD3geD3HWJ4pEIkV+ox8vsPTAGUZDq6AgysDH/ZLBBbqs1EAzAOmd9rSb6pSBMhQCWALWfNuX2vA8DVs8lA46g2IDkb2zuWT/5tBT5EYGFHsLq/zzzI4LHIIurwIMFkt0I6kQNPrBbigVr/T9yID5Rtg36LABz0XJVTviABYD5zQacvgcyB/QJSt/UgWCbJDMFi19CMZCoguBhdn88n/zaBfYaYYw6MAr09m5a6jzF17kNmrS1mx8yg+WSxzLESAkZkBNnoGIkboDlj5dnsFju6EnZ8EPuQ1KKsCOiIAyoCiTltGXAZZPXBu2l8krX8nyhNHwRsQJ+R/HL3y05l191mM6ZcvxvAoo7KuhblrDzJrVSmfrDvE0TqxuqEQAQ5a/aZFgZOhAKNeAIeuXXsYtrwb+IAPodQCsF0AJAAtBCYOjrkGUnPcb/07vfaAE94AXZa+0al9sUX+x5Geksi/bzqV73SRZYRjxTuwfGcls1eX8v7yA2zYf0w0StyIAJusfjOegYiFAnTeo1u9AM3VsO61wIfbDiQTfq6jYQFQAFQGbR1/AySkOGT9RyPRL0LeAMctfSveAPfixhlD+PsNE8Q0QRdiT0U9H648wJtf7mXJtgpEpCDGRIAp17/dnoFYt/otkrqR/9ubQ1UDzAOq7RYAg4Adnc/2wCk3Rd/6dwW5m4nzWxE0RoldrzfA/ThtWCFv3HYGxXlpYhx3KfZW1POBEAMxJgJMVgt0guBtFwUOi4SoeAF8sOyfasZ+f2CvnjfASB2AAcCNnbYkpkDPcX4iibT1H8lEPydnDpgQKGZETJyQP8D+ygb+t2QPJw3sRr/uIjnQjcjNSGbC4O5cP20w104dSFFuGgcqG6iqFzkD7oFNK5Lqqgdgoj6Arjn30Zi/r9egc6D4T+BXKFsPclBhr5dQ8vVsFQAjgWs7bUnOgB5j4sT6j8RKhHaTvQVvgISNHSLyqGtq4z8LdnLoWBNnjiomWRQNci3yMlOYMryIW88bzoXjlWriWw/W0Ob1icZxiQ7QLmFupCiQxnhiS2l1jfsMV0DHVk+xxaHTrjL4FRvBGzRN93UnPAAnAVd22pKSHVwDwKo3wMmiQG5bedAOgWBLKCB2sWr3Uf67eA8n9MljQFGWGMxdjp556Vw4vjc/PW84I0pyqGtuY3d5vWiY6LK/8XFJlYB15DWFs9zDkazpMdks8Rqw1iPiBQjYfWQrtDUG3vT7wFa7BcBk4MJOW9LyofuwyBF61KYBOpErYIM3wrDHItS22EZ1Qysvf7GLippmpo7sIbwBMYCUpATG9MvnuqkDuWxCX5ITPWwpraGlXXgFoiICpFDb9CxUZsAzEM7q1/Vbp3Vsx29bF7Cz41oB91e1E1rqAg/6BKUegK0C4EwCFwJK7wYFg8MQfpSs/4i69h0g+4h4A+ILK3Yd5dUvdlOYk8oJffJUQ5MC7kNRbhrnjuvFLecMJS8jhc2lNdQ1tYmGiYoIkLTJNJzVryde70goQDJPrGY8t3Z5BYwIHrWmPbZbmQ7YGQvRuSCQEQEw3S8CvkFmIRQMjAzBR9P6t53cHZgFEMdJf0ZQ09jGO8v289GqUgYXZ9NfVBCMGaQmJTB5WCG3njucIcXZ7CirFesSRFsE6EoKNEjwuixvPaEAAyLBsmchSl6AcG10bC80HQ084Qtgkd0C4BxgSmcB0APy+ut4CG6z/iMxDdCJWQpmLf2uQf4dcfhYE/9ZsItVu44ytn8+3bNTxfgeI0jwSIzpl8/NM4dx8qBuHKxqZN+RBtEwUREBkr64uOEleMMQut3EbXmJ4Eh7AXQKhJp9aisCLgU+t1sAXAhM7LQluxfk9olt69+1KxE66Q3oOth+uJZn5m3n8LEmxg8sIDM1SYzxsUJFEgzpmc33zxzE+SeWUFHTzPbDtaJhIikGjHgGwpGy1Sx72w0xG5rGMS+AToFRUwr15YFXXImSB2CrALgMZSbAN8gpUX4MNX6sJQo66Q2wIhgMqMsuSv7H4ZNh5a6j/HPuNmqb2jhlcHdSkhIQiB30yk/nqtP6c96JJZRVN7P9kBACznsB9I5dOgk+nMiwy9o3+xmu8QIYEBe1h6DucOAZ64BZdguAbwOjO23J7aN4AYT1T1Rc/1086c8o2rw+lmyt4PnPduCRFDezmDEQe0Lg6tP6c8bIHmw/VEvp0UbRKI6LAHQSGzaHArDRwLLBUo+YF8BADkPdYag9GHi1zcB7dguAa4Dhnbbk9YOsYgvEGkPTBCNWbVAPuYu4vxU0tLTzybpDPDNvO02tXk4cUCA8AjGGfoWZ/PCswYwf2I2vth+huqFVNIpjIkDLba7DYrccfzdCtHZX3YuUF8Cg2Ph6MCuHmgOBW3cAb9otAL4LDO0sAPpDZlHkrO6YsfYjUa7Yxperi6Kx1cuCTWU8O387tU1tDOuVQ1aayBGIJQzpmc2NM4aSmpTA8h2Vorqg4yLAxCyAiM7jt8FStz2L32Q76xEqDRVQvS/wYttRqgHaLgAGhxUAponRRdZ/1BL/bMpDCDpHIJwQWLSlnCdnb2VzaQ0lBemUFGSIhokRJCV4OH1EEd87cxB7KxrYcrBGNIpTYiDsGKhTFEhWpv1h3SCz0ysQKatf7bR6VQGwA/iv3QLgOpQVAb9Bfn+lFkAkpvrFqvXvqOu/6873dwI+WWbjgWqe+3QHH60sBWBkn1wSxdLDMYHstCS+PbkfJw/sxpJtR6hpFGEBe70AZix2LUKzSrQ2aJmoegEsChUJZQpg9d7AC+8CXrNbAHwPZUXADh6AgX4BYAPxdnrYsWb9RzJXwEaFKRASh4818dGqUp7/bAeNre0MLMomO12EB2IBQ3pm86MZQ2hu87J8Z6VYithWEWDB6rdE4A4YalHxAlgUF4E7G47AsT2BO/YAr9gtAH6Ass7wNygYCBndNRrcJqJ1q/XvtrUGggSCgFXUN7fz+cYy/jZrC/PXH6LdKzO4Z7ZIGnQ5khM9nD22FzPH9GTRlnKO1olliG0VA4ZFgVWDyAZL3RVeAB1hAi2xFHjdxkqlHHBn7EVZEth2AdCv05b8QZDRzWGCj1XrPxK5AsL6jxRkYH9lAx+tKuXxjzazfGcliQkSQ3pmk+ARbe5WlBRkcMNZQ2j3+li67QjCGWCHF0AnsZm2+h2cbx8VL4BBcWGkMFBjJVQFCYD9wH/sFgDfDxYAA78RAGEbXlj/zpG9IP9Iot0ns/1QLW8u3ccz83dQerSB7PQkehWkI4kViFyHpAQP00f3ZNLQ7szfcJj65nbRKJZFgBMJgBFYgS8qXgATwkXv56gLgL1OCIDrCAwB5A+AjEJ7idiINyBWrP+Irj0gEEk0NLezbEclz3+2k398vJVNB6pp9/noV5gpigy5DAN7ZHHdGQPZsL+anWV1okFsFwEWCvBEsupeRLwAOgRCWJLXcU8NFWohgF04EAL4LkFJgP3VBUC8eQOiuRKhYW+AQLTQ2Opl3b5jvLl0H4/P2sKyHZXUNbXRu1sGGamJooFcgIyURK6ZMoD8rBQ+XX8Yn8gQtF8cmPpts6Uelbn8EbL6O6K+XC0JcCcOJAFeQ+A0wK/rAHSw0B2z/h30BrgqNCCs/3hAm9fH9kO1fLSqlL/N2sJnG8s4dKyJtOREeuSliVBBNClKggmDu3P6yB7MWXOQBhESsNELoIdYbRorHV+RzwGrP2zsX+c9Hv+3oVxZErgztqFzGqCRUWgWcF6nLQPOhKLRFglfWP+m77vT8QKxgoKsFKaNKmb66GLOGdeLPt1E0aFo4WBVI5f+5XNW7KwUjWEGX3tQOvyWO/wfuD+a/8sa9xnuf0c/18I9la2DPQsCn8qHwEV2ewCuIrAUcG4/yOpB1N39cWP9i1r/XQFNrV42l1Z/PaPgzS/3sf1QLc2tXgpzUklPEeGCSCE7LYlrpgxgV3kdmw5UiwYx4QgI625x0mCKuhfADjPbQligrkytEuAWdJYCNjLSBJfVkr06GtxMIxl8GEYa387YUMSyTwX5xzM2l1azubSaJ2ZvwSNJnNA3jzNGFnHmqGKmDC8kPzNFNJKDSE9J5L+/mMoJffL4v/+tEYWDjA5kkgyy5LdMA//3D1NywNim9b/RcdSua5s613+QJPkt+Q7toPrbzD1pXFNWXfuiTW/zGREATUFbfO36CdFMfMMUaUdIEUZyFSkMqEKBmIZPllm3t4p1e6v42yxFEIzum8fUkUWcPqKIKcOL6J6dKhrKbhqT4J7LRzOiJJfrnlwkpgpaYmOLvwPJNNz/Rn5rihW992VFTOi4Jy11ELjbp8r1utfItigAvPa5MvS4R3QRqxVXjFXrX7LnWoYWwhCId0Gwdm8Va/2CAGBAURanDStk8rBCZo7pSb/CTNFQNuHSCX34svg8LnrwM/ZW1IsGMeQFsGCZu9ULYMTqDylMDH5OoNWvJRB87fq42gYB0BjaAyA5M8fRMmlb8AaYsv5NfK4lL4VAV8Tu8jp2l9fx0sJdAPTMT2fy0EKmjy7mtOGFjCjJFY1kASf0yWPlQxdwxSMLWLCpTDSIIRFg0rqOphfAiNVvSkzovScj1/Wfqy4AdHsAjCQBng5M6bQlvZtSDMjOZX6dmvrneHKf2XMt3JeAAFDX1PZ1UuE/Pt7Gvz7ZzvIdlRyubiIxwUNxbrqYLGIQ6SmJfGfKAA5VNbFmT5VoEJs0giGDzchiQo7XAdCbj2alEJCJcb5qp1IMqDM+BT632wMQIgdAMn/zQYc56A1wPDvUxItn9D4E+QvoQFl1E28u3cubS/cC0D07lTNG9hAeAoNITvTw3C2TmDC4Gz959ivavSI70LIXQNP61mtRdxAMspOxfyetfiPX1bhfbzRDAN42g6RnY/KfkaUnI1Ylyq7EQAEB+3CktrmTIOhXmMm0UcVMO6EHZ51QTI/cNNFIGrhxxhC6Zadw9WNf0NruEw1i2Q1gh6tfj0DA4gwAveEJwsTzdQqEwNkTeu5XPQlQtwAwEgIYSWBxgeQMKBxhfu5/1N39Lpr3L6x/gQihuqGVNXuqeGfZfh79YBNvLd3H/soGQKJ3twyxuqEKhpfkcvLAbryzbJ/wBBg18gLHLjtL7UoRyqeyYviZCgvoTKQvWw8ttYFbXwfW2i0ABgDf6uw/SIUeo00Svp2FgDpc006iNUXokSgKJCBgr4dgydYKXl64i3/M3cbavVU0tXrpmZ8uihJ1wKDibE4bXsTbX+0TngBdbOnUFGoDRG2Xd9qWcLSJXIagfQHnHl4DbUHO+ReBrZZ1TQDOAuZ32pKaAyddjy2VAJ0iV6e8AcL6F4hzeCSJSUO7c+WkflwxsS8989NFowCrdh/l7PvncbSuRTRGSESw1G7g/7o/18F7tOt+ZVn7/lY+p+YBOBNYYLcAOAlYGeQBmHAzphYCsjWTXqc3IFLufiMeCUPiQEAg+mLg8ol96dXFxcDm0mpm3DePQ1WN4uXQKwIskbwVMraL5O28ByuCoMP9fPUUeIOK9I4F1tktAAaiLDPY4WwJJv3SBIFaINuIuPvdukyxgIA7xMBpwwu5ftpgrjy1b5cNE2w7VMP0P3xC6VEhAqLuBTBi9TslEGy5XwPHyjJ8+Zhaw/cD9tktAPKBo0FbJ/4EElJwbqU/M+Ig1P9RSPYT1r9AHCM7LYlLTunDtVMHMn10cZf7/rvK6jjtt3Moq24SL4NjXoAIrwQYzu0uG/1Mh8IA7c2w7B9qjZ4HVNstADxAC4FTB0+6HlLzjJGx7d4AHWTrlDdAWP8CAoBSQe+HZw3m+2cOJCc9uct879W7j3Lm7+dS29QmXgJXegGcsPqtCAKL93f8uKajsPrFwAZvBVLROQHSY+BJ+oDgRbNbG8NLCc1iPwYkiZXKUCEPCJf9aUEy2VaaWEDA/diw/xi/eGE5fX78Fr9+aWWXcY2fOKCAd28/k5SkBPESqA2CkSqsJukY6zXvych1dd6/qfvTyaetqv2rAgOrKngMPs3yoC1tDfob3WjjWlrox+QyxeGW5dX18B0uXSkg4GLUNrXx6AebGHDL23zr0YWs2FkZ99952gnFvP6rqaKGginDyAzB6hhrDReW0zl+Swa+pGTGSNXJnW0hBYBuGJWsl6EkA36DnN6Q2cMe93805v7blquA+XwEzXMFBGITPllmc2k1z366g692VNK3ewZ9u8fvyoXDeuVQmJPKrFWl4uGb8gKYJW61/00IBNOixEhTWLmfgHNqDsCxPYFHrgVedUoAzARGd9qSVQy5vXE+3m8H+Tq4CJCI/QsIhMTOsjpe+HwnS7ZWMLxXTtxOIxw/sBseSRKrCJryApgsHGTkc7TIXGvcNVUJ0EyDGBAEVbuhNkhsfgm8p/dTjYYAgt0LrQ3mXRi2u/8juTCRZP5l12ovQf4CcYz56w8z4a5ZXPnoAvZU1Mfld/zdlWO44azB4mGb4QTdY6Yeq9ogqRrxWrghDKAeAjhi5KkYFQCHggVAPebi61YINQIP2NQLabY+tYBA14Esw1tL9zHi5+9x16urqYvD7Pm/3zCBCYO7iYcdy1a/U/xlVyngljp9HG2jADgQtCW4DKHxL22Y8CNgXet62CYyPyXTb6+AQFyhuc3Lg+9uYOjP3uXlhbvi6rulJCXw7u3TKM4TKy3qHtsMxf4NLMBj2Sg08nXMzAYwuSqsugDYH2EBUKezMc00nhVVJZk4PRILP4SL/QsIdC0cPtbEdU8u5pKHPourqYPFeWm89ovTSUwQHTvkOBuNBXjs4gUjN2I2DKDFoerG94HICoD2ZvC2WSN8IuX+1zkP1BZ3vzDuBQSM4P0VBxj1y/d5Zt72uPlOZ4zswYPXnCQeri1OAjvDAnbUBIh0GKDDvXpb1dYAcNwDcBhoD9raWmftSxsq/mOEUE3O/ddUoWaS/0ThHwEBPahpbOXH/1rKZQ9/TmWcrLb3qwtH8u3J/cTDNWT1mzG2bSoUZ0QQ6DIODQoSPVC3/lsxWAfAqADwopZkoBYGMGthR8L9ryvb32ZvgCj8IyCgG+8u28+4X3/A4q0VMf9dJAmevXkyo/rkigerhwwlPQaYncXhMF8kyAg/YFIQqJ2mHnovRanY65gAUHcxNFebUzFGz5Ew9wD1qsKw17Gj7CPC+hcQ0IHSo42c+fuPeeCdDd+USY9RZKYm8tovThflgjW9ACbGUltCsFamKBoQBJJJa1/tnK85Nww3OyAAdgYLgBoL0/8i0GCRqPhkVyliAQGBr9Hulbn7tdVc9OCnMb/Yzgl98vj9lWPEQzVqZRvyIBsgdUfCADbxW7jzmlQFwI5ICIDg+TpNx/QTvl1eAbNZnna5/x1ZmEhAQEANH60qZcpv57A3xosH3XHpKE4bVigeaNQW4Il0GMAm/gs8Xd0DYHgurT0CoNPN2FH9z0a1pJekdd9bBBcmEhAQ+Brr9x1jwl2zWBLDeQEeSeLfN08iLVmEAmJyAR49hqTtSe0q5wQa3REUAMEhgKZqnJv+F233vxExa4c3QEBAIBQqapqZdu9cnvt0R8x+h2G9cvjj1SeKh2nJ6jdz4SiFAZy4t5YafdwcEQHga/OXBDb4JXUpJYMWtmT2Idnh/sfAQxTJfwICZtDa7uOGp7/kx/9aSpvXF5Pf4RcXDOf0EUWC8SOxAI9dlfcsz2wzc29q5F8HPm/UPADHgOAFvhuParhGzJCqA16BSFQmtGthIgEBAU08M2875//5U441tMbcvXskiedumUx6SqJ4kCHH6CgswGN4jLaZtySNDVIA13ZGGVBn+D00+aS2BAuAShxz7TvxMF1RmVBAQMAK5q07xIQ7Z7H1YE3M3fugHlncfvEo8RB1GVRmBYGOsd0JDjGbz6bn/hsq1Q7YbEqImnwsm0J6AHQ3kBEr2m4lFuYc2wsVIbwBAgIOYcfhWibdPZtlOypj7t5vv2QUfbtnCqvflil3Dlbes3qOWb5TO6+xUh8nOygANuu8KQddJHZM49Bza3a6/wUEBJzAsYZWzr5/XszNEEhLTuDP3xknHmDYsTrKlfcseyRs5MHG6HsAgj+sodKG+L+RB4WJ6X9mVKUZwkfM/RcQiDBqGluZef88Pll3KKbu++rTBojaALqHyihV3jN+o85xXlNV1D0AwR/W3uyfCWB3Ep/JYx2pTCjZ80IJ7hcQcASNLe1c+MCnvLtsf8zcsyTB49efgkfqqgNDpMMATnuPHeS3llpob4m6B6AMCA7611foaxg74yGGSdWpRMVQ5wjCFxCIJFrbfXz7rwuZvbo0Zu75pAEFXHP6APHwNEnX5jCAWWvfdGKgSd4LxbHh+NhBAQCwNvjmyjHQKpFTTRF5YBZcRQICAraizevjykcXsnT7kZi55weuOVFMCzRl9TtlULrBmx1wuDrHrjHbklYEwJrQAsDMFD89PGnGZWOA8B2fyym8AQICkUJjSzvn/nE+6/ZWxcT99spP58YZQ7ouqUciUdtSDRk9472Z+zZwv+oCYK07BEBDuQnSjaa6MhDPkQThCwjEGmoaWzn/z5+y70hsLCJ024UjSU70iAcXZMjZNFXb0ljt9Iw2Hd+vocI1HoDVQVuaqpVkQDvdH2EfeDTVmRVVKSAgEAkcrGrk3D/NpzoGKgaWFKRz3dSB4qHZbcEbNt4w72W2y9oPRHszNNe4RgDsABqCttZXODMdMNJeASdWdBLFfwQEooItpTVc+8QifLLs+nu989ITSEzoiuOESyvvOcIdJsSIuvu/DtgdDQHgBdYF384hexWaUYs8mhmawisgIOBafLSqlPvfXO/6+xzYI4srT+0nHphTCdZmEwOjwWcdj61TrW+xDjC9IpbVYNOy0ALAbtWmRylFwYNgqRiQgIBAJHHfm+uYtcr90wN/e8XoLlwXINRYb5OX1iwnmK0HYJc3uVZVACy10rz2C4DaQ/aqHrtVlJ5TzbppbL1fAQEBu+GTZa59YhG7yupcfZ8jSnI5/6SSrs74kRnT3cxTWsZ1KA6OoAD4KmhLa71SrchoA5iy+LEpUcMmtShmAwgIuB7HGlq56rGFtHvdnQ/w03OHdWGrP4KV9yKWYG6mkJEfTcegtUEfB0dQAOwDgmVJ7UHjCs02JSXZfD0jwkRY+gICsYCVu47y4LsbXH2P00cXd/GVAp20yqPJKSY8zOrWfylw0Eqr2lF2ajlwSWcBcAi6j3DgAURDrdmtKiOP1KQEehWk0y0rhW7ZqRRkppCanEBmaiJJCYoG9MnKnOlj9a3K74ZW9lc2UF7dJMYegbjE/W+t48LxJYzpl+/K+/NIEj84cxD3vrFWcL8c+I//d6d9gedJIMuoHhS0qcMGzWsCcogDVO9T9xfTRq397n+7BMBXQQLHmc4MAAA51UlEQVSgWsdCHGYTAN3uFbDlWHNIS05gXP8Cxg8sYETvXAb1yGJwcTa9CzIwm0/U1Oplb0U9u8rrWLe3ijV7lJ/d5XUICMQyWtt9fO/vS1j+4PmuLb7zg2mDuO/NdTExfdEhxo/wsQ5dT5dQ0YA6py612tJ2CIBFQVsaypWiBUlp9rtI9B7jyHRAd8X/czOSOeuEYqaPLmbikO6M6p1n+/zhtOQEhpfkMLwkhws6JCVV1rWwYGMZn208zOcby9h6sEYwikDMYd3eKv741nruu2qsK++vT7cMZo7tycdrDnatB9PJ0g5gT1UyPU60GmT69XlGPAISSHIYnrdLWIS4r7YmaFBd0+ILO5rZKpKAaiC909YTvg0Fgzp8TECRB0ltGUeVfYEJIZr7QnyW5mebvK+Q9xnuO1jD6L55XHJKH84e25MJg7uT4HFHrGFPRT3vfLWPd5bt56vtR7qYxSIQy0hJSmDTYxczsEeWK+/vraX7uPLRBV3sqRwnXf848vV4IofZF/C/5r4O1wu5T+XYkPuOX0MO/x2M3NeRbbDprcAGqgfygPZoCwCAT4Fpnbb0PhUGTtNJnnYQq15xYITU7bova009sncu35rUj29N6sewXjmu77qHqhp5/rOdPDN/OwcqGwTDCLgel07owzu/OdOV99ba7qPkxjc5UtvcdQWAWaINPFavWLDls226r53zoTQo3D8XOMdqKyfY9LT6AWcGPcDisTZY1jpJOOIWv577CjxWP7LSkvjBmYN45qZTuf/qcUwd2YNu2akx0XWz0pI4fUQRPztvOOP651NV38qeCpEzIOBebD1Yw9QRPehf6L6s+wSPxJ6KelbuOtqFnkiUs/NtnV5u8Zg9C5Tp9Z3xPLDYLQJAAr7fWbY2QMkp4Ek0RsJOW/xmxYEpi9+49T+ufz73XTWWF396GpdN7EtxXnrMdmGPJDGsVw7XTh3Id6YMICnRw9aDNTS3eQXjCLgOa/ce40fTh7iyAp/HI/Hqot1d64E4kccVlQJzFu6rvRl2zVPbcy+w35YmtgGpQBXQOetv5OXQfXgELGsDJOy0J0LznkM8BAlmjunJby4exVknFMd1n25oaefJ2Vv4y3sbORYDq7MJdC08/5PJ/ODMQa67r+Y2L91/8D/qm9u70NOIsNs/aN/x7VEMCVRshs3vBA2jQD5geQC1ywPQDpwGdO45ianQbYgzROu0xW/2ng3E/xM8EtdMGcDLP5vCbReNZEBRVtx36eRED6cNL+LGmUPxeCRW766izetDQMAN2HKwhlvOHuY6L0BigoeVu4527dk2WhUCHbX2peiFBA4sVVsFcC7wih1NmmDj4+lGYFJCWyP0noD7ZgDoEAcOJgBKElw4vjev/2oqN589lKLctC7Xl9OSEzjrhGJunKG4XFfuOorXJ2YOCEQXR+taGFGSy6g+ua67t8ZWL++vOCAekhph2rbMvM3HSBavs+Nj8AYZ+k8AK+xoPTurX8wJ2tJSG2r+YuQejuTgwzHygvpx4fjerHn4Qj64cxqj++Z1+e7bPTuVB797Epsfv1gsgSrgCjzw7gbcOIv1/BNLutgKgRFYlMfUOjM2cUS4Z1lfBi2qydNz7WphOwXAdmBX0NaqXRYyDWxwzzip7sK9JB32nTiggIX3ncMHd05zbenRaGJAURZv3DaVWXefRb9CUf9cIHpYt7eKWavdt2RwYU4qEwZ364IGvpFEQAfFgt77suMmJT93BmObKs+6QACoK5OqnfY0jBSJF82Oz+58cHFeGs/dMokVD53P6SOKxOgaBuedWMLGxy7mVxeOsL2qoYCAXjz20WbX9o+uCwOEa9t47rDjQuuEo6o8/7Gdt2q3AAgOA9QcCIhhRGMNAK1TnPmspAQPt18yiu1PXsb10wZ3MdedNWSkJPLo905m+YMXMH5ggWgQgYjj842HXbnexaSh3cXDiahH1+bP0jsVsL0Fakv1cayLBMDnQOdyVT4vHNurs63c5poxFzOaOKQ7Kx++kIe+O57M1ETRX01iXP98vnrgfB65bjwpSQmiQQQiBlmG5z/b6br7OnlQN9eU/44+90fYwHM61Nxx17HdIAfNjmrChvr/TgqABtQWB6raia1+l2gnZ4S4Tk56Mn+7fgKL/3S+SPCzCQkeidsuGsmqv1wg2lQgonjx852um5mSlZbEqD5dqR9Ed0zXfYxk83dWd/9/7hcBrhUAoBajOLrLeKNKjraw7Qkk55/Um81/u4yfnT+iayt0hzCydy5fPXA+t5w9FBFNEYgEDlY1unIVPpEIaPOgLjlyw9Y8E1XOx/+dEgDBMYrmavXpgJJdT8fEFEA73gQJstOT+NdNk/nonhn0zE9HwDmkJSfw1I8m8vFvZ1CclyYaRMBxvPXVPtfd08QhIg/APHnbtSaAXZ4JlW315coU+hgVAFuAPUFbj2x2RnpFLC4TfMyMMb3Y+Pjl3DhzmOiIEcTMMT1Z/fCFzBjTUzSGgKOYtarUdWGAU7u0AHAg4c7sMZJD30eVK9kD7IgFAQDwYdCWis3OPWhH36ngnalJCTz5o0nM/d259O6WIUbJKKBHbhpz7pnOb68YLUICAo7hSG0zy3YccdU9De2ZQ15GsjD9bTHsonwfalDnynedaEWnBMAbQVsajkBDhbkGkWx4MJI9Fx7WK5elD13MT88bIYgnykjwSNx/1Tg+uussMSAKOIYPV7qrKJAkwbBeOYL7nbqYHflnZkMT9WXQqLrs8+uxJAC+BPYZ8gLYXgPAftX2o5nDWPXopYztL+amuwnnnVjCiocuEBUWBRzBbBdWBRxUnC0ejIOGnqOconVoxSa1rXuwqfZ/pASADLyt88vZ/Azsf9jZ6cm88ZvpPHPL6aSniHn9bsTAHlks/fN5XDd1oGgMAVuxcX81NY3uWrp6YBdYOdSqwebIZzitJSq2qG19g2/WG44JAXD8pjuj8aja0obuesgBfv1hJbksfegSrpw8QIyELkdacgL/ufU0/vXjU0lK8IgGEbAFPllm+Y5KV93TgCKxXobx4d8tnoAQqDsETVX6uDQGBMByYK/tXgDJhobXeeg1Uwez8pHLGdFbFKCJJdw4Ywiz7hZ5AQL2Yel2dyUCdrkQQMRqAUSiGFCIA8tVuXEXsDoWBYAMvBn8JTdGVlWZ+IzEBA8PXjeBV351FhmilG9MYsaYnix/6AKGl+SIxhCwjK9cJgC6VgjAbnpwoydADpUj9z8n79JpP2lw5mLTMag7rN1Qkt3tr/+CxXnpLHrgEu64fJzoWDGOQT2y+PJP53HOuF6iMQQsYc2eKlfdT2FOKtlpSYLxI/EZklO33GFj7UGlYF4w3nDyWzotAFYBwStq2JoMaF9ewPhBhSx/9HImDhXL9sYLcjOS+eius/jFBSNEYwiYRnlNE/XN7a66p5ICUYMk7LguReAzbHnBVDlxG7A+lgUAqIUBKjaBJEeggfWf/63TBrHwgUsoKRDJNfGGBI/EY98/mX/fPEkkBwqYgizDngp3LQ+ck57UxZ+KFOXz7foMOVT1v9edvrtIjIbBLoymY3BsvysEmOSBe68+hf/9ZqaY4hfnuOGswcy+Zzq5IjlQwAR2HnaXAMju8gLAIknYsRaNHRri2B5orolbAbAWZX2Azji4MurqLzU5gTfvOIffX32yqOrXRTB9dDGL/3gu/QqFp0fAGHaXu0sAdGkhK7npYhbPP7hKbesGYLPTzRgpf+jzQVuObIbWhkg8XVXkZabwyX0Xc/kkUTimq2Fk71xWPnQBU4aLXA8B/aisa3GXByBNeLIixReOoa0RKrep7XkuEh8fKQHwItC59/i8UL7eoWerXR6yX2E2Xz58BVNGitXkuioKslKY97sZXDNFFHgS0Idal1UDFDkAkdQUVtcDCHH+oTXgC0oubQFejScBUAl8ELT14EocqnAYEqP7dWPxXy5nWIko7tPVkZKUwMs/m8K93xorQkACYVHT2OYyAdCVPABWC725tIMfXqO29W0/Z8aNAAD4d9CWhkqoOeDcixCAc07qy5JHrqSXyPQXOP42SfD7b43hxZ+eRnKimCEgoCUA3OUByEoTHoCoiQw7zq/eq6ySG4xnI/WNIznizUcpaxjgBVgVkQ+/fsZIPvzdhWSmik4jEIzrpg5k3u9mUpCVIhpDQBXNbV5X3Y/XJ4uHEgtWfiioc99uYEGkbiGS895klFyA+zttLd8IQ86FpDTHPvje70zk99+Z0OW7R3l1Exv2V7PjcC0HqxqprG1GBlrbfWSlJdE9O4X+hVmM7J3LyN65Xc4iPn1EEUv/fB4XPPAp2w/VivFUoBOSExNcdT+t7V7xUGIV7c2h5v4/QwTj4pGe+P4c8PtOn+trU5IBSyZYU3Aqi0UkJnj410/P4vqZI7vkO1ZR08ycNQf5ZN0hFm8pZ39lg+5zU5MSmDSskHPH9eKyCX0Y0EVqjw8uzmbpn8/jikcW8PnGMjFQCXQQAO4SxK3tvq5n4MvRvoakFLGTLd5A2VrwBuWUtAMvRbJJIy0ADgNzgAs7bS1d4RcA9iEjNYm37r6Ac07q16X6SE1jK/9bspfXl+zhi83lpt2EzW1ePttwmM82HOb2l1dyxsge3Hz2UC45pU/cV9PLz0xh7v/N4JZnvuLZT3cI5hNwpQBoaeuKHgCrDG6HirABh1QX+PvQz5FxKwCOuzg6C4D6cmUxhOwSWz4gOz2ZWX+4hNNGdp1FYNbsqeKpj7fyv8V7aGixt2a5LMPnG8v4fGMZPfPTueXsofz8/BFkxvFKiUkJHv598ySG9crhjldWiXirAGnJbgsB+MRDiUkrrRTqVL2Lz0b6VqIhaecAwan/+7+05eJ5manM+9PlXYL8ZRk+XnOQ6X/4hBN/8yHPfbrDdvIPEq5Vjfz2v2sY+JO3eWL2lrgfhG67aCTv3n5mXIsdAX0ozksXAkDAOtS5rhSY2xUEgBd4IWhr+aZQyyHqRvecND5/8EpOGdoj7t+huWsPMeGuWZz7p/l8uuFwxD+/oqaZnz+/nKE/e5fXl+yN67a+cHxvFv/xXPp0E6uvdWWUFLhLAHTNEECMo7k61Gq4z/q5Me4FAMBTQHNnc9YLB74yfcGeBZkseOhbjBnQPa7fnxU7K5n6u48554/zWLGzMur3s7einqseW8h5f5rP3or6uG33Mf3yWfHQBZw2rFAMYl1WALhLAB6tbxEPJeas/yUgB3luWoB/ReN2oiUAKoDXgraWrlCmRxhEn8JsFj70bUb0KYjb9+ZgVSPXPbmYCXfN4ovN5a67vzlrDjLql+/z6AebaPfGZ7y8MCeVT+89mxtnDBEDWRdEb5d5AEqPNoqHEktobwmV/PcfICpTjqKZ1vow0FkKeVsMrxI4sDiXLx6+ikE9c+PznfHKPPz+Robe+i4vL9yF7GJubWhp59cvrWTSPbPZcTg+59EnJ3r4149P5akbJsb9bAiBb5CYIDGsV47rjAKBGELpMkUEdIYMPB6tW4rmCLYV+Dho6/4vlXCADgwtyWfhw1fRtzA7Lt+X1buPcurds7j95VWOJ/fZiRU7Kxlz2wc8MXtL3PblW84Zymd/OJvCnFQxsHUBjCjJJT3FPYmgXp/M4WNCAMQMQoe4PwSiNlBG24R5NGhLS61SHTAMRvfvzhcPXx2Xdf2bWr388sUVnHzHLFbuOhqz3+Hnzy/nykcXUBWnscrThhXy1QPnM7Zfvhjg4hzj+rvrGZdVN8VtqC0ucXidwm16OLALCYDPgOCgyN5FaBVrGD+kB5//5SoKc9Pj7j1Zuv0IY3/9AY9/tBmfHPsd/K2l+xj76w/5avuRuOzX/Qsz+fLP5/H9MweJQS6OMX5gN1fdj3D/xxjUp/6tBL7oygIA4K9BW+oOQ9Ue1YNPHd6T+Q98m/ys+HK9trb7uPOVVUz57Zy4q0N/oLKBqb/7mH98vC0u+3ZacgIv/GQyz9x0KqlJCQjEH846odhV91N6tKGLPgk5yuebwNEdCqcF4+Fot6YbBMDrwP6grfsWq1r+c/54JTkZ8bVi286yOibfM5uH3tsYtxXnWtt9/OTZr7juycU0xlA+gxH8aPoQFv/pXPoViuWm4wn9CzMZXuKuBMAdh+sE90flGibWAVDhMmAv8I4QAMoCCE8Eba3cDvXfzIwYM6CQuX/+dtyR/ytf7ObE33wYs7F+o3h54S5OvXs2O8vicwA7aUABq/5yAeeO6zplqOMdbnyWq3cfFQ8mFlB7CI7uUtvzuJ/7urwAAGV9gJogpbXrUwBG9u3GvAeviiu3f1Orl+ufWsK1TyyirqmtS/WJ9fuOccodHzF//eG4/H75mSl8dPdZPHDNiWKqYBzggvG9XXdPq4QAcMhFYDN2zVO7r2MoK+NGHW4Zner8IqAzKjYzOKeVTx64iu458ZPwt98fE3/h851dtqsea2jlnD/O46H3Nsbl9/NIEndeegJf/vk8BvXIQiA2UZyXxozRPV3Xd3aX14mH4zoBEXB+zQGoVM17ehpwRdlUN5knf/ELga/Rp09v5v31R/SMo6l+s1aVMva2D1xRxjfa8Ppk7nxlFT96+su4Xdhk/MACVj98IddOHSjG1xjED88aTGKC5Kp7Wr37KHKXmwEoO3Koo9g5T21rPVEs/ONmAVCJskaAn/z7sHDhQvqW9IyP11eG37++lgsf/JRjDa1iZO2AZz/dwfQ/fMKR2ua4/H5ZaUm8dOtpvHTraWSlJYkHHiPwSBI/nDbYdfe1Zk+VeDhOW/eyxfOr98JRVQ/vXwHXzIl2W4DyIaC6Z8+efPrpp/Tr1y8uXr2GlnaueGQB9725rgsqd31YtKWcCXfOYnNpddx+x2unDmT1wxcycUh38cBjABed3NuVMzpW7RLxf3ea/GGt/2o3Wf9uFADVw4YNe27+/PkMGhQfhVX2Haln8j1zeGfZPtFPw2BPRT2T7p7DvHWH4vY7DuqRxeI/nstfrj1J1AxwMSQJfv+tMa68t6VxWlQrepxvc+z/6E6o2q124CMoCYBCAKg2oywXbNiw4dzhw4fHxTu6dPsRTr5jFuv2CpedXtQ0tnLen+fzr3nb4/Y7JngkfnPxKNY8ciGnCm+AK3HJKX1cWeJ504Fq9h2pFw/IDnJ3qq7ALlXr/yhq092jPRa5iPxzgfkej2d0PLx27y7bz8UPfUZNY5vogwbhk+GjVaXUN7czfXQxkiTF5ffslp3K988cRHZaEou2lIva7i4SaP/95VSKctNcd2//WbCTeXE6fTbKbgB7PuPIVti7UG3PvcDnbmtBV3gAZFnOQlkZ8MR4eC3/PmcLVz66gKZWr+ijFvDoB5u47C+fx9RKiGbI5raLRrLmkQuZPKxQPHQX4NbzhjO6b54r72326oPiAdnG33aXFZZh93y1A8vokOAuBEBn8k8G3gQmxPy7JsMf3ljLrc8ti9uSvpHG+ysOMOnu2RyojO/a50N75rDo/nN56dbTxBLDUUSfbhncf9U4V95bbVMbS7ZWiIeki7htJHe9lyrfDDWlanseBFy5elNUBYAsyx7gFeDsWH8lW9q8XPP4Qu59fa3onzZj/b5jnHr3bNbGeS6FJCkzBbb87RJumjkUT5yGPtzc/k/fOJHM1ERX3t8naw/R5vWJB2WZ6x0wznxe2DFHbc8h1IrcCQEAKHMir4z196+uqY2LHpjPfxfvxpVTUuIAB6saOe2eOby/4kDcf9f8zBSevnEiK/9ygUgSjCB+ecEIzjuxxLX3N3t1qWB6p8hdtnjwvsXQoFrc7X6gya0tGrUkQFmWfw/cGeuv5IHKBqb9fg5Lt1cAxy02STEnBGxFm9fHm0v3kp2W1CXm0hfnpfGDaYPo3S2DpdsqaBQ5JY5hyvAiXv7ZFBI87uy3LW1ebvrX0q77DtiSse+QgGith3Wvgi8oV2kH8CPAtQ8tKgJAluWbccFayFaxfl8V0343m11ldX7u7ygAOv4vYN+7A3PXHqK8uplzxvbC44nvNpYkiRMHFPDjmUPwSBKrd1cJN7DN6JmfzrzfzSQnPdm19/j2V/t5aeEuYfk7qhB0fIbax2z9EKpV67x8H9ji5paNuACQZfkS4EXcV4TIEFburGT6vbOpqGlWIXwhABxv/11HWbq9govG9yY1Of4L6qQmJXDWCcXcOHMoHkn5/iLR1Dq6ZaUw//dnM9DlCzb9/IXl7KkQ8//DEr8cYQFRdwg2v6t2/qfAb93eehEdOWVZPhN4D4jpguiLNpdxzn1zqG5s9ZO8dNxcEwIggthdXs87y/Yzc2xPumV1jcz59JREpo/uybVTB9DY6mXt3ipRXtokstOS+OR3MxnbP9/l73kdt724UmQXOWLsyzo2aXzgulehKSg5uR24FHD9lI2ICQBZlk9Cmesf0+v6frK2lAv/NJf65nYVq18IgEijqr6F/y7ew8Qh3enbPbPLfO/cjGQuHN+bi07uTenRRnaW1YqXwQDyM1OYdc9ZTBjs/lyShz/YxKIt5eKh2WnV2yEiyjbAHtWiP08B/4mFVoyIAJBleaDfJZIfy6/crJX7uezBef4CP1pufyEAIommVi+vLdpN74IM11tzdqNHbhrfmTKASyf0pbGlnc2lNfiES0ATA4qy+PTemYzrX+D6e233ynz/qSXUNYmKooaJX7bpOmrwtcPqF6E9KMH/GHA5Ls78j6gAkGW5J7AAKInl1+7NJbv51sPzaf06AUvL7S8EQKTh9cm8v+IAjS1epp1Q3OXm0BflpnHphD5cd8ZAfDJs3F8tkgVVMHlYIZ/eezZ9umXExP2+v+IAz366Qzw4Jy15rYuGuv7uz6B8o9qe24GFsdJ8jgoAWZZzgHlATK/u89oXO7n28c+UWu0dST6kADj+vxAAkcaX2ypYtuMIF5zUNZIDA5Gbkcy543rx0/OGU5yXxvp9x4T1CHgkiZ+dP5yXfzaF7LTYSUG68Z9fsj/Oq2Dq42O7Evlkc6d1REstrH0F5KDZfZuBG4CYUd6OjZCyLKcBs4nxEr/PzN3MD/++0J9xLRmI+wsvQLSwq6yO95YfYMaY4i6THBiIlKQEJgzuzi1nD6NPtwwOVjVSVt3UJdtiQFEWH9w5jRtnDCExIXYmH81Zc5AH3t0gTHw7jpFtFBAbXoc61QWZrkWZ+x8zcIydZFme4RcAibH66v3tw/X88rkvkTuSekirXwgAN1rDr/3idM4d10s0BrBsRyX//GQbry/Z0yUWqkpNSuDn5w/nnstHk5UWexOPJtw5i+U7K4UA6OQB6Ph/wD5Z7kzkshxm3/Hrae0L+Kwjm2HV82o3+iFwUay1rqPsJMvyucAbQMylZz/w1mrufnlZsJUfUgCE8wgIRAMJHokHrjmR31w8SjSGHzWNrbzx5V5e/HwXX26Lv8VlJAmuPm0Af/7OuJidGTJrVSkXPPCpeFlVSV7W2GdRAGiJjbZmWPQXJQTQGc3A6Fiz/iPCTrIsjwc+AopipVEefGs1d728TN3KFwIgJnHNlAE8c9OppKckisbogO2Hann5i1288eVeth+K7amECR6JSyf04c5LT+CkAQUx+z1kGU658yNW7joqXlAti19TAGjs63i9kPtUxMHGt+HAUrWbvAf4c0yK5ci80PJAYA4w2O0N8vgH6/jls0vCWP1mQgIC0cYJffJ4+zdnMLg4WzSGCtbureKNL/fyxpd7lfLWMYKi3DR+cOYgbpwxhP6FsV8L4oMVB7j4oc/ECxlOADjt8u+4r2oXLHsalTyBDcBJQExm2kaMnWRZ7o4SJ3FtUuDTczbyk38uRJYNkLxuj4CAG5CTnswLP5nMpRP6iMbQwMb91Xy48gAfrDzA8h2Vrqst0C0rhfNPKuGqyf2ZProniQnx0c/avD5O+s1HbNh/TLyEdln8ZsXB8ev52mHJX6E+qBiTDzgNWBqrLRzRXiPLcjrwP+BCtzXEC/O38MMnP/M//47EbsXtL7wArnzpJfj1RaP483dOjBvicBJH61pYs6eKtXurWLdX+b31YI0yLTZCSE9JZOKQ7pw+vIgZY4qZMLi7a1fus4IH393AXa+uFi+dbgGgQxyYsfg77ts+G3ap5mP8FbgtpsfCiD9SWU5EKZV4o1sa4bWF27nur/P4Zjyz4PbXFAsCbsIZI3vw31+eTo/cNNEYBtHS5mXjgWo2Hahmd3kdu8vr2VNe9/V0Q7OzDHIzkikpSGdwcTZDirMZ0TuXE/sXMLwkJy4JvyN2ltUx+lfvd4kZGqYEgNMWv5oAqDsESx5Tm/O/DxgFxPQKTVHrUbIs/x/wh2iz41tLdnL1w3P9RX7sdvsLAeB29MxP53+/PJ0pw4tEY9iI6oZWqupbONbQSm1jGy1tXuqaO4dJs9OSSUqQyM1IJjcjmaLcNDK6aJKmLMOM+z7h0w2HxcujKQAcDAcEeht8Mnz1JFTvVbu5c4C5sd7CUnRfevl7wL+J0uqAH6/axyV/mkVLm5ewbn9THoHAYwXciASPxK8vGsn9V48jKcEjGkQg4vjPgl18/++LRUMEqiInp/yFEwC7P4etH6rd2cvAdfHQxFL0n7E8HXgbiGhq9rw1+7no/g9pbvNZJHk9AkB4AWIBE4d059WfT2FAUZZoDIGI4WhdC8N//h5HaptFY4Sy/iMSDuhwvfoyxfXvDUrurwRGAEfioZWjbu5IkjQfOAuI2HqXn68v5eL7P6K51atd/VHWs5ykHLhBIEbx1fYjjL/9I97+ap9oDIGI4SfPfiXI36g46ETiNo/hvnZY84oa+QP8PF7I3xUCwC8CVgKnAtuc/qylWw9z0X0f0NTaZoC4ZWMvp9ACMYtjDa1c8cgCvvfkYhpa2kWDCDiKJ2Zv4fUle0VD6BqCZaMnmDtmywdK8l8wPgJei6dmdZVf2ulaAau37ufM//uI2sa2zm75Tq5+KfQ+U25/EQKIVYwoyeW/vzyd0X3zRGMI2I4vt1Vw5u/n0toulm0ObUjprQCoZzpgh+uF2ndkK6x4Rk0cVABjgLJ4amVXZTxJknQEmOYXAbZi165dnDdzGrXHjoZ/8cLuUnH7y3peZIFYwubSasbf/hF3vrKKNq8YpAXsQ0VNM996dKEgfzNjpqwxXssWvAKt9bD+NbXjZOCH8Ub+rhMAfhHQCFwK/NOuax46dIgZM2ZQfmAXbHwDR9z+AnGJNq+Ph97byMl3zGLNnirRIAKW4fXJfPeJRRysahSNYUUk2HqsD9b/D1pUS2A/ieL+jzu4cs6TJEleSZJuBu60yq61tbWcf/757NmzR9lQvhH2L+38YuhKIpF1vFeBLiWBeMG6vVVMuHMWd76ySlhtApZw16urmbfukGgIQ/wtG7D4A138WprA/8fexVCxSe3IzX4eiku4etKzJEkPATcAprKxfD5fy4UXXti2du3azju2vBdQ19kpa18Ignj0Bky6e7ao1S5gCi98vpNHPtgoGsIs4TvhFagvg22qUecW4DtAU7w2dUxkppmsFeAFviVJ0kDgL0F7c0pg0i/Bk3hcbXRuEt0FgY5vF/UAuhKSEjz86sIR3HfVOJITRfEggfB4+6t9XPXYwoiuoRCT7G/r/P/j1wixz9emzPevPah2M78A/hbPrR0zbCTL8niUOEyRvreIGyRJet7v5fgEpdZAZ/Q7HUZeroPkjVT90ysIBOIBY/rl89QNE5g8rFA0hkBIfLDiAFc8skAkkxoVAFqEb0cBoA2vw/4v1W7kE5Ryv3Gt1mKKjWRZ7g/MAYaGOfROf/jgOHoB64CC4BH8O1AyAc3pf5YEgRAA8Q5JgmtPH8hfrj2JIrGwkEAA5q8/zIUPfEpzm1jkx5gAcIDwO17j4HJY+6raTRxBmfIX9wszxJTvUpKkPcAkYInGYU8FkD/AQeBHqkdveBNqSo0JPUuJgcL9F3dDlgwvLdzFsJ+/xxOztwgXr8DXWLr9CJf+5TNB/mas/7BjqxrB6/yc2oOw4Y1QB9zQFcg/5gSAXwRUATNRrxXwCnBriFPfBf4etNXXBqueg9YGay8Ugty7OqobWvn588s5+Y6PWLK1QjRIF8firRWcc/886ptFRUlbRYLRsTbQYGtrVMZ89VK/jwIfdJXWjFl/tCzLicBTwI3+TXOAiyVJatM4LQn4FJgStKfbUJhwM0getMMARhIDj/8vwgBdDZIE3ztjEA999yQKc1JFg3Qx/HfxHq5/aomw/K14AAyvBnj8uDD7lv8TjmxRu4ElwJlAmxAAsSME/g84F5ghSVKDjlN6ACtR8gI6Y/C5MPRcnM3+F8sDdyXkZiRz+8Wj+Pn5w0nvomvddzX88a31/O71NcaciALahG/XbIAtH8KueWqffhg4iS7i+o8bAeAXAUlhLP9AnAosAJKDmmP8D6HHaMKuC2CbIBDoCijOS+P/rhjDDdMHk5Qgpg3GI1rbfdz4zy/5z4JdojGsWv+2Tf/rcE75BljxLCrhgzaUEvSLu1qrd2UW+hlqczyT0uC0X0NGoQqRawgA04JAoCuhb/dM7r7sBH541mASPOIdiBcca2jl8oc/5/ONZaIx7BAAZgk/0JNwfF9DOSx6FNpVa/rcjI2l52MJCV34jVsG9AfGdtrqa4ejO6H3BPAkOFAfIPBcga6EmsZWPlpVyocrD9C3eyaDirNFo8Q41uyp4tw/zmflrqOiMSzwf3CCn4lEbLW4S3sLLHsKmlWrd74C3NNVmz2hi792nwAXElhcqLUOGiqgeJxDVr/wAnR1lFU38eqi3SzcVM7QXjn0LsgQjRJj8PpkHnx3I9c+sYiKmmbRINbYX+duOTzhdzrcB6tfgCrVsMwalIXnuuw0DcFA0A8lKTC4SNDAs2D4JaIqoIDjOG1YIXdcegLnn1ginEMxgL0V9Xzv74v5YnO5aAw7BIBT7v9Nb8GehWofegwYD+zuyi2fIF4+qv1K8DsE1kU4tgeSMyGvnwbpizCAgHXsr2zgv4v38M6y/WSmJjKid67IEXApXl64iwse+JQdh+tEY9hN/na6//d8Dts/VjvBB1wBrOjqrS8EgILdKIsHTQvac2Qr5PSGzEJEGEDAaVTUNPPu8v28tHA3kiQxqk+eWGzIJSg92sg1f/uCh97bKJaEjqA+CP5Hh/u/bD2sey2UkLgbeFE0rhAAHbEIpUbA+KA3sGw9dB8GqbnhBUBY0hcCQCA8ahpb+XjtQZ6as5XymiZG980jKy1JNEwU0NDSzmMfbebbf13AxgPVokEcJ/wQ3gC9ToGa/UqxH59qaP854HbR0J0YS8CPJGAWMCNoT2qOMj0wLV+F5K2EAcRjEAiPtOQErpkygJvOHspJAwpEg0QA7V6Z5z7bwe9fX0t5dZNoECfY3vBiP4H/B+xrrITFj0JLrdoHfo6ywl+raHshAEIh2+8NGB20J6sHTP61UitAhAEEooSTBhRw44whXHP6ADJEdUFHMH/9YW77zwrW7zsmGiNSAkCT8HUc294MSx6F2kNqH7YJOA0l50tACABN9AK+AkqC9hQMhok/hYSk0AJAN+kHHisgoB+5GclcM2UA3ztjICcP6iYaxAZ8vrGMP729nk83HBaN4Tj/axC8UW+Atx2WPwVHtql90mFgIrBfNLoQALoNLWAhEDxBu88kGPMd/8JBOqx+4QUQcBjDeuVw1eT+fP/MgfTtnikaxAB8sszs1Qf509vr+Wr7EdEg0bD+LXkDfLDmZShdpvZB9cDpKDO9BIQAMITzUJaGDE6WHHAmjLrSBqtfCAAB+5DgkZgxpiffntSPS07pQ25GsmiUEDh8rInnP9vBv+fvYN+RetEg0RQAVrwBm96BXfPVPsQLXEYXWt5XCAD78WNC1YkeegEMPc8Gq1+IAAH7kZzoYeaYnnxrUj8uPqUP2WIWAS1tXuauPcR/Fuziw5UHaPOK6Xyus/6NeAO2fhBqrj/AT1GWjBcQAsASHgN+obpnxKUwaIZFq18IAAFnkZKUwJmjenDR+N5ccFIJvbt1ndLDbV4fCzaW8b8le3l32T6ONYgkcFcLAL3Jf7s/g41vhfqQhxHT/YQAsAke4DXg26pNOPoq6He6DV4A8TgEIoNx/fO5cHxvzj+phHH98+NuieLKuhbmrC7lo1WlzF17iJpGQfpxZf3vXQjr/xfqQ14FrkOp+CcgBIAtSALeRlk8KLgZx14DfSZbLBIkHolA5JGc6GFUnzzG9stnbL88xvTLZ0y/PHLSYyd/oLy6iUVbKvhiSzkLN5WxcX81PlkWDzemrf8Q/5d+BWteClUJ8H2UMr/toq2FALB9rATeA84NbkkPnHQ99DzJpNUvBICAiwYGCfoXZjGuf74iDPrnM7RnNn27Z0a1NLHXJ7O3op4tB2tYs+coq3dXsWr3UQ5UNoiHFhP8r1HMR484OLwWVv5byfwPxny/gSaWZhQCwDGkA3NQppZ0hicRTv4x9DhBeAEE4hIJHomSggwGFGXSr3smJQUZFOak0is/naLcVApz0shJTyI7LYmUJGOVxpvbvFQ3tFLd0MqR2mYOVDZw6FgTpUcb2F/ZwLaDtewsqxV1+Luq9V+xGZb9I1SJ3y+Bs1Gm/QkIAeAosoFPCVo3AKVA0ISfQveh+qx+TUEgIBC7SElKIDstqdMaBilJHlKTEqhpbAOUOfg1Da00tXppbvOKRutKAsCIN+DINvjq7+BrU7vwWuBMRJU/IQAiiAJgATAqaE9iKky4BboNQUwJFBAQELCQ/Fe5TbH821vULrwBOAOoEm1sHGI1QPNo4pukwM51WH3tcHAF5JRAZlF4q194AQQEBLqYHtD8//jG8o2w/Gnwqs7i2AmcBYjyjUIARAUNKFmnlwJ5nd9dHxxeoywglNVTeAEEBASE9Y+O38et/7J1sOKZUDH/A8A0oFS0rxAA0UQtyhLCVwBZqiIgvbviDRBeAAEBAaEHwlv/B5bCqudBVs0LOYTi9t8jGlMIADegCngHuCjIE4B/6kpyBuT1E14AAQEBYf1rWf97v4B1r4Sa57/Pb/nvEm0rBICbUI1SI+B8lATBzqjYBIkpUDBQeAEEBASE9a/2/465sPGNUGdvQ8n23ysaUggAN6IGeBOYCRQF7T2yWUlmKRwhvAACAgLC+u/4e8fHsPmdUBfbDEwHDop2FQLAzWgAXkeJUZUE7a3a5RcBw4UXQEBAQFj/yMqiPttmhTpzlZ/8y0UjCgEQC2j2ewJOA/qoioCmaigapZQQFl4AAQGBrmj9+9pg9UvK4j7q+AI4Bzgm2lQIgFhCi98TcDIwMGhvzX5FCBSPA0+S8AIICAh0Leu/rVGp7le2NtRZn6PUWakTDSgEQCyiDXgDGAkMD9rbWKnMde0xGpLThBdAQECga1j/jUdhyaNQvTfURT4CLgEaRXsKARDL8ALvAoNRKxvcWgcHV0K3YZCWG9oL8PUvIQIEBATcTv4a1n/VXoX8G4+GusirwNVAq2hPIQDiAT6UOgGgJAd2RnszHFgGOb0gs4fwAggICMS+EFD7fXi14vZvC2nYPwHc5DecBIQAiCssQKlidS7QeVF12at4ApIzIK+/EAECAgIxav2HWOBn13xY/Z9QpX29wM+A+wixMoCAEADxgNXAcpSqgSlBHah8A7Q1QOEoJQQgBICAgEBM6wIfbPgfbP0wFLfXA1eiuP4FhACIe+wC5qFkuGYF7T22B2oPQvFokBKFCBAQEIhN67+9GVb8C/YvDXXiIWAGynQ/gQhDsEh00Qsl23Ws6t6sHjDhp5BVrDFNUEBAQCDa/K9S07++HJY9pRgz6tiIUjp9v2hA4QHoiqgDXvMLgMFBe1vrFeWc1QOyi4UXQEBAwJ3Wf+DvsnXw5ePQVBXqpPkoBX4qRPsJAdCV0YpSMKgIGB+019euJAd6W6H7MKVyoBABAgICbiH/jq5/2QtbPoB1L4O3LdRJz6NM8xNz/IUAEECZJvgRSibsGaqsfnQnHNurFA1KSBYCQEBAwGWmTL0yxW/fYq1x7m7gdv/fAlGGYA/34TzgFSBPdW96Pkz4iX+qoBABAgICLrD+q/fDsr9DQ2Wog6uAa4CPRbsJASCgjT7A26iFBAASkmDMd6HfFCECBAQEokv++7+ENS8pYUp1rAUuB3aLdnMXRAjAnahBmRPbDxgd3Pd8cHgttNRB4UjweIQAEBAQiCy8bUqsf/O7SuxfHS8BlwJHRIMJASCgH20o5YMPA2erPqtje+DQaug2BFKzhQgQEBCIjPVfewiWPAZl60Md1I4S7/+1/28BF0IwRmxgMvAmUKwu45Jg5JUweDqBFYYFBAQE7IMPdi+E9f/VcvkfRKnst1S0lxAAAvagO8p0wTNDHlE0CsbfAKm5orUEBATsRUsdrHoWDq/TOmoR8C2gTDSY+yFCALGDRpSiQbnABNUjGirgwFLIKYHMItFiAgIC9qBsPSx+RMn2D43HgO8CtaLBhAdAwDlcAvwb6BbysfafCmO+468ZICAgIGAC3jbY+AbsnI/GIn1HgBuAD0SDCQEgEBkUoVTUOi/kEdk94ZSbIae3aC0BAQFjqD0Iy/8JNQe0jpoPfA9lUR+BGIMIAcQuGoD/oqwnMBVIDDqipU6pypWYCnkDxAJCAgIC4SH7YOdcWPYPaK4OdVQz8Bvgp/4xSEB4AASihJEo+QGjQx6R2xdOul75LSAgIKCGmlJY/QJU7dI6ajNKVb+1osGEB0Ag+jgCvAhkA6eoCrvmGti3SJm6021oh0WFBAQEujx8Xtg+R3H5Nx4N6RtAyT26HDggGk14AATch5l+MVAc8ojMIjjx+9B9uGgtAYGujsrtsPpFqNMM41cAP0RZtExACAABF6MHSoLguaGfvAT9p8GoKyApTbSYgEBXQ1uTkuG/ewEaGf74Sf+HfhEgIASAQIzgSuCp/2/vXmP7KusAjn/b9b5etnYd3datjLVsUIRKGHIRQUTDxKBixHu8YlCjibxR1Hh5YYwvMIR4AYJvRDQOxSCJIIqgqAM23bBujLGOlXbXrmu73ra2a33xO8sKW/v//0vLevl+kpNzXpzTZr+c7vk9z3me50dsInR6BQug4eOw7BKjJc0V+7ZEAZ/+w+Pd1QF8HbjXgJkAaGaqBO4EPjruXdWXwkUfg4IyIybNVkc7YcsvYc+mVHfeD9wGHDJoJgCa+dYBPwPGXgaQkw9162D1DVFfQNLsMDwEu/4alfsG+8e7czdwK/Ang2YCoNmlCPg2UaFr7BUgheVQ/wGoudKISTPdvi3w/APQO25F3mHgvuT/Btf1mwBoFrucWM5TP+5dlefFdsLuJCjNPN174flfw4HGVHc2ArcAzxo0EwDNDbnEN77vAfljvyFZsPxyuPDDkF9q1KTpbqAHXngYmp6IXf3GNgj8iBgVHDBwJgCae9YQVbyuHz9dKILz3gurroNs94+Spp3hIdj5Z9j+h1Tf+SGW9t0GvGTgTACkdye9gdXj3lVSBRfcDEvf7OsjTQsjsPc/0Lgeeg6kunkb8FXgceMm/wfXq/r5wKeB7zNmqeFE2XJYcyNUrzVq0plycCv877fQ8XKqOzuAHxKjfQ73ywRAYyoHvgN8kdNVGRytohZWvweWNBg16Y1yaAdsewjatqe6c4jYFfRbRM0QyQRAaVlDfBZYl/LOijqov8n6AtJUat8JW38HbS+kc/cTxHB/o4GTCYAm6jrgLiB16764PuoLLFxp1KTJcrgJtj8Sa/pTewn4JvCggZMJgCZDHvB54HZgacrXaklDjAi4h4A0cZ3NsXtfeg3/HmL+zs/xO79MADRFicCngO8yXsnhEyrqYmvhJRf5uknpOrQDdvwR9j1Pikp9EN/27yBG6foNnkwANNXmA59LRgTOSnl32XJY9Q5YcaV1BqTTGR6CvZuj4U89qx+gHfhx0vi7fa9MAPSGKwa+BHwNWJjy7oIyWPl2qH0n5M03etJgPzQ/DTseS1We94Ru4KfAD4AuAygTAJ1pJcSywduB1DWFcwrg7Kug7nooqjB6mnv6DsGuJ+MY7EvniR7gJ8R6/g4DKBMATTeLiIpit6aVCGTNi82Eat8F5ecYPc1+h5tg5+PQuglGjqfzRCdRyvsOYthfMgHQtFYMfJZYh1yT3hjC0ihBvPJqyCs2gpo9Bvuh9dno7Xc2p/vUbuBu4J4kCZBMADSjZAM3AN8ALkvviZyoNbDyGlh8vq+pZq6O3fDyU9CyAYaOpfvUZuBO4FfETn6SCYBmvLcCXwFuAtIrKVhcFXMFzr7KcsSaGQZ6Yc9GaPoLdLWm+9QIsXPfXcAjBlEmAJqtaoEvA7cAhRmNCqy4EqouhKxso6jpY2QE2rZB8z9hzyY4nvY+PAPAb4iJfVsNpEwANFdUAV8APgNUp/1UUQUsWwvVlzpxUGey1YfDu6D1OWjdmO4SvhNaiB377gYOGEuZAGiuygauJbYafh9Rljj9ZGDpxZEQLKrzldbUO7InGvyWDdCTUdt9HHgSuBf4PX7flwmAdMqowCeJzwOrMnryVcnAuUZSU9DoPwM9+zN9eifwQNLjbzGYMgGQUr+b1xLbDb8fyM/o6ZIl8Ylg2VooqzaaylxXS0zma3luIo3+UeAh4D7gKdLY0F8yAZBOtQj4BLGvQH3GTxeWQ9WbYvJg5fmQW2hEdarBfji4FQ40wv7GTL/pn9CY9PTvBw4bVJkASJOnHvgg8CFgTeZvfDYsWAFVDVGyeGGNfwZzWW8b7NscVfcOvRgFeTL3MrF07xfAvw2qTACkNy4Z+AgwsY/++aVQufpkQmCBotlt6Ci0bYd9W2D/fyfaywdoBh4GHgT+YWBlAiCdOWuBm5OEoGZifw3zYkRg0eo4KupMCGa6gV5o3wFtL0YPv7MZRoYn+tN2A+uTw56+TACkafhOX5YkAzcCE98oICsLSquhcg2Ur4KKWihaZISns962KLbTvjMa/COtsUnPxDUlPf31wHM4mU8mANKMcS6wLjneRro7D44lvzQSgfJzIilYUAO5RUb5TBjsix794SZob4rzsSOv96f2E7P2HwUeA14y0DIBkGa+QuCaJBm4HqiblJ86vzImFpbVxHnBilh5oMnT1x7L8jqbofMV6HolevuTY0fS4D8K/D1JAiQTAGkWq00SgXVJYjB5XfncwihvXLoMSpNzydJIDLL8szutkZGYlNe9NzbeOZKcu/fGEr3J00vsyHeil7/L4MsEQJq78oFLgauBq4ArgOJJ/y3ZOTB/MRQvhuKz4np+ZexiWFQBOQWzO8pDR6M339cePfieA9B7MDm3TXQZXirdwL+S3v3fgI1EER7JBEDSKXKAS4gSxlcAbwGWTvlvzS2KUYKiCigqjzkH+SVQUAb5ZXGdXwJ5xdMrWgM9cKw7ObrgaFdcH+2C/o5o8PvbJ7snP5ZW4BlgA/A0sBn33ZdMAKTXYTmxwuCyZLSgYUpGCTJJFnKLIK/o5PW8XMgpjPO8vBhRyMqGnPwYfRhtXl6cX1u6dngIho7ByPE4Hx+A44Mw1B/nwb44BvpOXp853cAWYob+hqTh3+OrKpkASFMpm5hH0ABcnJwbgLMMzZTYnzT2W5Je/WZimd6woZFMAKTpoAK4ADhv1LnexCCjhn5bcmwddW43NJIJgDQTlRIljmtfc64BlgF5cyQOA8QwfTNRKrcpOZ+47vZVkUwApLkiG6gCVgDVo47K5FgCLE6uc6fpv2EQOAi0AfuScxsxKa8VaAFeSXr47qgnmQBIytCC5Fh4muvc5DoHKAEKOLn74ejrsfQTtexHX3cTs+g7kka+M7nuPM21JEmSJEmSJEmSJEmSJEmSJEmSJEmSJEmSJEmSJEmSpFP8H6a/C8l5+4jwAAAAJXRFWHRkYXRlOmNyZWF0ZQAyMDI0LTA3LTExVDExOjQ1OjA1KzAwOjAwd5yL+QAAACV0RVh0ZGF0ZTptb2RpZnkAMjAyNC0wNy0xMVQxMTo0NTowNSswMDowMAbBM0UAAAAASUVORK5CYII=;" parent="1" vertex="1">
          <mxGeometry x="430" y="-481.1" width="40.91" height="40.91" as="geometry" />
        </mxCell>
        <mxCell id="xmqwyPmPtyzJupy3q7Km-18" value="" style="shape=image;verticalLabelPosition=bottom;labelBackgroundColor=default;verticalAlign=top;aspect=fixed;imageAspect=0;image=data:image/svg+xml,PHN2ZyB4bWxucz0iaHR0cDovL3d3dy53My5vcmcvMjAwMC9zdmciIHdpZHRoPSIxMTQuNTYwNTQiIGhlaWdodD0iMTIyLjgzMzk5IiB2aWV3Qm94PSIwIDAgMzAuMzEwODEgMzIuNDk5ODI4IiB2ZXJzaW9uPSIxLjEiIGlkPSJzdmc4Ij4mI3hhOyAgPGRlZnMgaWQ9ImRlZnMyIi8+JiN4YTsgIDxtZXRhZGF0YSBpZD0ibWV0YWRhdGE1Ij4mI3hhOyAgICAmI3hhOyAgICAgICYjeGE7ICAgICAgICBpbWFnZS9zdmcreG1sJiN4YTsgICAgICAgICYjeGE7ICAgICAgICAmI3hhOyAgICAgICYjeGE7ICAgICYjeGE7ICA8L21ldGFkYXRhPiYjeGE7ICA8ZyBpZD0ibGF5ZXIxIiB0cmFuc2Zvcm09InRyYW5zbGF0ZSgtNzcuOTQyNTI5LC0xNzcuMDAwMDUpIj4mI3hhOyAgICA8ZyBpZD0iZzQ1NTAiPiYjeGE7ICAgICAgPHBhdGggaWQ9InBhdGg0NTA4IiB0cmFuc2Zvcm09InNjYWxlKDAuMjY0NTgzMzMpIiBkPSJtIDM2MC4wNDg4Myw2ODcuODczMDUgdiAxOC44OTg0MyBsIDMyLjczMDQ3LDE4Ljg5ODQ0IHYgLTE4Ljg5ODQ0IHogbSAtNjUuNDYyODksMTguODk4NDMgdiAxOC44OTg0NCBsIDE2LjM2NTIzLDkuNDQ3MjcgViA3MTYuMjIwNyBaIG0gNDkuMDk1Nyw5LjQ0OTIyIC0xNi4zNjUyMyw5LjQ0OTIyIHYgNTYuNjkxNDEgbCAxNi4zNjUyMyw5LjQ0OTIyIHYgLTM3Ljc5NDkzIGwgMTYuMzY3MTksOS40NDkyMiB2IC0xOC44OTg0MyBsIC0xNi4zNjcxOSwtOS40NDkyMiB6IiBzdHlsZT0iZmlsbDojZTU1YjJkO2ZpbGwtb3BhY2l0eToxIi8+JiN4YTsgICAgICA8cGF0aCBpZD0icGF0aDQ0OTEiIHRyYW5zZm9ybT0ic2NhbGUoMC4yNjQ1ODMzMykiIGQ9Im0gMzYwLjA0ODgzLDY4Ny44NzMwNSAtNDkuMDk3NjYsMjguMzQ3NjUgdiAxOC44OTY0OSBsIDMyLjczMDQ3LC0xOC44OTY0OSB2IDE4Ljg5NjQ5IGwgMTYuMzY3MTksLTkuNDQ3MjcgeiBtIDQ5LjA5NzY1LDkuNDQ5MjIgLTE2LjM2NzE4LDkuNDQ5MjEgdiAxOC44OTg0NCBsIDE2LjM2NzE4LC05LjQ0OTIyIHogbSAtMzIuNzMyNDIsMzcuNzk0OTIgLTE2LjM2NTIzLDkuNDQ5MjIgdiAxOC44OTg0MyBsIDE2LjM2NTIzLC05LjQ0OTIyIHogbSAtMTYuMzY1MjMsMjguMzQ3NjUgLTE2LjM2NzE5LC05LjQ0OTIyIHYgMzcuNzk0OTMgbCAxNi4zNjcxOSwtOS40NDkyMiB6IiBzdHlsZT0iZmlsbDojZWQ4ZTI0O2ZpbGwtb3BhY2l0eToxIi8+JiN4YTsgICAgICA8cGF0aCBpZD0icGF0aDQ1MDYiIHRyYW5zZm9ybT0ic2NhbGUoMC4yNjQ1ODMzMykiIGQ9Im0gMzYwLjA0ODgzLDY2OC45NzY1NiAtNjUuNDYyODksMzcuNzk0OTIgMTYuMzY1MjMsOS40NDkyMiA0OS4wOTc2NiwtMjguMzQ3NjUgMzIuNzMwNDcsMTguODk4NDMgMTYuMzY3MTgsLTkuNDQ5MjEgeiBtIDAsNTYuNjkzMzYgLTE2LjM2NzE5LDkuNDQ3MjcgMTYuMzY3MTksOS40NDkyMiAxNi4zNjUyMywtOS40NDkyMiB6IiBzdHlsZT0iZmlsbDojZjhiZjNjO2ZpbGwtb3BhY2l0eToxIi8+JiN4YTsgICAgPC9nPiYjeGE7ICA8L2c+JiN4YTs8L3N2Zz4=;" parent="1" vertex="1">
          <mxGeometry x="581" y="-448.97999999999996" width="40.2" height="43" as="geometry" />
        </mxCell>
        <mxCell id="xmqwyPmPtyzJupy3q7Km-20" value="" style="shape=image;verticalLabelPosition=bottom;labelBackgroundColor=default;verticalAlign=top;aspect=fixed;imageAspect=0;image=data:image/svg+xml,PHN2ZyB4bWxuczp4bGluaz0iaHR0cDovL3d3dy53My5vcmcvMTk5OS94bGluayIgeG1sbnM9Imh0dHA6Ly93d3cudzMub3JnLzIwMDAvc3ZnIiB4bWw6c3BhY2U9InByZXNlcnZlIiB2aWV3Qm94PSIwLjYgMTA2Ny45IDkwLjMgMTA5LjEiIHk9IjBweCIgeD0iMHB4IiBpZD0iTGF5ZXJfMSIgdmVyc2lvbj0iMS4xIj4mI3hhOzxnPiYjeGE7CTxwYXRoIGQ9Ik03Ny42LDEwOTkuNmwtOC4xLDguMWMxMy4zLDEzLjMsMTMuMywzNC43LDAsNDcuOGMtMTMuMywxMy4zLTM0LjcsMTMuMy00Ny44LDAmIzEwOyYjOTsmIzk7Yy0xMy4zLTEzLjMtMTMuMy0zNC43LDAtNDcuOGwwLDBsMjEuMS0yMS4xbDMtM2wwLDB2LTE1LjlsLTMxLjgsMzEuOGMtMTcuNywxNy43LTE3LjcsNDYuMywwLDY0YzE3LjcsMTcuNyw0Ni4zLDE3LjcsNjMuNywwJiMxMDsmIzk7JiM5O0M5NS4zLDExNDUuOCw5NS4zLDExMTcuNCw3Ny42LDEwOTkuNnoiIGZpbGw9IiNFRTRDMkMiLz4mI3hhOwk8Y2lyY2xlIHI9IjUuOSIgY3k9IjEwOTEuOCIgY3g9IjYxLjciIGZpbGw9IiNFRTRDMkMiLz4mI3hhOzwvZz4mI3hhOzwvc3ZnPg==;" parent="1" vertex="1">
          <mxGeometry x="463" y="-403.7" width="50.83" height="61.54" as="geometry" />
        </mxCell>
        <mxCell id="xmqwyPmPtyzJupy3q7Km-24" value="" style="shape=image;verticalLabelPosition=bottom;labelBackgroundColor=default;verticalAlign=top;aspect=fixed;imageAspect=0;image=data:image/png,iVBORw0KGgoAAAANSUhEUgAAAgAAAAIACAYAAAD0eNT6AAAAGXRFWHRTb2Z0d2FyZQBBZG9iZSBJbWFnZVJlYWR5ccllPAAAAyhpVFh0WE1MOmNvbS5hZG9iZS54bXAAAAAAADw/eHBhY2tldCBiZWdpbj0i77u/IiBpZD0iVzVNME1wQ2VoaUh6cmVTek5UY3prYzlkIj8+IDx4OnhtcG1ldGEgeG1sbnM6eD0iYWRvYmU6bnM6bWV0YS8iIHg6eG1wdGs9IkFkb2JlIFhNUCBDb3JlIDUuNi1jMTExIDc5LjE1ODMyNSwgMjAxNS8wOS8xMC0wMToxMDoyMCAgICAgICAgIj4gPHJkZjpSREYgeG1sbnM6cmRmPSJodHRwOi8vd3d3LnczLm9yZy8xOTk5LzAyLzIyLXJkZi1zeW50YXgtbnMjIj4gPHJkZjpEZXNjcmlwdGlvbiByZGY6YWJvdXQ9IiIgeG1sbnM6eG1wPSJodHRwOi8vbnMuYWRvYmUuY29tL3hhcC8xLjAvIiB4bWxuczp4bXBNTT0iaHR0cDovL25zLmFkb2JlLmNvbS94YXAvMS4wL21tLyIgeG1sbnM6c3RSZWY9Imh0dHA6Ly9ucy5hZG9iZS5jb20veGFwLzEuMC9zVHlwZS9SZXNvdXJjZVJlZiMiIHhtcDpDcmVhdG9yVG9vbD0iQWRvYmUgUGhvdG9zaG9wIENDIDIwMTUgKE1hY2ludG9zaCkiIHhtcE1NOkluc3RhbmNlSUQ9InhtcC5paWQ6Q0ExNUQ3RkQ5QTRDMTFFNkI3QTVBNUM4NjYyNkU4NTQiIHhtcE1NOkRvY3VtZW50SUQ9InhtcC5kaWQ6Q0ExNUQ3RkU5QTRDMTFFNkI3QTVBNUM4NjYyNkU4NTQiPiA8eG1wTU06RGVyaXZlZEZyb20gc3RSZWY6aW5zdGFuY2VJRD0ieG1wLmlpZDpDQTE1RDdGQjlBNEMxMUU2QjdBNUE1Qzg2NjI2RTg1NCIgc3RSZWY6ZG9jdW1lbnRJRD0ieG1wLmRpZDpDQTE1RDdGQzlBNEMxMUU2QjdBNUE1Qzg2NjI2RTg1NCIvPiA8L3JkZjpEZXNjcmlwdGlvbj4gPC9yZGY6UkRGPiA8L3g6eG1wbWV0YT4gPD94cGFja2V0IGVuZD0iciI/PuTO0+EAAB5ASURBVHja7N0LcF13fSfwc9+60rWefr8jhyTGMUkGCBTCFsKr426XQmHbxCosxWUDw27pwHZISqGwLZuFsGRKZza0AVrWhU4ZxzTTZmhnmZB1ePVNHJMQYk8ICSEhL8ey9bqP/R9Zoia1FUmRpavz/3yYX64sy1jn9/fV/3v+55VrtVoJABCXnAAAAAIAACAAAAACAAAgAAAAAgAAIAAAAAIAACAAAAACAAAgAAAAAgAAIAAAAAIAACAAAAACAAAgAAAAAgAACAAAgAAAAAgAAIAAAAAIAACAAAAACAAAgAAAAAgAAIAAAAAIAACAAAAACAAAgAAAAAgAAIAAAAAIAAAgAAAAAgAAIAAAAAIAACAAAAACAAAgAAAAAgAAIAAAAAIAACAAAAACAAAgAAAAAgAAIAAAAAIAACAAAIAAAAAIAACAAAAACAAAgAAAAAgAAIAAAAAIAACAAAAACAAAgAAAAAgAAIAAAAAIAACAAAAACAAAgAAAAAKALgCAAAAACAAAgAAAAAgAAIAAAAAIAACAAAAACAAAgAAAAAgAAIAAAAAIAACAAAAACAAAgAAAAAgAACAACAAAIAAAAAIAACAAAAACAAAgAAAAAgAAIAAAAAIAACAAAAACAAAgAAAAAgAAIAAAAAIAACAAAAACAAAgAACAAAAACAAAgAAAAAgAAIAAAAAIAACAAAAACAAAgAAAAAgAAIAAAAAIAACAAAAACAAAgAAAAAgAAIAAAAACAAAgAAAAAgAAIAAAAAIAACAAAAACAAAgAAAAAgAAIAAAAAIAACAAAAACAAAgAAAAAgAAIAAAAAIAAAgAAIAAAAAIAACAAAAACAAAgAAAAAgAAIAAAAAIAACAAAAACAAAgAAAAAgAAIAAAAAIAADAMwSAXC6nE2fJLUf2FMLLhlBbQw2G2hxqTaj+UAOnVE86HqE6QlV0DmD5yueKSblQfbRc7HysUqwdDx9PFPLlfCFfKhVyxUoul++arCQpT03HK075441Qw6EeCnVPqLtC3R7qwLba0NGF+P4m534BYEEn+nNDPW+qdk5VOuEXdQggmxN9tdT9o2qp55FquadeKXTVCvni2jChd5+Fv64Z6rZQnwu1L4SBYwLA0kz4veHlZ0JdFuoloV4UqqozAFmVSyrFzrFaeeD7XZWBsbBnvzKfK6xbom8mXQm4IdR1IQg8KgCc3Qm/PDXZ7wr1mlAXJieX7AHIqFKhI1lRWfWD7o41J8rFrg25JFdrs2/xeKgPhbo+BIEJAWDhJv302PwvTU36rwxV0xWAbKuWeuq91fX3d5X7Owr50vpl8m0fCnVFCAEHBYD5T/rpyXmvD/WmqUnf8XuAzE/63a2e6voHw95+Vz5X6FummzEa6l0hBHxaAJj9pJ+ewPfaUG8P9fMmfYDsK+YrSdjTf6qvc0Mznyv2ZmjTrg11TQgCLQHgzBP/lvDy1lBvC7XR2wEg23Lhf12V/qS/c/OPq6WelUl2z+VKTxB855lCQDr3R7mnGyb+F4eX94R6Q6i8twRAtuVzhXRvvxkm/pFCvtQVPrUq45t8VagnQ119xjAUywpAmPTTif4/hHpvqJd6OwBkX7rM39e5sd5X3dDM5fLlCFuw53TnBERxCCBM/OnG/XKoD4Ta7u0AEMfEP9C1pdlbTS/Tz8W80pueGHjp068OyHQAmJr4Xxfqg6Eu9nYAiGHiL6fH95Pezg2NXJIr6Mik9BLBS069T0BmzwEIk396w57rQz3fuANkX3qMP534+zs3pUv96R6/yf9f7Qj17lAfO/WTmVoBCBN/et/9jyYnl/wBiEB3x9pkVW2wGfb+ndR9ZukdA7dO3zY4MysAYeJP78Gfnun435KTT9MDIOOqpe5kde05SUdp8kF6Jv+ZpVc+pCfBvy8zKwBh8r88vHwqOfkkPgAyLl3uX1kbTPqqGzRjbtIHCG1KnyK4rFcApp7G9/FQv2ZMASLZjS0PJGtXnJcUCxXNmLue5OTzbf5kMkgt08n/F8LL3SZ/gFj2+ovJuu7tycbenSb/Z+fN0x8sq0MAYeLvDC/XhXqHMQSIQ7XUMzn5p4/m5Vlrhuof7Np9dNkcAgiT/yXh5fOhLjB+ANmX3rd/oHZOMtC5KcnuLfsXXbry/7JQf7UsDgGEyf9d4eWbJn+AOKTL/Jv7LgmT/2aT/8K7bLLHbT7xp5f3pWf4/6rxAohDZ7k3Wd+9IynkS5pxdmxv6wAQJv/B8HJTqIuMFUAc+js3pTf1sdd/dp3XtgEgTP6vCC/7QvUZJ4Dsy+XyyboVFyQrOlZrxtm3ri0DQJj800sUbgxl7QcgAulS/4aeCyfP9mdR1NoqAEw9vS99ZO/vGhuAOJQL1WRD7/MmX1m8zNU2ASBM/uk38+lQbzEuAHHoKHUnG3t2Otlv8TXaIgCEyb8cXr4Q6g3GBCAOneW+ZEPPjsk7/LHohpc8AEzd2e+LoXYZD4A4dJX7J4/5pyf+sSQeWtIAMDX5/1WoVxgLgDjUKiuT9WHPP+cyv6V0T/qfJYlfJn8Akz9L5q4lCQBTx/y/aPIHiEd6zH9993NN/u3h9kUPAFNn+6cn/DnmDxCJ9Pr+9Gx/x/zbQvo0wAPpB4v2OOCp6/w/m7jUDyAalWIt2dx3sbP928et22pDl6dz/2LGsQ+Y/AHiUcxXko29O03+7eVz0x8sygrA1O19/1TfAeKQzxUmH+ebrgDQNo6G2rStNnRsUVYAph7sc6O+A8QiN3m2v8m/7dyQTv6LsgIw9Ujff0g81Q8gGqtr5yZ9nRs1or0cD7U1BIBH01+c1RWAMPmnT3a4yeQPEI/ujtUm//b0oenJf9rZPATwqVAX6TlAHCrFrmTNivM1ov0cCnX90z95Vg4BhL3/d4WXT+o5QBzSM/239j8/KXmsb7sZDXVp2Ps/eOonJ+f+hQ4AYfK/JLx8M1RZ3wHikJ70t6KySiPaz54w+X/66Z9c8AAwdY//fwx1gZ4DxKGnY22yttuP/TZ0bZj8rz7db5yNkwCvM/kDxCNd8l+94jka0X5uCHXNTF+wYCsAYe//F8LLzXoOEIf0wT7pzX46St2a0WZ7/unkH/b+W2f6ggU7BBAm/97wcneoNfoOEIf+zs3JqtqgRrSP9IS/d53umP/pAsBC3aD54yZ/gHiUC9VkZddWjWgf6aV+Vzz9bP+ZPOsVgLD3f3l4+YreA8RjU+/FSWe5VyOW3nCoD4e6Pkz+E7P9Q8/6EMDU3f7uCHWuMQCIQ091XbLWDX+WWvpgn/REv+uefoe/2QaAZ3sI4GqTP0A8CvlSsrq2TSOWRjPUbcnJR/ruO/XBPvMx7xWAsPe/Obx8N1SHMQGIw5oVz0l6qxs04uxqJCeX9h8KdU+ou0LdHupAmPSPLsRf8KxWAE4cGz7QmKib/AEiUa10Jz2r12vE/Pfevxfq4NTrfaHuD/XYVD0+9XWjYZIfXYxvaF4BYP+hoV8fHxndbDwB4rFp9c7Ja/+ZlXQSv22qvhbq78PEPtJO3+CcDwHccmRP7sRTx55q1Bs14wsQh57a2uQ5G1+sETN7It1HDrUv1K3tNuGfal6HAMZOjHzY5A8Qlw0rt2vCGebSUF8Old585+a5XIq3rFYA9h8aytfHJ4abjYbnPQJEonfFuuTcDS/SiJ92PNRnQ30iTPpHll1qmfMKQKv1UZM/QExyYe//udrw0xP/HybzvP5+Wa4A3Hz3WwpjI6Pp3r8z/wEi0d+9MRlc/wKNOLnU/8ehfidM/I8s+42ZywpAo17/gMkfIC5rBzzqN/hWqKvCxP8vWdqo/Gy/sD5Rf7d/AwDx6O5alXRWemJuwYlQ6dz3kqxN/qlZrQDsv3P3W8dHxzzwGSAia/qjvtP7P4baHSb+72Z1A2e1AtBoNH7XWwEgHpN3/euK9invnwz1M1me/Ge1AvClQ0OXjrnrH0Bce/99UT7wJ71736+HiX9vDBv7jAEg7P1f660AEI9Cvpj0d0f3wJ/0kr7Xhcn/67Fs8IyXAf7lXW8uhb3/kVazWfCWAIjDqt6tyZa1F8e0yfeFenWY/O+NZYOf8TLAsPd/tckfIC4re7fEtLmHQ708TP4PxDbOM54E2Gw03u6tABCP9LK/ro4+k3/MAeBL3xna2qg3Nng7AMRjoGdTLJv6YKhXxjr5zxgAmo3mB5NWy7sBICJ9K6LY73sq1K4w+X8/5rGeIQA0/r23AkA8uqr9SbmU+ee9NUP9xzD53xH7eJ82AOw/NHRuo95Y6e0AEI/+Fetj2MxrwuT/N0b7DAGg1Wz+jtYARBYAujdmfRP3h/qokZ4hADQbzddoDUA8Ojt6klIx0w98/WGoPWHv38ltZwoA+w8N1ZqNxhqtAYhHBPf9f0uY/B830jMEgFazdVWr1cppDYAAkBGfCZP//zXKzxQAWs1f1haAeBQKpaSrsz+rm/dIqPcY5VkEgGajuUNbAOLR3bkyySWZXfj97bD3/6RRfoYAsP/Ooa3NRqOqLQDxqFUze9X3v4T6jBGeRQBotZpv1RKAyAJAdpf/rw57/00jPKsA0Hq1lgBENAnkC0lnpTeLm/atMPl/2QjPNgA0m9u1BCAe6ZP/crlMHv//PaM7ywCw/9BQudlo9moJQEQBoJrJ5f/vhvprozvbFYBW65UtT/8DiEpnpTuLm/UH7vg3hwAQJv/XagdAXKqVnqxt0kioPzOycwsAL9QOgHjkcvmko1LL2mZ9Mez9HzW6cwkAzdagdgDEtPe/Ios3APqCkZ1zAGgOaAdATAEgc8f/nwj1FSM7hwBw08ErO5rNZkk7AOJRKXVlbZNu2VYbmjCyc1kByOUu1QqAuJRLnVnbJDf+mXMAaCXP1wqA2FYAMhcAPPJ3zgEgaXkCIIAVgOXs3m21oR8Z1TkGgFbLFQAA8QWATD389etGdD4rAK1klVYAxKNYKGftEsB/NqrzWwHo0QqAuAJAxnzbqM4vANS0AkAAWMa+Y1TnEQBCBOjQCgABYJka2VYbetiozmsFIHETIAABYLn6vhGd7wpAq1XQCoB4FPKZ2u/7oRGd9wpAK6cVABHJ1k/9xwzofFcAAIhr/s9l6sf/E0ZUAABgNj/8c5k68jtiRAUAAGAWiul/an3uAwQQk3LV1d8CQJIeC3IOIEBM/NRn+hDAmFYAxKPZamZpczqN6PwDwKhWAMSjlWQqAPQa0fkHAABYrga0YP4B4EmtAIhHs1nP0uasN6LzDwDuogQQkUZrIkubs8WICgAAzCYAZGsFoHp4eO9aoyoAAPCMAWAia5u03ajOLwA8rhUAEQWAVuYCwEVGdX4B4GGtAIhtBaCVpU26xKjOLwDcrxUAcZloZOoecC8xovMLAEe0AiC2AJCpe8Cd60TA+QWA+7QCILIA0MzcTWBfZVTnHgAeDFXXDgArAMvYzxnVOQaAXYM3NhLnAQBEFgBGsrZJuw4P7y0Z2bmtAKQOagdAPMbqx7O2SX2hXmlkBQAAZjDeOJFk7FLA1BVGdu4B4A7tAIhHq9VMxuonsrZZbzo8vLfH6AoAAMy0CpC9wwDVULuN7NwCwL2hRrQEIB6j9eEsbtZ/PTy8N2d0ZxkApq4E+JaWAEQUACaeyuJmnR/q543u7FcAUl/XEoCYVgCOJa3snQiYer/RnVsAuF1LAOLRbDWSsYljWdy0Fx0e3uvGQHMIAN9IkmxGQQBObySbhwFS/yOEgLwRnkUA2DV445Ph5U5tAYjHiYkns7ppF4d6mxGe3QpA6m+1BSCiADCeBoDMLv7+3uHhvb1GeXYB4BZtAYhHs1XP8mGA1aE+bpRnFwDSEwGHtQYgHsfHHsvy5v3a4eG9HhX8TAFg1+CN4+HlK1oDEI/h8cezvol/GkLAgJGeeQUg5TAAQETG6sNJvTmW5U1cH+qP3SHwmQPAvlB17QGIx7HRR7K+ia8P9VtGeoYAsGvwxvRgkMMAADEFgLEfx7CZHzk8vPe1RvvMKwCpL2oPQDzSKwHqjbGsb2Y67/1FCAHPEwDObH/iMABAZKsAj8Swmd2hbgkhYIsAcBq7Bm9MTwn9a28HgHgcHX04lk3dEOorIQRsFABO74+8HQDikV4NMJrNhwOdzrZQX401BDxTAPibUA94SwDE48nRH8a0uWkIOBBCwLkCwCl2Dd7YCC+f9nYAiEd6OWD6mOCIbA31jRACXiIA/LTPhGp6SwDEIZ38I7gnwNOtTE6eEzAUywbnWq1WksvNfGOkW47sSS8JfKO3BUAcKsWuZGv/C2Pd/E+Ges+22tBEVjcwnfvzs/xaT1ICiMhY/XhyPPvPBziT/5KcPCRwfvQrAFOrAOlTAl/qbQEQh85yX7Kp96KYW3Ai1DXpisC22lCmDoXPZQUgdZ23A0BEs9/4E5OXBcacgUJdH+rrh4f3Xpy1jZtLALg51F3eEgDxeOzE/ZqQJC8K9U8hBHwq1OqsbNSsDwGkbjmy51fCyxf8WwCIRS7Z2v+CyZMCmXQ81B+Gum5bbejR5boRk3P/HANA+oX/FOpi/wYA4lCrrEw29FyoEf82CHw21CdCEDiS+QAwFQJ+MTn5oCAAInFyFaCmEaeZS0N9OTl507ybl8ulg/MNAOkX/32o5xt3gFhWAQaSDT07NWJmT0ztIO8LdWsIAyOZCgBTIeCy8HLAWAPEI70kML00kFkZDXXbVH0t3XFup0Aw7wAwGQIOv+0vWknyJmMMEIf0RMBzBtK7A+Y0Y+7S+wh8L9TBqdf7QqWXWDw2VenqQXo4YTQEhdG2DgD7Dw29eGJ07BvpnwcgDpvXXJSs7jtHI86u9ElM6Q0YHgp1T3LyEvz0ZnwHQjg4uuQBIHXTwSu/MjE2frmxAohDsVBOdg6+OikUSpqxNKsI6SGFz4XaF8LAsSULAH9515t7xkdGH2k2m2XjAhCHlb1bkq1rL9GIpZWuBNyQzPN+BM86AKT237n7N8dHx/6XsQCIx/mbL0tWdK7UiKWXHir4cKjr53IJ4oIEgNS+b19xV31i4gLjABCHjnIt2XHO5WH+yGtGezgU6ooQAg7ONgAsyMgVioXX5PL5pv4DxGF0fDh58NG7NaJ97Aj1d4eH975ttn9gQVYAUvvv3P3+8dGx/24MAOKQzh0XbP53SVfVvQHazLWhrtlWG2rNtAKwYAEgte+OK+6oj0+4VRRAJCqlrmTHOa9I8vmiZrSX9ATBd54pBCzYIYBphULhFflCfkzfAeIwNnE8uf/hOzSi/VwV6iMzfcGCBoBf3LH3sWK5PJTk3CUKIBaPHr0/eeLYgxrRft430zkBC3oIYNpNB6/8/MTY+BV6DxCH9MZAz9368slDArSV9LbClz796oAFPwfgVPu+/Sv31ifq2/QeIA7VSneyfcvPJvl8QTPaS3qJ4CWn3idgwc8B+Kk0WCq+MF8ojOg7QBxGxp5K7vvRP2tE+0kvEXz30z951lYAUvsPDb1sYnTstvB3OCkAIBKb1uxM1vRZAG4zx0Ntnb5t8FldAUi9fsfeA6VK+Tf0HSAeDzx8Z3L0+MMa0V7SkzPeu2grANNuOnjl/54YG79K/wHiUMgXk/O3vCzprPRoRvtIHyC0KX2K4FlfAZj2hp2ff0exXLpV7wHi0GjWk3t/8I1kvD6qGe0jTWO/NP2LRXuKQ7XW9coQAtw4GiAS6eR/7wPfmAwDtI03T3+wKIcApu0/NFRu1OtHGhP1DcYAIA61an9y3uaXJvmcywPbQPrgvv7Brt1HF/U5jq/fsXe8UCxeEOoRYwAQh+GRx5Pv/eCbSavlobFtIJ33Xzb9waIKIWC4VCmFEFB4wjgAxOHYiR8nhx/8OyGgPVy2JAEg9brt/+eJQql0nhAAEI8nh38kBLSH7UsWAKZWAh4tVSqDDgcAxBUC7n3gW0mz1dCMpXPekgaAkysBn3uyUCpuC+UxUgCRSG8SlJ4T4OqAJbNuyQPA1ErAcKFYHCyWS981JgBxSM8JuOcHX0vqjXHNWHy1tggAUyFgvFrr2h5CwFeNC0Acjo88kdz9/f+XjI4Pa8bimrwec1HvAzAbNx288oaJsfH/bHwA4lAslJNzN74oqVUHNGNxNAa7dhfz7fZdvWHn568qd1R+I4SSljECyL70MMA99389efypBzRjcUwuueTb8Tt7/YV/9geljsrP5guFEeMEkH3pVQFHfvgPyQOP3Bl+Zf/vLHuobQPAZAjYsfdAsVzaVCgVjxgrgDj86PF7k+/en54cOKYZZ889bR0ApkLAY2+86M+3lSrlLyRtdJ4CAGfPsROPJt+576uTJwlyVtzV9gFg2ht2fv7KcqV8RT6fd70IQATGJ0aSu+8/kDz0WLqz6pDAArs9/U/bXQUwk/2HhlY2641b6xMTFxo/gDjUOgeSwXUvSMqlqmY8ez95GuCyCgA/CQJ37v7QxPjE+1vNZt5YAmRfoVBKtqy5KOnv3qgZz86t22pDl0/O/csxAEytBmxp1ht/W5+YOM94AsShp7YmBIGLrQbM31tDAPiTZR0Apt10cPd7GxMTH2k2myXjChDBakC+mGxY9dxkdd+gZszN0VCbQgA4lokAkPrSd361t1Fv7K9PTLw8aTlZBCAGXdX+ZPOanUlXR59mzM7/DJP/+9IPMhMApu2/c/dLGo3Gnzcm6puMM0AcBno2JRtX7UhKxQ7NOLPjobaGAPBoJgPAKUHgHfWJ+seajUaXMQfIvny+mKwbeE6ypv/cJJ8raMi/9Vth8v/Y9C8yGwBStxzZkxs9PvL7jfrEbzYbTbEQIALpKsDaEARW9W4VBP7VoVCXhAAwEUUAmLbvjisKYfs+0ajX3x6CQMW/A4DsKxerybqV5ycrezaHOS7qK8ZHQ10aJv+Dp34yigAw7ea731KoT9R/PwSBdzYbjRXeHgBxBIHV/YOTKwKFfJQXi+0Jk/+nn/7JqALAqfbfuXtPo974YAgD7igBEIH00sGVIQSs6dsW0z0Erg2T/9Wn+41oA8BPgsChoRc3G41rQxC4rNVsOVgEkHHpfNfTtWZyRSC9qVD4TFY39YZQ7wwBoCUAzLwiUAl9uKbZaO4JYWC9twhA9pWLHclA75Y0DDTKxWqWdgKvDXXNmSZ/AeDMqwKDrUbzQ81mY1ej3ujXEYDsS28q1N+9oTXQvXG8WKgs1xPG0xP+3nW6Y/4CwNxXBi4I/fntZqP5qmajsbblLoMAmVerDiR93evrfbV1Y+VS53K5n0x6qd8VTz/bXwBYmDDQHXr1jlBvDIHgwhAI3FsAIOPSEwZ7a2ubfSvWD3dVB8r5XL7dfvand/j7UKjrT73OXwA4u4HgnNC7/xTq1SEQbG81m71WCACyLJdUK7Wku2vVWHfX6uGujv5CsVDuXaJvJn2wT3qi33XTt/edCwFgIQPBoaFy6OirQj9fE+rSVrN1TggFA55SCJBdhUIp6erobXZVe493VfuPd5Z7klKxWgvzau0s/HXNULeF+lyofelT/eb7fyQALIKbDl7ZERp8adJKnh9aviP0ezB8vCq89oQK/0BaHWEISmE0CuHXBgIgC8EgX0wqla5mR3nFWEelNlIpdo6VipV6sVBphsqH3y/lc4WOJMmVklwSfvj/VGBohBoO9VCoe0LdFer2UAfCpH90Ib6/nwQAACAuAgAACAAAgAAAAAgAAIAAAAAIAACAAAAACAAAgAAAAAgAAIAAAAAIAACAAAAACAAAgAAAAAgAAIAAAAAIAAAgAAAAAgAAIAAAAAIAACAAAAACAAAgAAAAAgAAIAAAAAIAACAAAAACAAAgAAAAAgAAIAAAAAIAACAAAIAAAAAIAACAAAAACAAAgAAAAAgAAIAAAAAIAACAAAAACAAAgAAAAAgAAIAAAAAIAACAAAAACAAAgAAAAAIAACAAAAACAAAgAAAAAgAAIAAAAAIAACAAAAACAAAgAAAAAgAAIAAAAAIAACAAAAACAAAgAAAAAgAACAACAAAIAACAAAAACAAAgAAAAAgAAIAAAAAIAACAAAAACAAAgAAAAAgAAIAAAAAIAACAAAAACAAAgAAAAAgAACAAAAACAAAgAAAAAgAAIAAAAAIAACAAAAACAAAgAAAAAgAAIAAAAAIAACAAAAACAAAgAAAAAgAAIAAAgAAAAAgAAIAAAAAIAACAAAAACAAAgAAAAAgAAIAAAAAIAACAAAAACAAAgAAAAAgAAIAAAAAIAACAAAAAAgAAIAAAAAIAACAAAAACAAAgAAAAAgAAIAAAAAIAACAAAAACAAAgAAAAAgAAIAAAAAIAACAAAAACAAAIAACAAAAACAAAgAAAAAgAAIAAAAAIAACAAAAACAAAgAAAAAgAAIAAAAAIAACAAAAACAAAwAz+vwADAJ3WjsZxJ49mAAAAAElFTkSuQmCC;" parent="1" vertex="1">
          <mxGeometry x="582.2" y="-367" width="38" height="38" as="geometry" />
        </mxCell>
        <mxCell id="xmqwyPmPtyzJupy3q7Km-7" value="" style="shape=image;verticalLabelPosition=bottom;labelBackgroundColor=default;verticalAlign=top;aspect=fixed;imageAspect=0;image=data:image/png,iVBORw0KGgoAAAANSUhEUgAAAOEAAADhCAMAAAAJbSJIAAABVlBMVEX/////hDP/1jNmZmbU1NScnJzW/1uS/5L1zSp3d3doaGjhuBX/hjRvb2+J9Yn/hSziZhXqcB8zaf/o6OilpaV04XTz8/Ojo6OYjWz/2y7n5+fFxcVxcXH5+fmOjo7Q0NDd3d2FhYW8vLyLi4uVlZVnbnJ+fn6tra2pe2TQf1HzgzvpgkJycGe2trZqZmq44T1XcMRmanWYemuOeW9uZm7WgE6CeHN0gHS5fV1qZnSqe2TigUbAfVn2gzmxfGC1oV/wyz3VuE/kw0XIr1WqmmSDfm97kXuBr4GGyYaitmyNmHGHeHGovmq31GXK7l96fHWwymicrm2/4GOKk3K/qFqLhG/Ps1KfkmhfcbV3m3dsdJV6tHp2xXZ/4X+M34yR9pHYaCPN816qy02WpW+9bkbB7Tc7avRJbd5kc6g5WMcXWv8ASOlFbeZoc55Ub8pxdobMbThGXrzRlwwIAAAepUlEQVR4nNVd64PctLWfje1spKzZhx2b+DF+jMdOYGdC6JB0odDe9iZQXtvCpSVQApQ29BYI3P//y5Xkl2TryPbMZpOeD3nMjG39rPPW0dFsdpkUlnSpz3z2FHq6v3KzBJkaIYwx/ctESeaufN37z0brxKmdMEAlJMO1CyMwCts1asAEcuKmuvO8h7oFxWkWUAAoK1LdaxHomt782/H0tMgQ/VmQpfFzGOW2FK8SOjmLIuozIY+wotCLigWd6mQVX8r4diPHz8hgA8P35N9LEJbk+QaZdJz5LzTHOmlCVEnmW/BPQISULPJ6sJakiuufJ4U+gWfaCgCUlAjZD2yighL/xdOxekbhxcO/G0JIKLZNrGXDv7tECtNg7JDGIJyVLyxIX5SJtFwNo7GjGYmQvjWENfdFkMh4rmnz8Rw1GiH9Lb11vMWYLpLihYYnvegpCCl7YG0RTxzTRRLFV0jtl5W58kumISQGqHiOGC2iDQqp+FkGDnL5RVMREoEkGLPnIY+hrWmufP4MvHz9dSz3TaYjJPPoapp96XrVN7W59MUyfK8e3l5G0uu2QUhuOtewv8V125OXYyQdaYVvb++VZSG9cjuE5DqEc8DVfRZka3gl+7zBt7d3iOSCuC3C2SzFmr3lpVMpDrS5TMg4fAThraVUELdHOHPmWhBve/EUsjVTJmICPkKAIO6AcDaLzEuYRg/huUStdfGBgrgTwlmYYfSMpTGV6rQ+PlAQd0NIdDjW0p1uMEBznPelS4aPCqLUIu6KcObkeL7bHRTkIYkYyPGBgrgzQqoInhWn+hj3xgzi6wmi48V65Pu2aft+pMfeDumYCD8b819oqOvEKPC1gmhFK3cRVGlTzazzpCTCXbiraCuH00Ka3J/YieY99lfiYxYxjooyIxzM3VVKZi62fOxbMZnNdOXOUZkRLlSZq9Gj2ZXCvCuCA/gO9o7/QacLGanOAxDl0NJTg+I0jalJRFvLL9QXd4KOjlbjI/COjo6+WS7i3rhlGWF9ReJMLV9N0h+pFlxgZtUzsTAuJb4S3tGx3CICujTU7YBM+GoCv+rYvDCVGmMcC/fWAnj+jo8ZvD3ANVVYC2+FaKZ062FtT+RldV6tsbwtA3hQTt8xmcYD+n+ZRVTbw9jGGMiLSMjqsNa25GLUeyRavgqw5/HxXglvT+6aDlr8KNG0bCT7OQgD6aAppOPA6H1o4XvS+Ttu0DE2lQjiCJ/GM7SxyScj2H0WY4wM3IfoL28JfFrj4wFKBXGU1+bYWJuPmEcyMrSrLHrYdGYyiJkoir352wMEcaRf6tiaZgzJIx2XY+KdNCq53qpu1SW0fGUAn1QQR3vejqFhtWtWjsqic7A1hUHFAxKIHr53WDEogE8qiBNiCy/BgeLH9ZhiHGzv3eTNcCQQ0+Wbh/UEHkgBygRxUvTkm1oGjb4dka4B2edhmnOumgTifPnG4cFxZd7l1BfEifGhK08KieNJtS3d8ALzznYfYhgs3yYA5QwKCSKAUJdm7wjFSOvrgO5o7AGJBcjvvJk+xNj8QDWBUkEEENrmGhqkIQnpu2OZa1uExB5GA7edpebyHTB8AgQRQGje//TMBFJMUS/51H/ZaAubgXDPz+/cOMOL+fItJcK+IMoRxpsPr350vkFymXNynCnGQcnqzccgZZrkafytyWONWWiit5UIe4IoR1icfXz16tUPN5tEPhUGn+OTWedZpGX9D1WUYmlyub25ZzLW0fGvlHzaE0Q5wuD8KqM/n60zqcpJtSYYlAKk2mZSHtWDTEx9e72OzYrlr1UQe4IoRUiZtKRv3z+TqxwSDOrCCHqUa1NEEQHrm/UDfC2opTRRi2JXEKUISyYt6ZPP5CrHCpi+BAHOnCmiaCvykfQRqYYaV4PcWGEQe4IYa3H/nuj8KkcfIanKCRGRCxggzeeOXraJlT6CYSYmz8MRfl3Bp4eIvdnQi9LCmCc5QihP5kaRcnWL3vqPVwX6MDATCRPl5MkwQGoV45EIkal0ZZMgEP7vLn8DJxWJIEarstRUwyYiEPMEmWV+OMhWOn3SimPSkj4+k+qBIEhUAyOafRzAQp0zT82g8yZzWU5jr8xmsKwpXhR1wXPFpaGl+3VRqZWjDsCrn65lWsMgT1YqTH+c9+ap/VifqNmONBBzK5/BMmuaKTLCvhtoOPhzB+CfzmQjpU/N1e7ZfJQ+zUE9Wo4wn/U0mr/siSKUNe3rUis7+/udOwLCuzJuK5+ZK2MTB48IpHx5EUJFXhVudiB20otcWrFrESXWgjLpnTscyPfXEhTVE0lQrpqm1fCqlFpaq6zGrAdRSC9WaamKRIsomcM1Y9IW4ydnEgesed5A1mJAS87oioeKC/JWH4sQufRiN60oWsQ+wvTskxJZjRHh/iC5p8XKkF4fqmWw1KaQ9/1EiG16sZuWEgWxjzAPGvZkGP+86TOa8KxUYfWpslGvfWSq7zu3FiGW6cWDftpNXNDvIXTWvCa9c+fvZ/133JV6lZNtqYOMWFNkyXvuuPhgtHyFMWgvqyEIYg9hw6QV3Q8WXTnruWpKJ9tQejYLlaXou+PCoz18T56WEgSxhzC5K5rCzby7St/3RZVOtoMX8JexSkwNSUwsysfyljQtJQhiF6Gz/o4H+O0ZmlliSC9ztiNpeqoiWzGJC4kWU9+Ue7yVm8s3ZGGGYBG7CP2zj3iE769jNsa2KEIeTched02KSVRNYWgG0s+bAUQYR2gpzWnwgthFuDjjAX50ZjQ369y/Q4HC7sGTmGmwFGbQVdUQVvS1x/gDWZTBC2IHYYdJG3ttIW3F3b1PsUJlOtB3lkKR6jDjs0HYOGFxkDS9yAtiB6G/4ZmUM4VhQuNZRcBrKFwTA7B5rsIWqpwhA7turRukOQ1eEDsI5zyTfnzGC1BGbwsrFJV7acnFLVS4M2qH1jXN+o7y9CIniCLCcP0+bwrXgpTYpqlaw1aFCHNNNiEpvGDsYGVs7XJDkaYXOUEUEQpM+uFmBd5WRglsvHWp14PgWTeUgaWNbY6dZOlFThBFhBnHpN92MheE+W1lbslTGEUZGDnswVtRDs4ElSARRU4QBYQCk37KTGFD7I6ZMlhVvPhUsryfSVmX0VxhRYgnkDQDYuSY/fRiK4gCwmjzJ84UCixZ3S9RWHZiFUDN4fQnJYTti9KXs3CVOm0hStKLrSAKCHkmDUz+tvXdQskCUUsK/6w/YT6sZ+Zqd7weQQuxn16sBDG0vBSnnlU/fP1pA/C7NT9Z7b2Ui0oOXIOp97R/Ykp/OKNSqJhCfomqHVYvvUgE0S+bD5QVtDixfW+mt0z6iRAV8oZeuahkw5JodtS/A8NQ+XK+UHXF5VI66UWWNaXNB/zCLPyqzUCQn31bIzzn+UT0ZFyFLZaIW012Z9gy3TN4k16c1gytTS8e1LWm1Te1HIZxugg+/eed2hSC6RHVMhFVp9B3ccc2wExaKGxh0v2uGVydXqyr+RqLyGmaePNhlXwSTGHPF/U02N+I4YJvkU0VTNrlZ44kSfRmeCy92KbdGovIIXQpkzKMfBJf4myrlhngqRHZFNakEXz3UKbm6gESUTzg01K1ReQQrj9jHHrnDp/El0YTsvxiM3LIYIraNMPQHRbgNyQWiSWf1kP0l7f4tFttEVuEerPwezfI1UvYuiKugwN6IReCIY2sYF8obVcPMln+47h1bmpBbBHatSb9bl2YVT0JFA8qkpxdncldxE1ODK7orGCvAUy9lsM0TJOrXmwEsUVo3q9NYVYWdigCXkWiOtYg19Xnxr4CXxEccHgw59CBJtiN6+pFXhAbhE11QmkKDRKgKSJ6F9bo4BAtDvsCUkgWrIxV7jhdyly11Yu8IDYI6+qEP1amcNVbeOVJ4WQX4PSYrYiCRr0Al7IUUzijy9Hs5rR6sSOIDcLgfpW5qK3RIpBn80qCJ9EDNyQaWv0vWAy1IAVurErqEJ4oSwpo9WJHEGuENZN+tq6X68g1imS1Ik0GNTfgBDGF3g8J9e6ug0JiK0PVziqDxK2lTPHpxVIQa4QVkzamkP5+pVpUmoM2EdSm7eyC1tA3X/79b8/v3u13b1IkdaolqhIil14sBbFGWJXQ1OvZlf5VLCrBOQgdNPrNGwsg7nCDl2/evPm7P7x89+46ETZeIVhm6iWqctCLJqdRCmKFsCqhqdezay2qWlQKIJ0ZggycVKN0QIUZoJdvXrly5ebNK//13wHh16YJlAcaIS4UYMNu04ulIFYIyxKaej27MROqRaUViD6BXndR8S+oaIhvyRBeYSh//9sHZCpLfoU1NJ9aZQNv04tMECuEiJXQVP4mZwcVSVDYcoGjqVUNqGgis0XIQJb8mq88BAYcDh/qsKE36UUmiCVCjy38Vkl8wdAnsJnNoanSoXRVrWpsKMtWBALCml/R3WWw0IFrMuF1scHX6UUmiCXCFV34rUyh6Ml4cNICZFNQzMLKq15A7ybJuwh5fp3Ltu92U6ts405VvcgEsUTI6rwerGX7ceAkKCz8YLlbpUNNyLRhO5AgJHTt+u/+8FcCEhVx55JeUocCqNOLVBAZQlZCU5rCni8KLo0JXlj3IcAXc+aOhtAcW5oPILx+veFX04hC/pKezaYQqvQiFUSGkFYn0PVsaTQBLY3xXliHwMihYAII+nW6Fi+lCK9dv1arnv/5jEzloml0KEvqsII7ll6kgsgQ0hIatp4tiyY8UGf6UCgHbsQplSioiVLNwUqEDOS1v3D8aspcRALDYenFw1tBkQVZkRImZevZ8nAphyIdcC4s6IuIQQffjKvN5AgJkwqa52bp2hkRkNQxsBvR9CLNmtKMcHD372w9WwTYMDucNAJTEZBXU5r6FWSBiI4dg5Dj12VQSBWhgW17+RuaNS1iMvz87j+/W/siwDhrNDqcOUkgjwfyOx2mfm1IfsllAMJrkg+p6vlrAIQiBs5oepEIYqzp4fq7j88CYfOtn5+etnlf0AsDLTdo8NjLAiMLMgIpwmtShCV0IBSZGQFC92jRt49j/+yT+2YUNBuonZV5evr5a6eNOgBVI+h9geaC8fUCmHrqKUxDSL+QhyIhMgnEW4e3l4YZz9GHd1ObSGRZ+G3g05+fnpw8OeVWwgFHGdSZBSRpiLJvDjgEVEFNRdjwqxiKED7RXRMtb7+9RIFvfooSF7s6fb+EPR988f0JpXYlHPTCQGWaQrOe0JtCLg3VQwBCiEnbLyrXruLXmDoCBoH49j2E5nTLhclqcOyAsOeTk5L+ddrMA6w4AOigPWBODZSGoiwhRdhXpdIvuFAkY1ESgfjBO4gRBRhn6BQ9PWno+1YQ55BFhFooRBD7MjcIsiUReS8TEXa5twlFcr2CWFLgluz5vzW6J98//fyLoDESoHo3AYMYQ16LyxAC1sffHWGJsg1F3KBEuEiJnvn8yb9/ePLj09f+9QU6pYRRw0ygiUYA+4JBPH1XoOPtE9U8CaFCA/2OuXb5Kq8nEf309POffj5/QKEh2i9K6NXjQ4oD0ooehJC63iE2dCkVph+bL1+51qPr1/uflV9An5Mvrlyj/IpaOj9ns0nBUeo8OpUOKc7zWPqFbxZyEAamCANNSibCGnr5+sXRtWt/OS9n0CyJ8KxZnQbRf7SUEJJ/jpsOYh0K8OXO4bIEmFYTEZngoy90Di9JDpfLUgDpH/GA9IAGfCs5vCRdWtlBO6Eoq/R1CtlpUJdCroBSl16KPWSODDP0GCE7QOU6WgL5y+4F20PQp4m299qucD5N6mWNJ+ORCNhK0L0gCRXpCjgYmuzT0Jf4zP3SiHhn//q5dNUi85EZhfjeO8vAW4DJX2hIW/il9F0949jCp97n0/MS4Gy1+dtmRdOLvyxNcMerIraYqppYbPFM40OG7+SnU+aLEso2NzYZq178BgUQk4K5sS3jw2cY41N8r508Qae2wRb2yRPv37hP32iy/OXoV0uAGcGVli1jfDD5gXbM05T4Tl57gCMbu3Ocky/Wj248WhMZTwJ0fHRr2e91RymHEk5wnga4oly4AI3PfHKuzeRybRW+ky9Oc8emSacUY2Svv7zx5dpG2HSXrx8f/WMpSxzC65lgrg1WTZRzQD1k75AvrfH9iE7dZpPyCpmbv93428ZEq5BWLx4f/YIka9egIzCD1vlDyGspPQFVzlud1b/Sy3lXZRE1vpPPCYfyedFi89WNrzblFKHlq8dH39xb9kYNrhOCaRrwi9JOXuS6BSsSa/A9oRwqJH6zzf6N/U3pmFj43sHx0fHry0QUrnFlXBIgEipV00WuPTmEVYMK38n357T+VMhsmw8JwodVFoZujiYQf02MP/9YuOp627WnC10/XDT4CIeaegdguH6XIHx3Xb0TujmaQHxjyS93SBboagLXD0GDV6W0Lm4NuOFPwqE/n1LuExdf4s17L9146b1NXP2fbo4mEF9BXLExXGgJl3eB5TLVFxe1js/w/fuHKjWIJSu8/uYxQfi42WVIey9SiAet8Y/hKdx+Hd/fohajv05Yz98PP7DsLotyu+uDxeZrgvDrTTMgWr1IIR6+WRt/Rd8R0BFQ1GKU7xIMH53x9TQcf/7wb8Kh7ISI3gLoItgnCPc5pqp6Lx4f3i6N/wqu+1LV0wBvpVa+sA+B4Joo4RIOH0H4fw/KYfZXeNcPGcKH6+YTVr3IIL5Fjb+l6L4Cb4sYrImCizXgujbeKgv4TkggYcb0Y0mjAKJKKcJ3ub2irHqRyeLb95auqjcOWGQ5XNcGe+bRmNpESzvn8JFAImG5BskaPVGlDGGrTGdV9SKDePD60oQ3VsC1idFwbSJcX4rH1JdG+KcG4FPKoXTrp7S98uYxQ/hY6F7CSqYYxON3lvDJFTvVl25TI2xzusY9fa3hUNYMIZO3HbM3XzOEX294R7msXjxgTYlE488TsD2bErirh/PywNpcuM5bcD3yBz+elIFE9WEgFZoE7TOE+2LhX1m9eEAQ7h0Kxp8nuI4ohuu8W+nbplafdx8JN5+wULeaAFqrL3nl+GGF8KEo+LR6sZzDg709eeSvqAUbVasPF6eCkYxYoxedfkFDXa6HVNYvBKeqtET4rrjxnooikcM9Kot7rfHnSbGpGdSxfKUfPNFwNCo6kG5w3qzPlkqmf96NTlRpifC9jai8wgBRcAclxNv9yF/ROGjk2MHKewfeBCDu1MkblV1r0Qh36n1TokpLhI834qhWQcAKiSuIb/Uif0XzJxcMtua8LGy1d01oC2b1Nzw7Cc5jfiyb/Qrh/oZ/b3GOF1X1Yglx7+1O5K9q4DVy79pW+w9nst4bna5c/OmTOWoQcp47PQkzbTZHVxD3xMgfgdsoR+8/VO0hhT1F1R7SkkJX07K4+s/6UYPwUe2ZxpmmuRRLvTm6gnjIR/6qPaRgIWOXfVX7gGPoq9kC3AfckGXQw4LpRFrrLxuEX7ICaCtFmmZUk1xvjq4htsY/1uDdQqP3ASv3ciua+UB7uYUf0eNjUKH7VJVWCN/b+HpBP15xLZ7rzdEVxMb4q/Zyw0md7l5uBZvC3gT1i3hIcMsjisbcfPUSoRv0j6829CioTpan7r1Yy2Jl/A1FQ09FUqfnrYKrlep9ePzjVT1+Z46ebG60tEn03stvei/WEJnx91WNVRQbL3s6VtUXQ9XapG33rgRIKD/fb7h0/1ymv5reiw3E20u5h1uRYt9lvy+GoreJchKt+vyMIYClKq0RPlrLftIc7dJAfAteg5spp1DSjAbuv6BuJ1mdnzEI0Nt8ySH8ciMdW3O0Sw1RmvavSbH/Wdbroqt7hDup2kmmVJkPApxF1GdrED7eSA11c7RLBZH+0Uv7N6TYwy71p5V9oiS/b6jAhj0IcLYi4W+L8OuNfHGi3RxNIZZuajftX5MitSrfrKjs9aVsQFwMNOVilFGvtEFYL8/0qN0czXpOMGEEIn9F2kqe1AkVXTEH+7UNTuEM3RcQ3odWbdvN0TVCIPJX9WsDWlwqGvYM9dwrVD1DGYWlKm0QPloDN2w2R9dcutcaf+GGip57UFskhYOg4vlyG+XQkZKVKm0QAsp01myOZmcsNRD7kb9KN4BumKpfEtiIsdKiqSZXBzX5pSptED6W9EOuaLF8i52SdcA5cL3IX9GqUuFKq3peDfYv1dVH2BalKm0Qcssz/Uehph0xB1GM/NX9S8GXrWojrEtfDGcHHfnJTBXNS1XaINzfwC0LdPODo7pPQQtRiPwzRW9PVSPhgT7CA3226clMMXR18LCD8CGYxYuRyfVe5CC2kb/SHVf1ER5qPjfUhjrC4FolzSQKCN+FlGmh4YjvvchBrI3/QC9oVdN1ZQ9Ir2v3JatLc01+3F3Mwl8eobA805IeaHNHPNqFh1ga/1x1eoC6UWdns3mHfFVP9ooiU1tIblGr0hahVJl6i+okOaH3Ig+RGn9VjzrVdndGjiIn0unMATnbRZt74T6sVGmLUKJMLUNruFzovcjLIjH+shWDhuCq1WZ8qrMRkvZbxbFEZKBGZx4XwX4H4X63gIIesModZyX0XuQg0k2MuUrlDx7EojzfIgyA8y1EsjJNWwjhkfmwh/ChkN6LFp1DcsXeixzEoyNJ2r8hRWq1JvUZJfX5GUPxoGVjbLaFik6tSjmE3PKMV5gY293iB+FolwYiXYPrp/1rGnFGibIB8YyaTNQrBJJS6Oc0WxiXV9WqlENYK9OYZhtzX3Jqh9AGtYJ4dNQ1/jwNtHSuyFMqm1nUPysIvBMdO87SuFWlHEKqTD0/w/Q9yBW4eHI0hbjXHL4gj/x7KWo5DZz35CvbjnXISueYbkva1Lj2b9T/eGlDdzfheQqmIjptUJtFVN74i0Mbe1qnKsk8G2o71qc4dRG63yeEDDK9KuqeHH3EGQ1J5D/+bLmhc9cW5kAw2COU10Q3ATf/HrxOPDmaAOQh9iL/8eeuKfmUyqCvyUvQR5D07DyYAq73Ip1BHiIx/sLqy2gepZSDPaZLJRO1R0pOpInnAbfpxZJFBYhkEvk12jHndQ3/utaizZGSU2kiwjq9eFCZCR6iCFAxK/Iby/eFc322A7BCQElTEZbpRapGu6a/A1Dpjsto8CzZMAF7qahoMkKWXmwBNhA7ACefJTvmPGBDyyfxBaPJCGl6UTxkiUHsANziPGDJNT1Pxlcnn6Q0HSExGW8eCmcREIjfiABl8zFMUcd7k7hqFoJPdwdoOpdmptk9T+LgG2QKt1mojlCAqZC3lBfIBbIWIE1FqAea63SPdnkFiSsl7nZnq9M6olZdQs62bmrGlGmchjA0NDpZnaNdqAzyh+ykW+k8RrnWLeWSkKFNkcZJCH1cvT7haJdSyXDnaSgPRFRTiCofSxkuxUis7lLSBIRxjpv8K5derLVo43xwxy9PJ8dkebuheFCs7lLSaIS0GqzNNrTpxdZMlKPy1Kd2Dj8Hm9aIgNdxNaIQxtxwJMLeDev0Im8H6bgscxs7wVOM0aiIniaf3BHPGoXQouVwnZuV6UXR0JORIbCYazTpOBgX0XsZV6UH324YIa3my/qhS7589bDjycyMYMsAQCAXo5F8QDO6+YBeHURIE1jdbGt5d4xe7QC0ENQ4ahrpeHQw6KxMjN1YdTMlwtjF2FwBAu2bnTypZ17EDLLn4gnMHs01LejtvGxIgTAuAqzNFe5XZx160rAGiCisCX6fk+YaNt1IaqUAhGHkmoTFU6U+DoVLI6rmL4wcNC3etdJEw1peRL0RSxA6ekFeiZbAaUUZpdvniqRE4t2JMh1GNm3qZGaryONmUzxZzotWGe3whGz5jMPk4qn5vkHKBktm+uRExYL1tDITo0j9SI/ZqWSxHvlpYSSsexVeSGZ6kBbbO9swFdpYqyGSpaf2vGneZTZduTCa26m+3S3R8BraNhRtEdK3FFpk6iJ2KllEJtPagcd8PEXxTSHy6nY2sFtkMbrkbslMoyjDWySfBNoZYedM6wunbZJPAu2KcOcBDBJ5hb3T3afQbgid+c5MNIKKSVmLLu2E0Acrki6WYrTDNO6A0FlguKrsgqnQFKewqGl7hKtLmsCSrASjy1l7aq5DOHn2EsiTL6/uGqTtENJqsGesQiVUYM2YLo7bIHQMbduk9m7kZJpmT8U4HaFjC9Vgl0veXMMTMU5F6Ngk7t9yRf1CKJ4DeSOIpiGk1XzzeOKYLppoEnExftRTEOrdar7nRbRKL4ASZF0ajdBJg34133OjkG5ZzkbFbCMRRoQzUHrReYqdKDbwQKa0pDEIadYUG8P3umwK/QVNIg4AGESouybWFpJizBeCHApSm0NdeygpEXopMT/aQp01fd7k+AbWNBOsOgQReqlhaho2ekfUvIgUr2gOESeFH/eYTYIwjP0ioRcsqori/wyKU4N1+Q/mdhpxmTUOYWjFUWrP2cEFg6WmLyaRybEXVXoUB/k8M1w7CzLbNbJ5HlQZVHNhS6b6P4pCS/dXtrEoMZWnPRC8C8Ne+fouadMXlMLwsjH9P77XdXR4/UIwAAAAAElFTkSuQmCC;" parent="1" vertex="1">
          <mxGeometry x="359" y="-481.09999999999997" width="60" height="60" as="geometry" />
        </mxCell>
        <mxCell id="hM1cyXQX4DXX4V0fBr_b-1" value="" style="shape=image;verticalLabelPosition=bottom;labelBackgroundColor=default;verticalAlign=top;aspect=fixed;imageAspect=0;image=https://huggingface.co/datasets/huggingface/brand-assets/resolve/main/hf-logo-with-title.svg;" vertex="1" parent="1">
          <mxGeometry x="145" y="-418.99" width="158.1" height="42.03" as="geometry" />
        </mxCell>
        <mxCell id="hM1cyXQX4DXX4V0fBr_b-5" value="" style="shape=image;verticalLabelPosition=bottom;labelBackgroundColor=default;verticalAlign=top;aspect=fixed;imageAspect=0;image=https://upload.wikimedia.org/wikipedia/commons/thumb/a/ae/Keras_logo.svg/512px-Keras_logo.svg.png;" vertex="1" parent="1">
          <mxGeometry x="581.46" y="-400.99999999999994" width="39.74" height="39.74" as="geometry" />
        </mxCell>
        <mxCell id="hM1cyXQX4DXX4V0fBr_b-10" value="" style="shape=image;verticalLabelPosition=bottom;labelBackgroundColor=default;verticalAlign=top;aspect=fixed;imageAspect=0;image=https://upload.wikimedia.org/wikipedia/commons/6/69/XGBoost_logo.png;" vertex="1" parent="1">
          <mxGeometry x="298" y="-405.98" width="158.52" height="61" as="geometry" />
        </mxCell>
        <mxCell id="hM1cyXQX4DXX4V0fBr_b-11" value="" style="shape=image;verticalLabelPosition=bottom;labelBackgroundColor=default;verticalAlign=top;aspect=fixed;imageAspect=0;image=https://upload.wikimedia.org/wikipedia/commons/thumb/3/38/Jupyter_logo.svg/1200px-Jupyter_logo.svg.png;" vertex="1" parent="1">
          <mxGeometry x="254.92" y="-382.19" width="37.08" height="42.99" as="geometry" />
        </mxCell>
        <mxCell id="hM1cyXQX4DXX4V0fBr_b-7" value="" style="shape=image;verticalLabelPosition=bottom;labelBackgroundColor=default;verticalAlign=top;aspect=fixed;imageAspect=0;image=data:image/png,iVBORw0KGgoAAAANSUhEUgAAARgAAAEYCAIAAAAI7H7bAAAQ9ElEQVR4nOzdf2xV53348XttYx/73kO42EC5XxVhf0kcPAWl1MUML2KGTqkUBGoaMyQ7WwRlClE70WkNUlX2xzJNGpU2IqoajcLazV4dTDLBEo0sGId05nedBVSI0xZnQb1egvE1Ofde32v72tN6MxeMsa/vfc7zPOec9+uvVkp8T3HfPOd+znnOKZqYmPAByE+B6gMA3ICQAAEICRCAkAABCAkQgJAAAQgJEICQAAEICRCAkAABCAkQgJAAAQgJEICQAAEICRCAkAABCAkQgJAAAQgJEICQAAEICRCAkAABCAkQgJAAAQgJEICQAAEICRCAkAABCAkQgJAAAQgJEICQAAEICRCgSPUBYHrRSLrneMIw/Y/UG4sq+TXpzs+rLzV05eRw+57o5H998d+WLAgXKj0izIKQtNPZYp05Ehsbuef3svF5c+MuU91BYRaEpItha/xsa7y7LZa0pv+NLK0uqm8KrvpKaVGJX/rRYRaEpIUPulM/euF2Nv/k0up5z+5fyJmebghJsRuXUmfb4u+/kxxPZ/uvGKa/qrZk7bbAirUl9h4cskZIyiStic6WT7vb4jn/hNWbyza9ON8wuYahHiEpEI2kf/pj6/Jrw1MmCjlY+PnC390WWPWVUrOCkz2VCEm27tbYG9/7VOzPrFhetL2lnC9OChGSPElrors1dv9oW5R1TcEv7wpypqcEIclgDaTPt8fPtccfNNoWZWl10erNZXWNAUbkkhGS7a6dTrZ+a1DmJzIil4+QbPTL86mf/mPsV+dT2Y+2RTFM/9LqefVNgZoNpbI/25MIyRbRSPr1fXeudyVVHwgjckkISbwPulPte6JJa1z1gXymsrb42f3lhsm3JhsRkkgfXRm52JG4cjIxNqL6UO5lmP7ar5Zt+BOTpckmhCRG/rcpyMGZnk0IKV/RSPrcT2Ln2xM2XR0Sbsn/L6p9uuzxp8oCIXIShpDyMmUHnoMwIheLkHL0QXfyzJHYf707In+0LVBlbTEjciEIac6ikfSre6M3Lms2T8hDVW1x8/6FfHHKByHNTfY78JyFM708EVK2ctiB5yyG6V+9uWz9dtOsYGmaM0KanVNG26IwIs8BIc1E4A48Z2G/4FwR0gPZsQPPWdgvmD1CmsZYynfmyDQPl/Mm9gtmg5DuYQ2kf9GdOtce//W1UdXHohH2C86KkH5L/g48Z2FEPgNC8qndgecshulf9WRpXWNg6aPzVB+LXrwekj478JyFEfkU3g0pGkl3/b31n294brQtyoJwYV1jYPVmRuQ+74bEaFuUYHnBC62L+OLkuZDGUr43X77jndsU5OBMz0MhRSPpvkupt4/EBj4cU30sLuTx/YJeCcm5O/CcxbMjcveH5I4deM6y5pkyr43I3RyS+3bgOYun9gu6M6T+90e72+I9JxKqD8TrguUFdY2BNY1lrh+RuzCkzhar86Cl+ijwW4bp33l40dLqItUHYiNXhcRoW2fuHpG7JKRoJH3t9PCFjgSjbZ25eL+gG0LiNgVnceV+QWeHdO10sruN0bYjPf5U6RN/FHTNiNypIVkD6Vf2MNp2vFC48JtHF7ngi5Mj/wckrYnW3YNU5ALRSPrQjttDEcefUThsRbpxKXXmH2J9l0bY++AmLtgv6JiQhq3xY3uH2IHnbs/85YLVW8pUH0UuHBBSNJK+cnL40mvxwZuOPwHArCprix+pNxy3X1D3kBhte5Pj9gvqG9K7rw+fb4/dvMpjsbxr1ZPGuubgslXFqg9kdjqGxF3buFsoXPjcD8oXVWp9q552429G25giGkm374lqPiLXaEXK7MC7eWWU0TampfN+QS1CGrbG21iFRCgq9rv+r6FN356/rjmo+iim0uLUbujXaSrKU7C84KlvPxQs1+IXais9/6/i/j93LzBM/58dX/LFLaVD/Vp/kXAxQnKD+qagYfr7e9mLpYzWI0XMqqjYt367uX77/35nuHA0pvpwvIuQnG39dnPjLjPzn6+8yY2IyhCSU929FmWegKn6iDyNkJzq7rWIkJQjJOcxTH99U3ByLfL5fKnE+AfdKaUH5XWE5DCG6f/To4un3BY9+FHa9ddhNcf422Hqm4L3by6I6n0fmhewIjnGlOnC3W59yGYTxQjJMaZMF+7W/z6XYhUjJAe4f7owxce/ZEVSjJAc4P7pwhQf/4oVSTGGDboLhQtnrqhPy7uhvYYVSV+Z6UJ9c2Dmf+znp7kUqx4h6WuG6cLdek4QknqEpKMZJt1T3P5oLGmNSzkozISQdJTlWvSbeR1jBi0Qkl5mnXRP8d8MvvVASBqZ9j66mX3CiqQHxt8amfY+uplFI4SkBVYkLWQ/XZjiFu/M1QMhaSH76cLd+i6PJC12T2iBkBTLeS3y+XzvnUzYcETIBSEplttalHHlJE870QXDBpVC4cJZ7wB6EGsgzaVYfbAiqVFQ6Fu7LfDlXWbOL/TmUqxWCEmNtdsCm158KJ+fwB4krRCSbJm16A++keP3okmsSFohJNnyX4syWJG0QkjyFBX71zSW5b8W+Xy+sdQEl2K1QkiSFBX7d7VWLK0W87a5m1dHuRSrFcbfkqxpLBNVkc/nu3GJ56rqhRXJdqKmC3fjSd+6ISTbiZouTOrvHeULkm4IyUZ2rEU+n+9nx7nFTjuEZCPha1HGtS5usdMOwwa7GGZBbvd0z2zYGh/ikfn6YUWyxbqmwPrtQbNibttds3Grj29HOiIk8WoaDDvO6DL6e7mhQUec2glW02Bs+a5dFXGLnbYISaSaBqN5/0I7zugmragrtu+HI2eEJIzda9Fnn7KhtPnvQkurOSfXCyGJsdL+tWhSzYbSbx5dXFnL0qQRQhLjeleys8WS+Yk5P+kBdiAkYToPWqdaPpX2cVW1JV8/XD7XB0rCJoQk0umDMZnrUlVtyTMvLZD2cZgBIQnGuuRNhCQe65IHEZItOg9aklti9qAWIdml86B1aMeAtI/b+Lz51++FmYmrQkg26rs8wkzcIwjJXswePIKQbMfswQsISYbOg9a/H5C9LvF9SSZCkuTtH8aO7Y1K+7iq2pKdhytoSRpCkqfnxLDMlpg9yERIUvWcGH5935C0j8uc41UsZ8+F7QhJtrNtCcnneNv2haR9nGcRkgKS16Vw9bxvHF3EumQrQlJD8roUrp7HumQrQlKm58Twga2fRN6X9FSgzLq0ssGQ83FeQ0gq9feO/eiF29Je0BKunvfs/oUCX4qBSYSkWOz2+KEdA2Oy3tLScyLBk/HsQEjq9feOvvKdQbtbikfHW3cPHtsrb8jhKYSkhZ+fSr75sr33EHUdsnj6vn0Yiepi9ZZSm35yKjH+1vet8+1xm34+CEkXwfIC+2YAb33fOttGRfbi1E4L9j1Zsr939GIHLyazHSFpYckKW04Nrr413NI8MDbC+89tR0haWLJC/Hldf+9ox3eGqEgOviNp4XNCH4qfmS5c7EhQkTSEpIXFlSJ/EUwX5CMk9ULhwlBYzC9iNDVx5kjsYgcVyUZI6tU0CLuCdOZI7PRBqQ8AQwbDBvVWbigR8nOikfTZtpiQH4W5YkVSrLjUv+yxfEPKnNGdbYtJu5EcUxCSYuXLioryXpA4o1OOkBTL81JsZi165wgVKUZIiv2/mrwuxbIWaYJhg2LBPO6yY7qgD0JSLOdTu97u5IGtnzBd0AQhqWSYBZ/L6S67aCT9yp4oFemD70gq1TTMeWDHpFtPhKTS6i1lc/1XmC7oiZCUCZYXzOlSLJNunRGSMo/UG3O6FMtapDOGDcrUbJjDQ0+ZdGuOFUmNomJfVdZvATvVYjFd0BwhqbEgXGSYWZ0OJK0Jzuj0R0hqZPPwrfEx37n2+BmmC05ASGqEH509pHPt8Te+d0fK4SBfDBvUMMtn+ZNPWhOsRQ5CSGrM/NigD3tG/nbLx7Hb4xKPCHkhJDUWVz5wZJe0Jv75zwepyFn4jqRATcP0l2InpwtU5DiEpMCDbrFjuuBcnNrJ9qBLsddOJ5kuOBcrkmzTXoq9djrZ+q1BRUcEAViRZAuFp9lb3sm9Cw5HSLItvfdS7K2+sQNbb/GCZKcjJNkWL7/ndLp9T5SKXIDvSLJNXoq9djrZedCiIncgJNkyl2KZLrgMp3ZSVdUWZy7FMl1wGUKSamVDaTQy1tLMdMFtCEmq39lgHNs7dPMqFbmNFiEZpj+bjW5OZ5j+jr3Rvssjqg/E2aa9EKecf2JClycBHNsb7TkxrPoooC/D9De+FFrZMIeHxkijUUg+n+/G5dSNSyMXO+Lc/oy7Gaa/rjFQ+9Wy8mWazpn1Cilj2Bo/sPXWUCSt+kCghVC48OuHy0W9r9omOoaUwZkeior9T+6eX98UUH0gs9M3pNHURN/l1Ln2eO87KdXHAtkM01/TYKzfbi6q1HohmqRvSJN6TiROtVic6XmHYRbsPFzurEGuA0LKuNARv9iR4Dqmuz36RMnvPRdc9lhJ/i+olswxIWWcfPnTd47wCGwXMkx/8/6FVbVOC+j/OCwkzvRcyTALmveHnFuRI0PKzMd7jifOtsWj5ORwoXDhmsay+ibTcedyUzgypEmMyJ3LQaPtbDg7pMzNEN2t8etdSdUHgmwZpv+Lm8vWNAacMtrOhuNDyrjelfzXfXf44qQ/R9ymkAOXhJTx7huJ//hxnBG5niqWFz3xx4EvPBVw+tehabkqpIxTLRZv5tJKKFz4tZcWOHooNysXhpQZkb++7w7vitSBYRY894OFy1Zl+55Ph3JnSD6f7/ZHY+fa432XRzjTUyUULlzXFKhrDLryXG4K14Y0iRG5fDrvwLOJ+0PKjMgvHI1ffZMRue3034FnE0+ElBGNpA/tGGBEbh+3jraz4aGQMt47mTjbGuc5PmJ9/rHitdsCX9hUqvpAlPFcSBkXOuLH/4pXegnghdF2NjwaEiNyIZy4A88m3g3pN9+axrpbGZHnIhQu/P2dQbfeppADT4c0if2C2XP6DjybENJn+ntH3z5sMSKfQbC8oK4xsHpLqTfncjMjpHtEI+lX90Zv8FTh+1TVFn/tpQUk9CCENA1uhphiZYPx7P6Fqo9Ca4Q0PfYLTu7Ae7jeWFFXUsBSNCNCmsn1rmTH3qg3R+Revk0hB4Q0izsfpy+9lrjelfTOiNzdO/BsQkjZ8sJ+QW5TyBkhzUF/7+i5n8Qu/4sL5xDzFxd+6emy2qfLHlqi42u89EdIcxaNpDtbrJ4TCdUHIkxVbfEf/k3IrCCh3BFSjlwzIq9rLNvy3QWqj8LxCCl3jt4vmNmB93B9yfLHGW0LQEj5ikbSB7Z+4qwROaNt4QhJAGsgfaEj8YvupP77BdmBZxNCEknn/YKMtm1FSILpuV+QHXh2IyTxtNovyA48OQjJRsr3C65rCmx68SGFB+AdhGQvJfsFMzvwKr9UzDciaQhJhmgk/cMdA3LeL8gOPCUISRJrIH3l5PC1rmSfbdtvGW0rREiy/ex44tW/GBL7M0Phwp2HKxaEuVlOGUJSQOx+QW5T0AEhqSFkvyA78PRBSIrlvF9w4/PBjbvm23BEyAUhqTen/YKZHXgP15e4/h14zkJIuohG0q27B2c+02MHnrYISSP9vaP/tHvwQW9wYgeezghJO/fvF1y/PcgOPM0RkqYy+wVLzQL2PjgCIelr2BovNQtUHwWyQkiAAPyFBwhASIAAhAQIQEiAAIQECEBIgACEBAhASIAAhAQIQEiAAIQECEBIgACEBAhASIAAhAQIQEiAAIQECEBIgACEBAhASIAAhAQIQEiAAIQECEBIgACEBAhASIAA/xMAAP//CFulpo7kjo8AAAAASUVORK5CYII=;" vertex="1" parent="1">
          <mxGeometry x="378.8" y="-418.99" width="40.2" height="40.2" as="geometry" />
        </mxCell>
      </root>
    </mxGraphModel>
  </diagram>
</mxfile>
